<svg width="128" height="275" viewBox="0 0 128 275" fill="none" xmlns="http://www.w3.org/2000/svg">
<path d="M42.7173 217V209.727H45.4446C46.0033 209.727 46.4721 209.831 46.8509 210.04C47.232 210.248 47.5196 210.535 47.7138 210.899C47.9103 211.261 48.0085 211.673 48.0085 212.135C48.0085 212.601 47.9103 213.016 47.7138 213.378C47.5173 213.74 47.2273 214.025 46.8438 214.234C46.4602 214.44 45.9879 214.543 45.4268 214.543H43.6193V213.46H45.2493C45.576 213.46 45.8435 213.403 46.0518 213.289C46.2602 213.175 46.4141 213.019 46.5135 212.82C46.6153 212.621 46.6662 212.393 46.6662 212.135C46.6662 211.877 46.6153 211.65 46.5135 211.453C46.4141 211.257 46.259 211.104 46.0483 210.995C45.84 210.884 45.5713 210.828 45.2422 210.828H44.0348V217H42.7173ZM51.3972 217.107C50.8645 217.107 50.4029 216.989 50.0123 216.755C49.6216 216.521 49.3186 216.193 49.1032 215.771C48.8901 215.35 48.7836 214.857 48.7836 214.294C48.7836 213.731 48.8901 213.237 49.1032 212.813C49.3186 212.389 49.6216 212.06 50.0123 211.826C50.4029 211.592 50.8645 211.474 51.3972 211.474C51.9299 211.474 52.3915 211.592 52.7821 211.826C53.1728 212.06 53.4746 212.389 53.6877 212.813C53.9031 213.237 54.0108 213.731 54.0108 214.294C54.0108 214.857 53.9031 215.35 53.6877 215.771C53.4746 216.193 53.1728 216.521 52.7821 216.755C52.3915 216.989 51.9299 217.107 51.3972 217.107ZM51.4043 216.077C51.6931 216.077 51.9346 215.997 52.1287 215.839C52.3229 215.678 52.4673 215.462 52.562 215.192C52.659 214.923 52.7076 214.622 52.7076 214.29C52.7076 213.957 52.659 213.655 52.562 213.385C52.4673 213.113 52.3229 212.896 52.1287 212.735C51.9346 212.574 51.6931 212.494 51.4043 212.494C51.1084 212.494 50.8622 212.574 50.6657 212.735C50.4715 212.896 50.3259 213.113 50.2289 213.385C50.1342 213.655 50.0868 213.957 50.0868 214.29C50.0868 214.622 50.1342 214.923 50.2289 215.192C50.3259 215.462 50.4715 215.678 50.6657 215.839C50.8622 215.997 51.1084 216.077 51.4043 216.077ZM56.3874 209.727V217H55.1019V209.727H56.3874ZM57.7093 217V211.545H58.9949V217H57.7093ZM58.3556 210.771C58.152 210.771 57.9769 210.704 57.8301 210.569C57.6833 210.432 57.6099 210.267 57.6099 210.075C57.6099 209.881 57.6833 209.717 57.8301 209.582C57.9769 209.444 58.152 209.376 58.3556 209.376C58.5616 209.376 58.7368 209.444 58.8812 209.582C59.028 209.717 59.1014 209.881 59.1014 210.075C59.1014 210.267 59.028 210.432 58.8812 210.569C58.7368 210.704 58.5616 210.771 58.3556 210.771ZM62.696 217.107C62.1515 217.107 61.6839 216.987 61.2933 216.748C60.9051 216.509 60.6056 216.179 60.3949 215.757C60.1866 215.333 60.0824 214.846 60.0824 214.294C60.0824 213.74 60.1889 213.251 60.402 212.827C60.6151 212.401 60.9157 212.07 61.304 211.833C61.6946 211.594 62.1563 211.474 62.6889 211.474C63.1316 211.474 63.5234 211.556 63.8643 211.719C64.2076 211.88 64.4811 212.109 64.6847 212.405C64.8883 212.698 65.0043 213.042 65.0327 213.435H63.804C63.7543 213.172 63.6359 212.953 63.4489 212.778C63.2642 212.6 63.0168 212.511 62.7067 212.511C62.4439 212.511 62.2131 212.582 62.0142 212.724C61.8153 212.864 61.6603 213.065 61.549 213.328C61.4401 213.591 61.3857 213.906 61.3857 214.273C61.3857 214.644 61.4401 214.964 61.549 215.232C61.6579 215.497 61.8106 215.701 62.0071 215.846C62.206 215.988 62.4392 216.059 62.7067 216.059C62.8961 216.059 63.0653 216.023 63.2145 215.952C63.366 215.879 63.4927 215.774 63.5945 215.636C63.6963 215.499 63.7661 215.332 63.804 215.136H65.0327C65.0019 215.522 64.8883 215.864 64.6918 216.162C64.4953 216.458 64.2277 216.69 63.8892 216.858C63.5507 217.024 63.1529 217.107 62.696 217.107ZM66.0882 217V211.545H67.3738V217H66.0882ZM66.7346 210.771C66.531 210.771 66.3558 210.704 66.209 210.569C66.0622 210.432 65.9888 210.267 65.9888 210.075C65.9888 209.881 66.0622 209.717 66.209 209.582C66.3558 209.444 66.531 209.376 66.7346 209.376C66.9405 209.376 67.1157 209.444 67.2601 209.582C67.4069 209.717 67.4803 209.881 67.4803 210.075C67.4803 210.267 67.4069 210.432 67.2601 210.569C67.1157 210.704 66.9405 210.771 66.7346 210.771ZM71.1104 217.107C70.5636 217.107 70.0913 216.993 69.6935 216.766C69.2982 216.536 68.994 216.212 68.7809 215.793C68.5678 215.371 68.4613 214.875 68.4613 214.305C68.4613 213.744 68.5678 213.251 68.7809 212.827C68.9963 212.401 69.297 212.07 69.6829 211.833C70.0688 211.594 70.5221 211.474 71.043 211.474C71.3791 211.474 71.6964 211.529 71.9947 211.638C72.2953 211.744 72.5605 211.91 72.7901 212.135C73.0221 212.36 73.2044 212.646 73.337 212.994C73.4696 213.34 73.5359 213.752 73.5359 214.23V214.624H69.065V213.758H72.3036C72.3013 213.512 72.248 213.293 72.1438 213.101C72.0397 212.907 71.8941 212.754 71.707 212.643C71.5224 212.531 71.3069 212.476 71.0607 212.476C70.7979 212.476 70.5671 212.54 70.3683 212.668C70.1694 212.793 70.0143 212.959 69.9031 213.165C69.7942 213.368 69.7385 213.592 69.7362 213.836V214.592C69.7362 214.91 69.7942 215.182 69.9102 215.409C70.0262 215.634 70.1883 215.807 70.3967 215.928C70.605 216.046 70.8488 216.105 71.1282 216.105C71.3152 216.105 71.4845 216.079 71.636 216.027C71.7875 215.973 71.9189 215.893 72.0302 215.789C72.1415 215.685 72.2255 215.556 72.2823 215.402L73.4826 215.537C73.4068 215.854 73.2624 216.131 73.0494 216.368C72.8387 216.602 72.5688 216.785 72.2397 216.915C71.9106 217.043 71.5342 217.107 71.1104 217.107ZM78.9345 212.987L77.7626 213.115C77.7295 212.997 77.6715 212.885 77.5886 212.781C77.5081 212.677 77.3992 212.593 77.2619 212.529C77.1246 212.465 76.9565 212.433 76.7576 212.433C76.4901 212.433 76.2652 212.491 76.0829 212.607C75.903 212.723 75.8142 212.874 75.8166 213.058C75.8142 213.217 75.8722 213.346 75.9906 213.445C76.1113 213.545 76.3102 213.626 76.5872 213.69L77.5176 213.889C78.0337 214 78.4172 214.177 78.6681 214.418C78.9215 214.66 79.0493 214.976 79.0517 215.366C79.0493 215.71 78.9487 216.013 78.7498 216.276C78.5533 216.536 78.2799 216.74 77.9295 216.886C77.5791 217.033 77.1767 217.107 76.7221 217.107C76.0545 217.107 75.5171 216.967 75.1099 216.688C74.7027 216.406 74.46 216.014 74.3819 215.512L75.6355 215.391C75.6923 215.638 75.813 215.823 75.9977 215.949C76.1824 216.074 76.4226 216.137 76.7186 216.137C77.024 216.137 77.269 216.074 77.4537 215.949C77.6407 215.823 77.7342 215.668 77.7342 215.484C77.7342 215.327 77.6738 215.198 77.5531 215.097C77.4347 214.995 77.2501 214.917 76.9991 214.862L76.0687 214.667C75.5455 214.558 75.1584 214.375 74.9075 214.116C74.6565 213.856 74.5323 213.527 74.5346 213.129C74.5323 212.793 74.6234 212.502 74.8081 212.256C74.9951 212.007 75.2543 211.815 75.5858 211.68C75.9196 211.543 76.3043 211.474 76.7399 211.474C77.3791 211.474 77.8822 211.611 78.2491 211.883C78.6184 212.155 78.8469 212.523 78.9345 212.987Z" fill="white"/>
<path d="M43.6513 17H42.245L44.8054 9.72727H46.4318L48.9957 17H47.5895L45.647 11.2188H45.5902L43.6513 17ZM43.6974 14.1484H47.5327V15.2067H43.6974V14.1484ZM52.1101 17.1065C51.5656 17.1065 51.098 16.987 50.7074 16.7479C50.3191 16.5088 50.0196 16.1785 49.8089 15.7571C49.6006 15.3333 49.4964 14.8456 49.4964 14.294C49.4964 13.7401 49.603 13.2512 49.8161 12.8274C50.0291 12.4013 50.3298 12.0698 50.718 11.8331C51.1087 11.594 51.5703 11.4744 52.103 11.4744C52.5457 11.4744 52.9375 11.5561 53.2784 11.7195C53.6217 11.8804 53.8951 12.1089 54.0987 12.4048C54.3023 12.6984 54.4183 13.0417 54.4467 13.4347H53.218C53.1683 13.1719 53.05 12.9529 52.8629 12.7777C52.6783 12.6001 52.4309 12.5114 52.1207 12.5114C51.858 12.5114 51.6271 12.5824 51.4283 12.7244C51.2294 12.8641 51.0743 13.0653 50.9631 13.3281C50.8542 13.5909 50.7997 13.9058 50.7997 14.2727C50.7997 14.6444 50.8542 14.964 50.9631 15.2315C51.072 15.4967 51.2247 15.7015 51.4212 15.8459C51.62 15.9879 51.8532 16.0589 52.1207 16.0589C52.3101 16.0589 52.4794 16.0234 52.6286 15.9524C52.7801 15.879 52.9067 15.7737 53.0085 15.6364C53.1103 15.4991 53.1802 15.3321 53.218 15.1357H54.4467C54.416 15.5215 54.3023 15.8636 54.1058 16.1619C53.9093 16.4579 53.6418 16.6899 53.3033 16.858C52.9647 17.0237 52.567 17.1065 52.1101 17.1065ZM57.8816 17.1065C57.3371 17.1065 56.8695 16.987 56.4789 16.7479C56.0906 16.5088 55.7911 16.1785 55.5804 15.7571C55.3721 15.3333 55.2679 14.8456 55.2679 14.294C55.2679 13.7401 55.3745 13.2512 55.5875 12.8274C55.8006 12.4013 56.1013 12.0698 56.4895 11.8331C56.8801 11.594 57.3418 11.4744 57.8745 11.4744C58.3172 11.4744 58.709 11.5561 59.0499 11.7195C59.3932 11.8804 59.6666 12.1089 59.8702 12.4048C60.0738 12.6984 60.1898 13.0417 60.2182 13.4347H58.9895C58.9398 13.1719 58.8214 12.9529 58.6344 12.7777C58.4498 12.6001 58.2024 12.5114 57.8922 12.5114C57.6294 12.5114 57.3986 12.5824 57.1998 12.7244C57.0009 12.8641 56.8458 13.0653 56.7346 13.3281C56.6257 13.5909 56.5712 13.9058 56.5712 14.2727C56.5712 14.6444 56.6257 14.964 56.7346 15.2315C56.8435 15.4967 56.9962 15.7015 57.1926 15.8459C57.3915 15.9879 57.6247 16.0589 57.8922 16.0589C58.0816 16.0589 58.2509 16.0234 58.4 15.9524C58.5516 15.879 58.6782 15.7737 58.78 15.6364C58.8818 15.4991 58.9516 15.3321 58.9895 15.1357H60.2182C60.1874 15.5215 60.0738 15.8636 59.8773 16.1619C59.6808 16.4579 59.4133 16.6899 59.0748 16.858C58.7362 17.0237 58.3385 17.1065 57.8816 17.1065ZM63.6531 17.1065C63.1204 17.1065 62.6587 16.9893 62.2681 16.755C61.8775 16.5206 61.5745 16.1927 61.359 15.7713C61.146 15.3499 61.0394 14.8575 61.0394 14.294C61.0394 13.7306 61.146 13.237 61.359 12.8132C61.5745 12.3894 61.8775 12.0604 62.2681 11.826C62.6587 11.5916 63.1204 11.4744 63.6531 11.4744C64.1857 11.4744 64.6474 11.5916 65.038 11.826C65.4286 12.0604 65.7305 12.3894 65.9435 12.8132C66.159 13.237 66.2667 13.7306 66.2667 14.294C66.2667 14.8575 66.159 15.3499 65.9435 15.7713C65.7305 16.1927 65.4286 16.5206 65.038 16.755C64.6474 16.9893 64.1857 17.1065 63.6531 17.1065ZM63.6602 16.0767C63.949 16.0767 64.1905 15.9974 64.3846 15.8388C64.5787 15.6778 64.7231 15.4624 64.8178 15.1925C64.9149 14.9226 64.9634 14.6219 64.9634 14.2905C64.9634 13.9567 64.9149 13.6548 64.8178 13.3849C64.7231 13.1127 64.5787 12.8961 64.3846 12.7351C64.1905 12.5741 63.949 12.4936 63.6602 12.4936C63.3642 12.4936 63.118 12.5741 62.9215 12.7351C62.7274 12.8961 62.5818 13.1127 62.4847 13.3849C62.39 13.6548 62.3427 13.9567 62.3427 14.2905C62.3427 14.6219 62.39 14.9226 62.4847 15.1925C62.5818 15.4624 62.7274 15.6778 62.9215 15.8388C63.118 15.9974 63.3642 16.0767 63.6602 16.0767ZM70.8343 14.706V11.5455H72.1199V17H70.8734V16.0305H70.8166C70.6935 16.3359 70.4911 16.5857 70.2093 16.7798C69.93 16.974 69.5855 17.071 69.176 17.071C68.8185 17.071 68.5024 16.9917 68.2278 16.8331C67.9556 16.6721 67.7425 16.4389 67.5886 16.1335C67.4347 15.8258 67.3578 15.4541 67.3578 15.0185V11.5455H68.6433V14.8196C68.6433 15.1652 68.738 15.4399 68.9274 15.6435C69.1168 15.8471 69.3654 15.9489 69.6731 15.9489C69.8625 15.9489 70.046 15.9027 70.2235 15.8104C70.4011 15.718 70.5467 15.5807 70.6603 15.3984C70.7763 15.2138 70.8343 14.983 70.8343 14.706ZM74.7273 13.804V17H73.4418V11.5455H74.6705V12.4723H74.7344C74.8598 12.1669 75.0599 11.9242 75.3345 11.7443C75.6115 11.5644 75.9536 11.4744 76.3608 11.4744C76.7372 11.4744 77.0651 11.5549 77.3445 11.7159C77.6262 11.8769 77.844 12.1101 77.9979 12.4155C78.1541 12.7209 78.2311 13.0914 78.2287 13.527V17H76.9432V13.7259C76.9432 13.3613 76.8485 13.076 76.6591 12.87C76.4721 12.6641 76.2128 12.5611 75.8814 12.5611C75.6565 12.5611 75.4564 12.6108 75.2812 12.7102C75.1084 12.8073 74.9723 12.9482 74.8729 13.1328C74.7758 13.3175 74.7273 13.5412 74.7273 13.804ZM82.2592 11.5455V12.5398H79.1236V11.5455H82.2592ZM79.8977 10.2386H81.1832V15.3594C81.1832 15.5322 81.2093 15.6648 81.2614 15.7571C81.3158 15.8471 81.3868 15.9086 81.4744 15.9418C81.562 15.9749 81.6591 15.9915 81.7656 15.9915C81.8461 15.9915 81.9195 15.9856 81.9858 15.9737C82.0545 15.9619 82.1065 15.9512 82.142 15.9418L82.3587 16.9467C82.29 16.9704 82.1918 16.9964 82.0639 17.0249C81.9384 17.0533 81.7846 17.0698 81.6023 17.0746C81.2803 17.084 80.9903 17.0355 80.7322 16.929C80.4742 16.8201 80.2694 16.652 80.1179 16.4247C79.9688 16.1974 79.8954 15.9134 79.8977 15.5724V10.2386ZM92.0968 12.1811H90.7686C90.7308 11.9633 90.6609 11.7704 90.5591 11.6023C90.4573 11.4318 90.3307 11.2874 90.1792 11.169C90.0276 11.0507 89.8548 10.9619 89.6607 10.9027C89.4689 10.8411 89.2618 10.8104 89.0392 10.8104C88.6439 10.8104 88.2935 10.9098 87.9881 11.1087C87.6827 11.3052 87.4436 11.594 87.2708 11.9751C87.098 12.3539 87.0115 12.8168 87.0115 13.3636C87.0115 13.92 87.098 14.3887 87.2708 14.7699C87.446 15.1487 87.6851 15.4351 87.9881 15.6293C88.2935 15.821 88.6427 15.9169 89.0357 15.9169C89.2535 15.9169 89.4571 15.8885 89.6465 15.8317C89.8382 15.7725 90.0099 15.6861 90.1614 15.5724C90.3153 15.4588 90.4443 15.3191 90.5485 15.1534C90.655 14.9877 90.7284 14.7983 90.7686 14.5852L92.0968 14.5923C92.0471 14.938 91.9393 15.2623 91.7736 15.5653C91.6103 15.8684 91.396 16.1359 91.1309 16.3679C90.8657 16.5975 90.5556 16.7775 90.2005 16.9077C89.8453 17.0355 89.4512 17.0994 89.0179 17.0994C88.3787 17.0994 87.8082 16.9515 87.3063 16.6555C86.8044 16.3596 86.409 15.9323 86.1202 15.3736C85.8314 14.8149 85.687 14.1449 85.687 13.3636C85.687 12.58 85.8326 11.91 86.1238 11.3537C86.415 10.795 86.8115 10.3677 87.3134 10.0717C87.8153 9.7758 88.3835 9.62784 89.0179 9.62784C89.4228 9.62784 89.7992 9.68466 90.1472 9.7983C90.4952 9.91193 90.8053 10.0788 91.0776 10.299C91.3498 10.5168 91.5736 10.7843 91.7488 11.1016C91.9263 11.4164 92.0423 11.7763 92.0968 12.1811ZM93.2464 17V11.5455H94.4929V12.4545H94.5497C94.6491 12.1397 94.8196 11.897 95.0611 11.7266C95.3049 11.5537 95.5831 11.4673 95.8956 11.4673C95.9666 11.4673 96.0459 11.4709 96.1335 11.478C96.2235 11.4827 96.2981 11.491 96.3572 11.5028V12.6854C96.3028 12.6664 96.2164 12.6499 96.098 12.6357C95.982 12.6191 95.8696 12.6108 95.7607 12.6108C95.5263 12.6108 95.3156 12.6617 95.1286 12.7635C94.9439 12.8629 94.7983 13.0014 94.6918 13.179C94.5852 13.3565 94.532 13.5613 94.532 13.7933V17H93.2464ZM99.4015 17.1065C98.8546 17.1065 98.3823 16.9929 97.9846 16.7656C97.5892 16.536 97.285 16.2116 97.0719 15.7926C96.8588 15.3712 96.7523 14.8752 96.7523 14.3047C96.7523 13.7436 96.8588 13.2512 97.0719 12.8274C97.2873 12.4013 97.588 12.0698 97.9739 11.8331C98.3598 11.594 98.8132 11.4744 99.334 11.4744C99.6702 11.4744 99.9874 11.5289 100.286 11.6378C100.586 11.7443 100.852 11.91 101.081 12.1349C101.313 12.3598 101.495 12.6463 101.628 12.9943C101.761 13.34 101.827 13.7519 101.827 14.2301V14.6243H97.356V13.7578H100.595C100.592 13.5116 100.539 13.2926 100.435 13.1009C100.331 12.9067 100.185 12.754 99.998 12.6428C99.8134 12.5315 99.598 12.4759 99.3517 12.4759C99.089 12.4759 98.8581 12.5398 98.6593 12.6676C98.4604 12.7931 98.3053 12.9588 98.1941 13.1648C98.0852 13.3684 98.0295 13.5921 98.0272 13.8359V14.5923C98.0272 14.9096 98.0852 15.1818 98.2012 15.4091C98.3172 15.634 98.4793 15.8068 98.6877 15.9276C98.896 16.0459 99.1399 16.1051 99.4192 16.1051C99.6062 16.1051 99.7755 16.0791 99.927 16.027C100.079 15.9725 100.21 15.8932 100.321 15.7891C100.432 15.6849 100.517 15.5559 100.573 15.402L101.774 15.5369C101.698 15.8542 101.553 16.1312 101.34 16.3679C101.13 16.6023 100.86 16.7846 100.531 16.9148C100.202 17.0426 99.8252 17.1065 99.4015 17.1065ZM104.484 17.1101C104.138 17.1101 103.827 17.0485 103.55 16.9254C103.275 16.8 103.058 16.6153 102.897 16.3714C102.738 16.1276 102.659 15.8269 102.659 15.4695C102.659 15.1617 102.716 14.9072 102.829 14.706C102.943 14.5047 103.098 14.3438 103.294 14.223C103.491 14.1023 103.712 14.0111 103.958 13.9496C104.207 13.8857 104.464 13.8395 104.729 13.8111C105.049 13.7779 105.308 13.7483 105.507 13.7223C105.706 13.6939 105.85 13.6513 105.94 13.5945C106.032 13.5353 106.078 13.4441 106.078 13.321V13.2997C106.078 13.0322 105.999 12.825 105.841 12.6783C105.682 12.5315 105.453 12.4581 105.155 12.4581C104.84 12.4581 104.591 12.5268 104.406 12.6641C104.224 12.8014 104.1 12.9635 104.037 13.1506L102.836 12.9801C102.931 12.6487 103.087 12.3717 103.305 12.1491C103.523 11.9242 103.789 11.7562 104.104 11.6449C104.419 11.5312 104.767 11.4744 105.148 11.4744C105.411 11.4744 105.672 11.5052 105.933 11.5668C106.193 11.6283 106.431 11.7301 106.647 11.8722C106.862 12.0118 107.035 12.2024 107.165 12.4439C107.298 12.6854 107.364 12.9872 107.364 13.3494V17H106.128V16.2507H106.086C106.007 16.4022 105.897 16.5443 105.755 16.6768C105.616 16.8071 105.439 16.9124 105.226 16.9929C105.016 17.071 104.768 17.1101 104.484 17.1101ZM104.818 16.1655C105.076 16.1655 105.3 16.1146 105.489 16.0128C105.678 15.9086 105.824 15.7713 105.926 15.6009C106.03 15.4304 106.082 15.2446 106.082 15.0433V14.4006C106.042 14.4337 105.973 14.4645 105.876 14.4929C105.781 14.5213 105.675 14.5462 105.556 14.5675C105.438 14.5888 105.321 14.6077 105.205 14.6243C105.089 14.6409 104.988 14.6551 104.903 14.6669C104.711 14.6929 104.54 14.7356 104.388 14.7947C104.237 14.8539 104.117 14.9368 104.029 15.0433C103.942 15.1475 103.898 15.2824 103.898 15.4482C103.898 15.6849 103.984 15.8636 104.157 15.9844C104.33 16.1051 104.55 16.1655 104.818 16.1655ZM111.38 11.5455V12.5398H108.245V11.5455H111.38ZM109.019 10.2386H110.304V15.3594C110.304 15.5322 110.33 15.6648 110.382 15.7571C110.437 15.8471 110.508 15.9086 110.596 15.9418C110.683 15.9749 110.78 15.9915 110.887 15.9915C110.967 15.9915 111.041 15.9856 111.107 15.9737C111.176 15.9619 111.228 15.9512 111.263 15.9418L111.48 16.9467C111.411 16.9704 111.313 16.9964 111.185 17.0249C111.06 17.0533 110.906 17.0698 110.723 17.0746C110.401 17.084 110.111 17.0355 109.853 16.929C109.595 16.8201 109.391 16.652 109.239 16.4247C109.09 16.1974 109.016 15.9134 109.019 15.5724V10.2386ZM114.812 17.1065C114.265 17.1065 113.792 16.9929 113.395 16.7656C112.999 16.536 112.695 16.2116 112.482 15.7926C112.269 15.3712 112.162 14.8752 112.162 14.3047C112.162 13.7436 112.269 13.2512 112.482 12.8274C112.698 12.4013 112.998 12.0698 113.384 11.8331C113.77 11.594 114.223 11.4744 114.744 11.4744C115.08 11.4744 115.398 11.5289 115.696 11.6378C115.997 11.7443 116.262 11.91 116.491 12.1349C116.723 12.3598 116.906 12.6463 117.038 12.9943C117.171 13.34 117.237 13.7519 117.237 14.2301V14.6243H112.766V13.7578H116.005C116.002 13.5116 115.949 13.2926 115.845 13.1009C115.741 12.9067 115.595 12.754 115.408 12.6428C115.224 12.5315 115.008 12.4759 114.762 12.4759C114.499 12.4759 114.268 12.5398 114.069 12.6676C113.871 12.7931 113.715 12.9588 113.604 13.1648C113.495 13.3684 113.44 13.5921 113.437 13.8359V14.5923C113.437 14.9096 113.495 15.1818 113.611 15.4091C113.727 15.634 113.89 15.8068 114.098 15.9276C114.306 16.0459 114.55 16.1051 114.829 16.1051C115.016 16.1051 115.186 16.0791 115.337 16.027C115.489 15.9725 115.62 15.8932 115.731 15.7891C115.843 15.6849 115.927 15.5559 115.983 15.402L117.184 15.5369C117.108 15.8542 116.964 16.1312 116.751 16.3679C116.54 16.6023 116.27 16.7846 115.941 16.9148C115.612 17.0426 115.235 17.1065 114.812 17.1065ZM120.349 17.0959C119.92 17.0959 119.537 16.9858 119.198 16.7656C118.86 16.5455 118.592 16.2259 118.396 15.8068C118.199 15.3878 118.101 14.8788 118.101 14.2798C118.101 13.6738 118.2 13.1624 118.399 12.7457C118.6 12.3267 118.871 12.0107 119.212 11.7976C119.553 11.5821 119.933 11.4744 120.352 11.4744C120.672 11.4744 120.935 11.5289 121.141 11.6378C121.347 11.7443 121.51 11.8733 121.631 12.0249C121.751 12.174 121.845 12.3149 121.911 12.4474H121.964V9.72727H123.254V17H121.989V16.1406H121.911C121.845 16.2732 121.749 16.4141 121.624 16.5632C121.498 16.71 121.332 16.8355 121.126 16.9396C120.92 17.0438 120.661 17.0959 120.349 17.0959ZM120.707 16.0412C120.98 16.0412 121.212 15.9678 121.403 15.821C121.595 15.6719 121.741 15.4647 121.84 15.1996C121.94 14.9344 121.989 14.6255 121.989 14.2727C121.989 13.92 121.94 13.6134 121.84 13.353C121.743 13.0926 121.599 12.8902 121.407 12.7457C121.218 12.6013 120.984 12.5291 120.707 12.5291C120.421 12.5291 120.182 12.6037 119.99 12.7528C119.798 12.902 119.654 13.108 119.557 13.3707C119.46 13.6335 119.411 13.9342 119.411 14.2727C119.411 14.6136 119.46 14.9179 119.557 15.1854C119.656 15.4505 119.802 15.66 119.994 15.8139C120.188 15.9654 120.426 16.0412 120.707 16.0412Z" fill="white"/>
<path d="M43.6513 67H42.245L44.8054 59.7273H46.4318L48.9957 67H47.5895L45.647 61.2188H45.5902L43.6513 67ZM43.6974 64.1484H47.5327V65.2067H43.6974V64.1484ZM49.9537 67V59.7273H51.2392V62.4474H51.2924C51.3587 62.3149 51.4522 62.174 51.573 62.0249C51.6937 61.8733 51.8571 61.7443 52.063 61.6378C52.269 61.5289 52.5318 61.4744 52.8514 61.4744C53.2728 61.4744 53.6528 61.5821 53.9913 61.7976C54.3322 62.0107 54.6021 62.3267 54.801 62.7457C55.0022 63.1624 55.1028 63.6738 55.1028 64.2798C55.1028 64.8788 55.0046 65.3878 54.8081 65.8068C54.6116 66.2259 54.344 66.5455 54.0055 66.7656C53.667 66.9858 53.2834 67.0959 52.8549 67.0959C52.5424 67.0959 52.2832 67.0438 52.0772 66.9396C51.8713 66.8355 51.7056 66.71 51.5801 66.5632C51.457 66.4141 51.3611 66.2732 51.2924 66.1406H51.2179V67H49.9537ZM51.2143 64.2727C51.2143 64.6255 51.264 64.9344 51.3635 65.1996C51.4653 65.4647 51.6109 65.6719 51.8002 65.821C51.992 65.9678 52.224 66.0412 52.4963 66.0412C52.7804 66.0412 53.0183 65.9654 53.21 65.8139C53.4018 65.66 53.5462 65.4505 53.6433 65.1854C53.7427 64.9179 53.7924 64.6136 53.7924 64.2727C53.7924 63.9342 53.7439 63.6335 53.6468 63.3707C53.5498 63.108 53.4054 62.902 53.2136 62.7528C53.0218 62.6037 52.7827 62.5291 52.4963 62.5291C52.2217 62.5291 51.9885 62.6013 51.7967 62.7457C51.6049 62.8902 51.4593 63.0926 51.3599 63.353C51.2628 63.6134 51.2143 63.92 51.2143 64.2727ZM58.5749 67.1065C58.0423 67.1065 57.5806 66.9893 57.19 66.755C56.7994 66.5206 56.4963 66.1927 56.2809 65.7713C56.0678 65.3499 55.9613 64.8575 55.9613 64.294C55.9613 63.7306 56.0678 63.237 56.2809 62.8132C56.4963 62.3894 56.7994 62.0604 57.19 61.826C57.5806 61.5916 58.0423 61.4744 58.5749 61.4744C59.1076 61.4744 59.5692 61.5916 59.9599 61.826C60.3505 62.0604 60.6523 62.3894 60.8654 62.8132C61.0808 63.237 61.1886 63.7306 61.1886 64.294C61.1886 64.8575 61.0808 65.3499 60.8654 65.7713C60.6523 66.1927 60.3505 66.5206 59.9599 66.755C59.5692 66.9893 59.1076 67.1065 58.5749 67.1065ZM58.582 66.0767C58.8709 66.0767 59.1123 65.9974 59.3065 65.8388C59.5006 65.6778 59.645 65.4624 59.7397 65.1925C59.8368 64.9226 59.8853 64.6219 59.8853 64.2905C59.8853 63.9567 59.8368 63.6548 59.7397 63.3849C59.645 63.1127 59.5006 62.8961 59.3065 62.7351C59.1123 62.5741 58.8709 62.4936 58.582 62.4936C58.2861 62.4936 58.0399 62.5741 57.8434 62.7351C57.6493 62.8961 57.5037 63.1127 57.4066 63.3849C57.3119 63.6548 57.2646 63.9567 57.2646 64.2905C57.2646 64.6219 57.3119 64.9226 57.4066 65.1925C57.5037 65.4624 57.6493 65.6778 57.8434 65.8388C58.0399 65.9974 58.2861 66.0767 58.582 66.0767ZM65.7562 64.706V61.5455H67.0417V67H65.7953V66.0305H65.7385C65.6154 66.3359 65.4129 66.5857 65.1312 66.7798C64.8519 66.974 64.5074 67.071 64.0978 67.071C63.7404 67.071 63.4243 66.9917 63.1497 66.8331C62.8774 66.6721 62.6644 66.4389 62.5105 66.1335C62.3566 65.8258 62.2797 65.4541 62.2797 65.0185V61.5455H63.5652V64.8196C63.5652 65.1652 63.6599 65.4399 63.8493 65.6435C64.0386 65.8471 64.2872 65.9489 64.595 65.9489C64.7844 65.9489 64.9679 65.9027 65.1454 65.8104C65.323 65.718 65.4686 65.5807 65.5822 65.3984C65.6982 65.2138 65.7562 64.983 65.7562 64.706ZM71.0874 61.5455V62.5398H67.9517V61.5455H71.0874ZM68.7259 60.2386H70.0114V65.3594C70.0114 65.5322 70.0374 65.6648 70.0895 65.7571C70.1439 65.8471 70.215 65.9086 70.3026 65.9418C70.3902 65.9749 70.4872 65.9915 70.5938 65.9915C70.6742 65.9915 70.7476 65.9856 70.8139 65.9737C70.8826 65.9619 70.9347 65.9512 70.9702 65.9418L71.1868 66.9467C71.1181 66.9704 71.0199 66.9964 70.892 67.0249C70.7666 67.0533 70.6127 67.0698 70.4304 67.0746C70.1084 67.084 69.8184 67.0355 69.5604 66.929C69.3023 66.8201 69.0975 66.652 68.946 66.4247C68.7969 66.1974 68.7235 65.9134 68.7259 65.5724V60.2386ZM74.2026 59.7273H75.6905L77.4696 62.9446H77.5407L79.3198 59.7273H80.8077L78.1621 64.2869V67H76.8482V64.2869L74.2026 59.7273ZM83.0476 67.1065C82.5149 67.1065 82.0533 66.9893 81.6626 66.755C81.272 66.5206 80.969 66.1927 80.7536 65.7713C80.5405 65.3499 80.4339 64.8575 80.4339 64.294C80.4339 63.7306 80.5405 63.237 80.7536 62.8132C80.969 62.3894 81.272 62.0604 81.6626 61.826C82.0533 61.5916 82.5149 61.4744 83.0476 61.4744C83.5803 61.4744 84.0419 61.5916 84.4325 61.826C84.8232 62.0604 85.125 62.3894 85.3381 62.8132C85.5535 63.237 85.6612 63.7306 85.6612 64.294C85.6612 64.8575 85.5535 65.3499 85.3381 65.7713C85.125 66.1927 84.8232 66.5206 84.4325 66.755C84.0419 66.9893 83.5803 67.1065 83.0476 67.1065ZM83.0547 66.0767C83.3435 66.0767 83.585 65.9974 83.7791 65.8388C83.9732 65.6778 84.1177 65.4624 84.2124 65.1925C84.3094 64.9226 84.358 64.6219 84.358 64.2905C84.358 63.9567 84.3094 63.6548 84.2124 63.3849C84.1177 63.1127 83.9732 62.8961 83.7791 62.7351C83.585 62.5741 83.3435 62.4936 83.0547 62.4936C82.7588 62.4936 82.5125 62.5741 82.3161 62.7351C82.1219 62.8961 81.9763 63.1127 81.8793 63.3849C81.7846 63.6548 81.7372 63.9567 81.7372 64.2905C81.7372 64.6219 81.7846 64.9226 81.8793 65.1925C81.9763 65.4624 82.1219 65.6778 82.3161 65.8388C82.5125 65.9974 82.7588 66.0767 83.0547 66.0767ZM90.2289 64.706V61.5455H91.5144V67H90.2679V66.0305H90.2111C90.088 66.3359 89.8856 66.5857 89.6039 66.7798C89.3245 66.974 88.9801 67.071 88.5705 67.071C88.213 67.071 87.897 66.9917 87.6223 66.8331C87.3501 66.6721 87.137 66.4389 86.9831 66.1335C86.8292 65.8258 86.7523 65.4541 86.7523 65.0185V61.5455H88.0378V64.8196C88.0378 65.1652 88.1325 65.4399 88.3219 65.6435C88.5113 65.8471 88.7599 65.9489 89.0676 65.9489C89.257 65.9489 89.4405 65.9027 89.6181 65.8104C89.7956 65.718 89.9412 65.5807 90.0549 65.3984C90.1709 65.2138 90.2289 64.983 90.2289 64.706Z" fill="white"/>
<path d="M42.7173 117V109.727H47.4474V110.832H44.0348V112.806H47.2024V113.911H44.0348V115.896H47.4759V117H42.7173ZM50.7589 117.096C50.3304 117.096 49.9469 116.986 49.6083 116.766C49.2698 116.545 49.0022 116.226 48.8058 115.807C48.6093 115.388 48.511 114.879 48.511 114.28C48.511 113.674 48.6104 113.162 48.8093 112.746C49.0105 112.327 49.2816 112.011 49.6225 111.798C49.9634 111.582 50.3434 111.474 50.7624 111.474C51.082 111.474 51.3448 111.529 51.5508 111.638C51.7567 111.744 51.9201 111.873 52.0408 112.025C52.1616 112.174 52.2551 112.315 52.3214 112.447H52.3746V109.727H53.6637V117H52.3995V116.141H52.3214C52.2551 116.273 52.1592 116.414 52.0337 116.563C51.9083 116.71 51.7425 116.835 51.5366 116.94C51.3306 117.044 51.0714 117.096 50.7589 117.096ZM51.1175 116.041C51.3898 116.041 51.6218 115.968 51.8136 115.821C52.0053 115.672 52.1509 115.465 52.2504 115.2C52.3498 114.934 52.3995 114.625 52.3995 114.273C52.3995 113.92 52.3498 113.613 52.2504 113.353C52.1533 113.093 52.0089 112.89 51.8171 112.746C51.6277 112.601 51.3945 112.529 51.1175 112.529C50.8311 112.529 50.592 112.604 50.4002 112.753C50.2085 112.902 50.064 113.108 49.967 113.371C49.8699 113.634 49.8214 113.934 49.8214 114.273C49.8214 114.614 49.8699 114.918 49.967 115.185C50.0664 115.451 50.212 115.66 50.4038 115.814C50.5979 115.965 50.8358 116.041 51.1175 116.041ZM58.5101 114.706V111.545H59.7956V117H58.5492V116.031H58.4924C58.3693 116.336 58.1668 116.586 57.8851 116.78C57.6058 116.974 57.2613 117.071 56.8517 117.071C56.4943 117.071 56.1782 116.992 55.9036 116.833C55.6313 116.672 55.4183 116.439 55.2644 116.134C55.1105 115.826 55.0336 115.454 55.0336 115.018V111.545H56.3191V114.82C56.3191 115.165 56.4138 115.44 56.6032 115.643C56.7926 115.847 57.0411 115.949 57.3489 115.949C57.5383 115.949 57.7218 115.903 57.8993 115.81C58.0769 115.718 58.2225 115.581 58.3361 115.398C58.4521 115.214 58.5101 114.983 58.5101 114.706ZM63.4968 117.107C62.9523 117.107 62.4847 116.987 62.0941 116.748C61.7058 116.509 61.4064 116.179 61.1957 115.757C60.9873 115.333 60.8832 114.846 60.8832 114.294C60.8832 113.74 60.9897 113.251 61.2028 112.827C61.4158 112.401 61.7165 112.07 62.1048 111.833C62.4954 111.594 62.957 111.474 63.4897 111.474C63.9324 111.474 64.3242 111.556 64.6651 111.719C65.0084 111.88 65.2818 112.109 65.4854 112.405C65.689 112.698 65.805 113.042 65.8335 113.435H64.6048C64.555 113.172 64.4367 112.953 64.2496 112.778C64.065 112.6 63.8176 112.511 63.5075 112.511C63.2447 112.511 63.0138 112.582 62.815 112.724C62.6161 112.864 62.4611 113.065 62.3498 113.328C62.2409 113.591 62.1864 113.906 62.1864 114.273C62.1864 114.644 62.2409 114.964 62.3498 115.232C62.4587 115.497 62.6114 115.701 62.8079 115.846C63.0067 115.988 63.2399 116.059 63.5075 116.059C63.6969 116.059 63.8661 116.023 64.0153 115.952C64.1668 115.879 64.2934 115.774 64.3952 115.636C64.497 115.499 64.5669 115.332 64.6048 115.136H65.8335C65.8027 115.522 65.689 115.864 65.4925 116.162C65.296 116.458 65.0285 116.69 64.69 116.858C64.3514 117.024 63.9537 117.107 63.4968 117.107ZM68.4586 117.11C68.113 117.11 67.8017 117.049 67.5247 116.925C67.2501 116.8 67.0323 116.615 66.8713 116.371C66.7127 116.128 66.6333 115.827 66.6333 115.469C66.6333 115.162 66.6902 114.907 66.8038 114.706C66.9174 114.505 67.0725 114.344 67.269 114.223C67.4655 114.102 67.6868 114.011 67.9331 113.95C68.1816 113.886 68.4385 113.839 68.7037 113.811C69.0233 113.778 69.2825 113.748 69.4814 113.722C69.6802 113.694 69.8246 113.651 69.9146 113.594C70.0069 113.535 70.0531 113.444 70.0531 113.321V113.3C70.0531 113.032 69.9738 112.825 69.8152 112.678C69.6565 112.531 69.4281 112.458 69.1298 112.458C68.8149 112.458 68.5652 112.527 68.3805 112.664C68.1982 112.801 68.0751 112.964 68.0112 113.151L66.8109 112.98C66.9056 112.649 67.0618 112.372 67.2797 112.149C67.4975 111.924 67.7638 111.756 68.0787 111.645C68.3935 111.531 68.7415 111.474 69.1227 111.474C69.3855 111.474 69.6471 111.505 69.9075 111.567C70.1679 111.628 70.4058 111.73 70.6213 111.872C70.8367 112.012 71.0095 112.202 71.1397 112.444C71.2723 112.685 71.3386 112.987 71.3386 113.349V117H70.1028V116.251H70.0602C69.9821 116.402 69.872 116.544 69.7299 116.677C69.5903 116.807 69.4139 116.912 69.2008 116.993C68.9901 117.071 68.7427 117.11 68.4586 117.11ZM68.7924 116.165C69.0505 116.165 69.2742 116.115 69.4636 116.013C69.653 115.909 69.7986 115.771 69.9004 115.601C70.0046 115.43 70.0566 115.245 70.0566 115.043V114.401C70.0164 114.434 69.9477 114.464 69.8507 114.493C69.756 114.521 69.6494 114.546 69.5311 114.567C69.4127 114.589 69.2955 114.608 69.1795 114.624C69.0635 114.641 68.9629 114.655 68.8777 114.667C68.6859 114.693 68.5143 114.736 68.3627 114.795C68.2112 114.854 68.0917 114.937 68.0041 115.043C67.9165 115.147 67.8727 115.282 67.8727 115.448C67.8727 115.685 67.9591 115.864 68.1319 115.984C68.3047 116.105 68.5249 116.165 68.7924 116.165ZM75.3549 111.545V112.54H72.2193V111.545H75.3549ZM72.9934 110.239H74.2789V115.359C74.2789 115.532 74.305 115.665 74.3571 115.757C74.4115 115.847 74.4825 115.909 74.5701 115.942C74.6577 115.975 74.7548 115.991 74.8613 115.991C74.9418 115.991 75.0152 115.986 75.0815 115.974C75.1502 115.962 75.2022 115.951 75.2377 115.942L75.4544 116.947C75.3857 116.97 75.2875 116.996 75.1596 117.025C75.0342 117.053 74.8803 117.07 74.698 117.075C74.376 117.084 74.086 117.036 73.8279 116.929C73.5699 116.82 73.3651 116.652 73.2136 116.425C73.0645 116.197 72.9911 115.913 72.9934 115.572V110.239ZM76.43 117V111.545H77.7156V117H76.43ZM77.0763 110.771C76.8728 110.771 76.6976 110.704 76.5508 110.569C76.404 110.432 76.3306 110.267 76.3306 110.075C76.3306 109.881 76.404 109.717 76.5508 109.582C76.6976 109.444 76.8728 109.376 77.0763 109.376C77.2823 109.376 77.4575 109.444 77.6019 109.582C77.7487 109.717 77.8221 109.881 77.8221 110.075C77.8221 110.267 77.7487 110.432 77.6019 110.569C77.4575 110.704 77.2823 110.771 77.0763 110.771ZM81.4167 117.107C80.8841 117.107 80.4224 116.989 80.0318 116.755C79.6412 116.521 79.3381 116.193 79.1227 115.771C78.9096 115.35 78.8031 114.857 78.8031 114.294C78.8031 113.731 78.9096 113.237 79.1227 112.813C79.3381 112.389 79.6412 112.06 80.0318 111.826C80.4224 111.592 80.8841 111.474 81.4167 111.474C81.9494 111.474 82.411 111.592 82.8017 111.826C83.1923 112.06 83.4941 112.389 83.7072 112.813C83.9226 113.237 84.0304 113.731 84.0304 114.294C84.0304 114.857 83.9226 115.35 83.7072 115.771C83.4941 116.193 83.1923 116.521 82.8017 116.755C82.411 116.989 81.9494 117.107 81.4167 117.107ZM81.4238 116.077C81.7127 116.077 81.9541 115.997 82.1483 115.839C82.3424 115.678 82.4868 115.462 82.5815 115.192C82.6786 114.923 82.7271 114.622 82.7271 114.29C82.7271 113.957 82.6786 113.655 82.5815 113.385C82.4868 113.113 82.3424 112.896 82.1483 112.735C81.9541 112.574 81.7127 112.494 81.4238 112.494C81.1279 112.494 80.8817 112.574 80.6852 112.735C80.4911 112.896 80.3455 113.113 80.2484 113.385C80.1537 113.655 80.1064 113.957 80.1064 114.29C80.1064 114.622 80.1537 114.923 80.2484 115.192C80.3455 115.462 80.4911 115.678 80.6852 115.839C80.8817 115.997 81.1279 116.077 81.4238 116.077ZM86.407 113.804V117H85.1214V111.545H86.3501V112.472H86.4141C86.5395 112.167 86.7396 111.924 87.0142 111.744C87.2912 111.564 87.6333 111.474 88.0405 111.474C88.4169 111.474 88.7448 111.555 89.0241 111.716C89.3059 111.877 89.5237 112.11 89.6776 112.415C89.8338 112.721 89.9107 113.091 89.9084 113.527V117H88.6229V113.726C88.6229 113.361 88.5282 113.076 88.3388 112.87C88.1518 112.664 87.8925 112.561 87.5611 112.561C87.3362 112.561 87.1361 112.611 86.9609 112.71C86.7881 112.807 86.652 112.948 86.5526 113.133C86.4555 113.317 86.407 113.541 86.407 113.804Z" fill="white"/>
<path d="M43.6513 167H42.245L44.8054 159.727H46.4318L48.9957 167H47.5895L45.647 161.219H45.5902L43.6513 167ZM43.6974 164.148H47.5327V165.207H43.6974V164.148ZM51.755 167.096C51.3265 167.096 50.9429 166.986 50.6044 166.766C50.2659 166.545 49.9983 166.226 49.8018 165.807C49.6054 165.388 49.5071 164.879 49.5071 164.28C49.5071 163.674 49.6065 163.162 49.8054 162.746C50.0066 162.327 50.2777 162.011 50.6186 161.798C50.9595 161.582 51.3395 161.474 51.7585 161.474C52.0781 161.474 52.3409 161.529 52.5469 161.638C52.7528 161.744 52.9162 161.873 53.0369 162.025C53.1577 162.174 53.2512 162.315 53.3175 162.447H53.3707V159.727H54.6598V167H53.3956V166.141H53.3175C53.2512 166.273 53.1553 166.414 53.0298 166.563C52.9044 166.71 52.7386 166.835 52.5327 166.94C52.3267 167.044 52.0675 167.096 51.755 167.096ZM52.1136 166.041C52.3859 166.041 52.6179 165.968 52.8097 165.821C53.0014 165.672 53.147 165.465 53.2464 165.2C53.3459 164.934 53.3956 164.625 53.3956 164.273C53.3956 163.92 53.3459 163.613 53.2464 163.353C53.1494 163.093 53.005 162.89 52.8132 162.746C52.6238 162.601 52.3906 162.529 52.1136 162.529C51.8272 162.529 51.5881 162.604 51.3963 162.753C51.2045 162.902 51.0601 163.108 50.9631 163.371C50.866 163.634 50.8175 163.934 50.8175 164.273C50.8175 164.614 50.866 164.918 50.9631 165.185C51.0625 165.451 51.2081 165.66 51.3999 165.814C51.594 165.965 51.8319 166.041 52.1136 166.041ZM58.0538 167.096C57.6253 167.096 57.2418 166.986 56.9032 166.766C56.5647 166.545 56.2972 166.226 56.1007 165.807C55.9042 165.388 55.8059 164.879 55.8059 164.28C55.8059 163.674 55.9054 163.162 56.1042 162.746C56.3055 162.327 56.5765 162.011 56.9174 161.798C57.2583 161.582 57.6383 161.474 58.0574 161.474C58.377 161.474 58.6397 161.529 58.8457 161.638C59.0517 161.744 59.215 161.873 59.3358 162.025C59.4565 162.174 59.55 162.315 59.6163 162.447H59.6696V159.727H60.9586V167H59.6944V166.141H59.6163C59.55 166.273 59.4541 166.414 59.3287 166.563C59.2032 166.71 59.0375 166.835 58.8315 166.94C58.6255 167.044 58.3663 167.096 58.0538 167.096ZM58.4125 166.041C58.6847 166.041 58.9167 165.968 59.1085 165.821C59.3002 165.672 59.4458 165.465 59.5453 165.2C59.6447 164.934 59.6944 164.625 59.6944 164.273C59.6944 163.92 59.6447 163.613 59.5453 163.353C59.4482 163.093 59.3038 162.89 59.112 162.746C58.9226 162.601 58.6895 162.529 58.4125 162.529C58.126 162.529 57.8869 162.604 57.6951 162.753C57.5034 162.902 57.359 163.108 57.2619 163.371C57.1648 163.634 57.1163 163.934 57.1163 164.273C57.1163 164.614 57.1648 164.918 57.2619 165.185C57.3613 165.451 57.5069 165.66 57.6987 165.814C57.8928 165.965 58.1307 166.041 58.4125 166.041ZM62.3285 167V161.545H63.614V167H62.3285ZM62.9748 160.771C62.7712 160.771 62.596 160.704 62.4492 160.569C62.3024 160.432 62.229 160.267 62.229 160.075C62.229 159.881 62.3024 159.717 62.4492 159.582C62.596 159.444 62.7712 159.376 62.9748 159.376C63.1808 159.376 63.3559 159.444 63.5004 159.582C63.6471 159.717 63.7205 159.881 63.7205 160.075C63.7205 160.267 63.6471 160.432 63.5004 160.569C63.3559 160.704 63.1808 160.771 62.9748 160.771ZM67.6596 161.545V162.54H64.524V161.545H67.6596ZM65.2981 160.239H66.5836V165.359C66.5836 165.532 66.6097 165.665 66.6618 165.757C66.7162 165.847 66.7872 165.909 66.8748 165.942C66.9624 165.975 67.0595 165.991 67.166 165.991C67.2465 165.991 67.3199 165.986 67.3862 165.974C67.4548 165.962 67.5069 165.951 67.5424 165.942L67.7591 166.947C67.6904 166.97 67.5922 166.996 67.4643 167.025C67.3388 167.053 67.185 167.07 67.0027 167.075C66.6807 167.084 66.3907 167.036 66.1326 166.929C65.8746 166.82 65.6698 166.652 65.5183 166.425C65.3691 166.197 65.2958 165.913 65.2981 165.572V160.239ZM68.7347 167V161.545H70.0202V167H68.7347ZM69.381 160.771C69.1774 160.771 69.0022 160.704 68.8555 160.569C68.7087 160.432 68.6353 160.267 68.6353 160.075C68.6353 159.881 68.7087 159.717 68.8555 159.582C69.0022 159.444 69.1774 159.376 69.381 159.376C69.587 159.376 69.7622 159.444 69.9066 159.582C70.0534 159.717 70.1268 159.881 70.1268 160.075C70.1268 160.267 70.0534 160.432 69.9066 160.569C69.7622 160.704 69.587 160.771 69.381 160.771ZM73.7214 167.107C73.1887 167.107 72.7271 166.989 72.3365 166.755C71.9458 166.521 71.6428 166.193 71.4274 165.771C71.2143 165.35 71.1078 164.857 71.1078 164.294C71.1078 163.731 71.2143 163.237 71.4274 162.813C71.6428 162.389 71.9458 162.06 72.3365 161.826C72.7271 161.592 73.1887 161.474 73.7214 161.474C74.2541 161.474 74.7157 161.592 75.1064 161.826C75.497 162.06 75.7988 162.389 76.0119 162.813C76.2273 163.237 76.335 163.731 76.335 164.294C76.335 164.857 76.2273 165.35 76.0119 165.771C75.7988 166.193 75.497 166.521 75.1064 166.755C74.7157 166.989 74.2541 167.107 73.7214 167.107ZM73.7285 166.077C74.0173 166.077 74.2588 165.997 74.4529 165.839C74.6471 165.678 74.7915 165.462 74.8862 165.192C74.9833 164.923 75.0318 164.622 75.0318 164.29C75.0318 163.957 74.9833 163.655 74.8862 163.385C74.7915 163.113 74.6471 162.896 74.4529 162.735C74.2588 162.574 74.0173 162.494 73.7285 162.494C73.4326 162.494 73.1864 162.574 72.9899 162.735C72.7958 162.896 72.6502 163.113 72.5531 163.385C72.4584 163.655 72.411 163.957 72.411 164.29C72.411 164.622 72.4584 164.923 72.5531 165.192C72.6502 165.462 72.7958 165.678 72.9899 165.839C73.1864 165.997 73.4326 166.077 73.7285 166.077ZM78.7116 163.804V167H77.4261V161.545H78.6548V162.472H78.7188C78.8442 162.167 79.0443 161.924 79.3189 161.744C79.5959 161.564 79.938 161.474 80.3452 161.474C80.7216 161.474 81.0495 161.555 81.3288 161.716C81.6106 161.877 81.8284 162.11 81.9822 162.415C82.1385 162.721 82.2154 163.091 82.2131 163.527V167H80.9276V163.726C80.9276 163.361 80.8329 163.076 80.6435 162.87C80.4564 162.664 80.1972 162.561 79.8658 162.561C79.6409 162.561 79.4408 162.611 79.2656 162.71C79.0928 162.807 78.9567 162.948 78.8572 163.133C78.7602 163.317 78.7116 163.541 78.7116 163.804ZM85.0895 167.11C84.7438 167.11 84.4325 167.049 84.1555 166.925C83.8809 166.8 83.6631 166.615 83.5021 166.371C83.3435 166.128 83.2642 165.827 83.2642 165.469C83.2642 165.162 83.321 164.907 83.4347 164.706C83.5483 164.505 83.7034 164.344 83.8999 164.223C84.0964 164.102 84.3177 164.011 84.5639 163.95C84.8125 163.886 85.0694 163.839 85.3345 163.811C85.6541 163.778 85.9134 163.748 86.1122 163.722C86.3111 163.694 86.4555 163.651 86.5455 163.594C86.6378 163.535 86.6839 163.444 86.6839 163.321V163.3C86.6839 163.032 86.6046 162.825 86.446 162.678C86.2874 162.531 86.0589 162.458 85.7607 162.458C85.4458 162.458 85.196 162.527 85.0114 162.664C84.8291 162.801 84.706 162.964 84.642 163.151L83.4418 162.98C83.5365 162.649 83.6927 162.372 83.9105 162.149C84.1283 161.924 84.3946 161.756 84.7095 161.645C85.0244 161.531 85.3724 161.474 85.7536 161.474C86.0163 161.474 86.2779 161.505 86.5384 161.567C86.7988 161.628 87.0367 161.73 87.2521 161.872C87.4676 162.012 87.6404 162.202 87.7706 162.444C87.9032 162.685 87.9695 162.987 87.9695 163.349V167H86.7337V166.251H86.6911C86.6129 166.402 86.5028 166.544 86.3608 166.677C86.2211 166.807 86.0447 166.912 85.8317 166.993C85.621 167.071 85.3736 167.11 85.0895 167.11ZM85.4233 166.165C85.6813 166.165 85.9051 166.115 86.0945 166.013C86.2839 165.909 86.4295 165.771 86.5312 165.601C86.6354 165.43 86.6875 165.245 86.6875 165.043V164.401C86.6473 164.434 86.5786 164.464 86.4815 164.493C86.3868 164.521 86.2803 164.546 86.1619 164.567C86.0436 164.589 85.9264 164.608 85.8104 164.624C85.6944 164.641 85.5938 164.655 85.5085 164.667C85.3168 164.693 85.1451 164.736 84.9936 164.795C84.8421 164.854 84.7225 164.937 84.6349 165.043C84.5473 165.147 84.5036 165.282 84.5036 165.448C84.5036 165.685 84.59 165.864 84.7628 165.984C84.9356 166.105 85.1558 166.165 85.4233 166.165ZM90.5476 159.727V167H89.2621V159.727H90.5476ZM95.7243 159.727V167H94.4068V159.727H95.7243ZM98.3796 163.804V167H97.0941V161.545H98.3228V162.472H98.3867C98.5122 162.167 98.7122 161.924 98.9869 161.744C99.2638 161.564 99.6059 161.474 100.013 161.474C100.39 161.474 100.717 161.555 100.997 161.716C101.279 161.877 101.496 162.11 101.65 162.415C101.806 162.721 101.883 163.091 101.881 163.527V167H100.596V163.726C100.596 163.361 100.501 163.076 100.311 162.87C100.124 162.664 99.8652 162.561 99.5337 162.561C99.3088 162.561 99.1088 162.611 98.9336 162.71C98.7608 162.807 98.6246 162.948 98.5252 163.133C98.4281 163.317 98.3796 163.541 98.3796 163.804ZM105.951 161.545V162.54H102.726V161.545H105.951ZM103.532 167V161.031C103.532 160.664 103.608 160.358 103.76 160.114C103.913 159.871 104.119 159.688 104.377 159.567C104.636 159.447 104.922 159.386 105.237 159.386C105.459 159.386 105.657 159.404 105.83 159.44C106.003 159.475 106.131 159.507 106.213 159.536L105.958 160.53C105.903 160.513 105.835 160.497 105.752 160.48C105.669 160.461 105.577 160.452 105.475 160.452C105.236 160.452 105.066 160.51 104.967 160.626C104.87 160.739 104.821 160.903 104.821 161.116V167H103.532ZM109.132 167.107C108.599 167.107 108.137 166.989 107.747 166.755C107.356 166.521 107.053 166.193 106.838 165.771C106.624 165.35 106.518 164.857 106.518 164.294C106.518 163.731 106.624 163.237 106.838 162.813C107.053 162.389 107.356 162.06 107.747 161.826C108.137 161.592 108.599 161.474 109.132 161.474C109.664 161.474 110.126 161.592 110.517 161.826C110.907 162.06 111.209 162.389 111.422 162.813C111.637 163.237 111.745 163.731 111.745 164.294C111.745 164.857 111.637 165.35 111.422 165.771C111.209 166.193 110.907 166.521 110.517 166.755C110.126 166.989 109.664 167.107 109.132 167.107ZM109.139 166.077C109.427 166.077 109.669 165.997 109.863 165.839C110.057 165.678 110.202 165.462 110.296 165.192C110.393 164.923 110.442 164.622 110.442 164.29C110.442 163.957 110.393 163.655 110.296 163.385C110.202 163.113 110.057 162.896 109.863 162.735C109.669 162.574 109.427 162.494 109.139 162.494C108.843 162.494 108.597 162.574 108.4 162.735C108.206 162.896 108.06 163.113 107.963 163.385C107.869 163.655 107.821 163.957 107.821 164.29C107.821 164.622 107.869 164.923 107.963 165.192C108.06 165.462 108.206 165.678 108.4 165.839C108.597 165.997 108.843 166.077 109.139 166.077Z" fill="white"/>
<path d="M46.6697 261.727C46.6366 261.416 46.4969 261.175 46.2507 261.002C46.0069 260.829 45.6896 260.743 45.299 260.743C45.0244 260.743 44.7888 260.784 44.5923 260.867C44.3958 260.95 44.2455 261.062 44.1413 261.205C44.0372 261.347 43.9839 261.509 43.9815 261.691C43.9815 261.843 44.0159 261.974 44.0845 262.085C44.1555 262.196 44.2514 262.291 44.3722 262.369C44.4929 262.445 44.6267 262.509 44.7734 262.561C44.9202 262.613 45.0682 262.657 45.2173 262.692L45.8991 262.863C46.1738 262.927 46.4377 263.013 46.6911 263.122C46.9467 263.231 47.1752 263.368 47.3764 263.534C47.58 263.7 47.741 263.9 47.8594 264.134C47.9777 264.369 48.0369 264.643 48.0369 264.958C48.0369 265.384 47.928 265.759 47.7102 266.084C47.4924 266.406 47.1776 266.658 46.7656 266.84C46.3561 267.02 45.8601 267.11 45.2777 267.11C44.7119 267.11 44.2206 267.022 43.804 266.847C43.3897 266.672 43.0653 266.416 42.831 266.08C42.599 265.744 42.4735 265.335 42.4545 264.852H43.7507C43.7696 265.105 43.8478 265.316 43.9851 265.484C44.1224 265.652 44.3011 265.777 44.5213 265.86C44.7438 265.943 44.9924 265.984 45.267 265.984C45.5535 265.984 45.8045 265.942 46.0199 265.857C46.2377 265.769 46.4081 265.648 46.5312 265.494C46.6544 265.338 46.7171 265.156 46.7195 264.947C46.7171 264.758 46.6615 264.602 46.5526 264.479C46.4437 264.353 46.291 264.249 46.0945 264.166C45.9003 264.081 45.6731 264.005 45.4126 263.939L44.5852 263.726C43.9863 263.572 43.5128 263.339 43.1648 263.026C42.8191 262.711 42.6463 262.294 42.6463 261.773C42.6463 261.344 42.7623 260.969 42.9943 260.647C43.2287 260.325 43.5471 260.075 43.9496 259.898C44.352 259.718 44.8078 259.628 45.3168 259.628C45.8329 259.628 46.285 259.718 46.6733 259.898C47.0639 260.075 47.3705 260.323 47.593 260.64C47.8156 260.955 47.9304 261.317 47.9375 261.727H46.6697ZM52.6312 264.706V261.545H53.9167V267H52.6703V266.031H52.6135C52.4904 266.336 52.2879 266.586 52.0062 266.78C51.7269 266.974 51.3824 267.071 50.9728 267.071C50.6154 267.071 50.2993 266.992 50.0247 266.833C49.7524 266.672 49.5394 266.439 49.3855 266.134C49.2316 265.826 49.1547 265.454 49.1547 265.018V261.545H50.4402V264.82C50.4402 265.165 50.5349 265.44 50.7243 265.643C50.9136 265.847 51.1622 265.949 51.47 265.949C51.6594 265.949 51.8429 265.903 52.0204 265.81C52.198 265.718 52.3436 265.581 52.4572 265.398C52.5732 265.214 52.6312 264.983 52.6312 264.706ZM55.2955 267V259.727H56.581V262.447H56.6342C56.7005 262.315 56.794 262.174 56.9148 262.025C57.0355 261.873 57.1989 261.744 57.4048 261.638C57.6108 261.529 57.8736 261.474 58.1932 261.474C58.6146 261.474 58.9946 261.582 59.3331 261.798C59.674 262.011 59.9439 262.327 60.1428 262.746C60.344 263.162 60.4446 263.674 60.4446 264.28C60.4446 264.879 60.3464 265.388 60.1499 265.807C59.9534 266.226 59.6858 266.545 59.3473 266.766C59.0088 266.986 58.6252 267.096 58.1967 267.096C57.8842 267.096 57.625 267.044 57.419 266.94C57.2131 266.835 57.0473 266.71 56.9219 266.563C56.7988 266.414 56.7029 266.273 56.6342 266.141H56.5597V267H55.2955ZM56.5561 264.273C56.5561 264.625 56.6058 264.934 56.7053 265.2C56.8071 265.465 56.9527 265.672 57.142 265.821C57.3338 265.968 57.5658 266.041 57.8381 266.041C58.1222 266.041 58.3601 265.965 58.5518 265.814C58.7436 265.66 58.888 265.451 58.9851 265.185C59.0845 264.918 59.1342 264.614 59.1342 264.273C59.1342 263.934 59.0857 263.634 58.9886 263.371C58.8916 263.108 58.7472 262.902 58.5554 262.753C58.3636 262.604 58.1245 262.529 57.8381 262.529C57.5634 262.529 57.3303 262.601 57.1385 262.746C56.9467 262.89 56.8011 263.093 56.7017 263.353C56.6046 263.613 56.5561 263.92 56.5561 264.273ZM61.5375 267V261.545H62.7662V262.472H62.8301C62.9437 262.16 63.1319 261.916 63.3947 261.741C63.6575 261.563 63.9712 261.474 64.3358 261.474C64.7051 261.474 65.0164 261.564 65.2697 261.744C65.5254 261.922 65.7053 262.165 65.8095 262.472H65.8663C65.987 262.169 66.1906 261.928 66.4771 261.748C66.7659 261.566 67.108 261.474 67.5034 261.474C68.0053 261.474 68.4148 261.633 68.7321 261.95C69.0493 262.268 69.2079 262.73 69.2079 263.339V267H67.9189V263.538C67.9189 263.199 67.8289 262.952 67.649 262.795C67.469 262.637 67.2489 262.558 66.9885 262.558C66.6783 262.558 66.4357 262.655 66.2605 262.849C66.0877 263.04 66.0012 263.29 66.0012 263.598V267H64.7406V263.484C64.7406 263.203 64.6554 262.978 64.4849 262.81C64.3168 262.642 64.0967 262.558 63.8244 262.558C63.6397 262.558 63.4717 262.605 63.3201 262.7C63.1686 262.792 63.0479 262.923 62.9579 263.094C62.868 263.262 62.823 263.458 62.823 263.683V267H61.5375ZM70.5121 267V261.545H71.7976V267H70.5121ZM71.1584 260.771C70.9548 260.771 70.7796 260.704 70.6328 260.569C70.486 260.432 70.4126 260.267 70.4126 260.075C70.4126 259.881 70.486 259.717 70.6328 259.582C70.7796 259.444 70.9548 259.376 71.1584 259.376C71.3643 259.376 71.5395 259.444 71.6839 259.582C71.8307 259.717 71.9041 259.881 71.9041 260.075C71.9041 260.267 71.8307 260.432 71.6839 260.569C71.5395 260.704 71.3643 260.771 71.1584 260.771ZM75.8432 261.545V262.54H72.7076V261.545H75.8432ZM73.4817 260.239H74.7672V265.359C74.7672 265.532 74.7933 265.665 74.8453 265.757C74.8998 265.847 74.9708 265.909 75.0584 265.942C75.146 265.975 75.2431 265.991 75.3496 265.991C75.4301 265.991 75.5035 265.986 75.5698 265.974C75.6384 265.962 75.6905 265.951 75.726 265.942L75.9426 266.947C75.874 266.97 75.7757 266.996 75.6479 267.025C75.5224 267.053 75.3685 267.07 75.1863 267.075C74.8643 267.084 74.5743 267.036 74.3162 266.929C74.0582 266.82 73.8534 266.652 73.7019 266.425C73.5527 266.197 73.4793 265.913 73.4817 265.572V260.239ZM79.642 261.545V262.54H76.5064V261.545H79.642ZM77.2805 260.239H78.5661V265.359C78.5661 265.532 78.5921 265.665 78.6442 265.757C78.6986 265.847 78.7696 265.909 78.8572 265.942C78.9448 265.975 79.0419 265.991 79.1484 265.991C79.2289 265.991 79.3023 265.986 79.3686 265.974C79.4373 265.962 79.4893 265.951 79.5249 265.942L79.7415 266.947C79.6728 266.97 79.5746 266.996 79.4467 267.025C79.3213 267.053 79.1674 267.07 78.9851 267.075C78.6631 267.084 78.3731 267.036 78.1151 266.929C77.857 266.82 77.6522 266.652 77.5007 266.425C77.3516 266.197 77.2782 265.913 77.2805 265.572V260.239ZM83.0733 267.107C82.5265 267.107 82.0542 266.993 81.6564 266.766C81.2611 266.536 80.9569 266.212 80.7438 265.793C80.5307 265.371 80.4242 264.875 80.4242 264.305C80.4242 263.744 80.5307 263.251 80.7438 262.827C80.9592 262.401 81.2599 262.07 81.6458 261.833C82.0317 261.594 82.485 261.474 83.0059 261.474C83.342 261.474 83.6593 261.529 83.9576 261.638C84.2582 261.744 84.5234 261.91 84.753 262.135C84.985 262.36 85.1673 262.646 85.2999 262.994C85.4325 263.34 85.4988 263.752 85.4988 264.23V264.624H81.0279V263.758H84.2665C84.2641 263.512 84.2109 263.293 84.1067 263.101C84.0025 262.907 83.8569 262.754 83.6699 262.643C83.4853 262.531 83.2698 262.476 83.0236 262.476C82.7608 262.476 82.53 262.54 82.3311 262.668C82.1323 262.793 81.9772 262.959 81.8659 263.165C81.757 263.368 81.7014 263.592 81.699 263.836V264.592C81.699 264.91 81.757 265.182 81.873 265.409C81.9891 265.634 82.1512 265.807 82.3596 265.928C82.5679 266.046 82.8117 266.105 83.0911 266.105C83.2781 266.105 83.4474 266.079 83.5989 266.027C83.7504 265.973 83.8818 265.893 83.9931 265.789C84.1043 265.685 84.1884 265.556 84.2452 265.402L85.4455 265.537C85.3697 265.854 85.2253 266.131 85.0123 266.368C84.8016 266.602 84.5317 266.785 84.2026 266.915C83.8735 267.043 83.4971 267.107 83.0733 267.107ZM88.6104 267.096C88.1819 267.096 87.7984 266.986 87.4599 266.766C87.1213 266.545 86.8538 266.226 86.6573 265.807C86.4608 265.388 86.3626 264.879 86.3626 264.28C86.3626 263.674 86.462 263.162 86.6609 262.746C86.8621 262.327 87.1332 262.011 87.4741 261.798C87.815 261.582 88.195 261.474 88.614 261.474C88.9336 261.474 89.1964 261.529 89.4023 261.638C89.6083 261.744 89.7717 261.873 89.8924 262.025C90.0131 262.174 90.1067 262.315 90.1729 262.447H90.2262V259.727H91.5153V267H90.2511V266.141H90.1729C90.1067 266.273 90.0108 266.414 89.8853 266.563C89.7598 266.71 89.5941 266.835 89.3881 266.94C89.1822 267.044 88.9229 267.096 88.6104 267.096ZM88.9691 266.041C89.2414 266.041 89.4734 265.968 89.6651 265.821C89.8569 265.672 90.0025 265.465 90.1019 265.2C90.2013 264.934 90.2511 264.625 90.2511 264.273C90.2511 263.92 90.2013 263.613 90.1019 263.353C90.0049 263.093 89.8604 262.89 89.6687 262.746C89.4793 262.601 89.2461 262.529 88.9691 262.529C88.6826 262.529 88.4435 262.604 88.2518 262.753C88.06 262.902 87.9156 263.108 87.8185 263.371C87.7215 263.634 87.6729 263.934 87.6729 264.273C87.6729 264.614 87.7215 264.918 87.8185 265.185C87.918 265.451 88.0636 265.66 88.2553 265.814C88.4495 265.965 88.6874 266.041 88.9691 266.041ZM94.4583 259.727L94.3411 264.862H93.1976L93.084 259.727H94.4583ZM93.7694 267.078C93.5539 267.078 93.3693 267.002 93.2154 266.851C93.0639 266.699 92.9881 266.515 92.9881 266.297C92.9881 266.084 93.0639 265.902 93.2154 265.75C93.3693 265.598 93.5539 265.523 93.7694 265.523C93.9801 265.523 94.1623 265.598 94.3162 265.75C94.4725 265.902 94.5506 266.084 94.5506 266.297C94.5506 266.441 94.5139 266.573 94.4405 266.691C94.3695 266.809 94.2748 266.904 94.1564 266.975C94.0404 267.044 93.9114 267.078 93.7694 267.078Z" fill="white"/>
<path d="M29.9668 213.599C30.6335 213.215 30.6335 212.252 29.9668 211.867L24.3668 208.634C23.7001 208.249 22.8668 208.73 22.8668 209.5L22.8668 215.967C22.8668 216.736 23.7001 217.218 24.3668 216.833L29.9668 213.599Z" fill="#474747"/>
<circle cx="12.5" cy="12.5" r="12.5" transform="matrix(-4.37114e-08 1 1 4.37114e-08 0 0)" fill="#474747"/>
<circle cx="12.5" cy="12.5" r="12.5" transform="matrix(-4.37114e-08 1 1 4.37114e-08 0 50)" fill="#474747"/>
<circle cx="12.5" cy="12.5" r="12.5" transform="matrix(-4.37114e-08 1 1 4.37114e-08 0 100)" fill="#474747"/>
<circle cx="12.5" cy="12.5" r="12.5" transform="matrix(-4.37114e-08 1 1 4.37114e-08 0 150)" fill="#474747"/>
<circle cx="12.5" cy="12.5" r="12.5" transform="matrix(-4.37114e-08 1 1 4.37114e-08 0 200)" fill="#474747"/>
<circle cx="12.5" cy="12.5" r="12.5" transform="matrix(-4.37114e-08 1 1 4.37114e-08 0 250)" fill="#474747"/>
<rect width="257" height="7" transform="matrix(-4.37114e-08 1 1 4.37114e-08 9 9)" fill="#474747"/>
<circle cx="9.5" cy="9.5" r="9.5" transform="matrix(-4.37114e-08 1 1 4.37114e-08 3 153)" fill="#41AD3F"/>
<rect width="34" height="3" transform="matrix(-4.37114e-08 1 1 4.37114e-08 11 121)" fill="#41AD3F"/>
<rect width="89" height="3" transform="matrix(-4.37114e-08 1 1 4.37114e-08 11 171)" fill="#41AD3F"/>
<circle cx="9.5" cy="9.5" r="9.5" transform="matrix(-4.37114e-08 1 1 4.37114e-08 3 103)" fill="#41AD3F"/>
<rect width="34" height="3" transform="matrix(-4.37114e-08 1 1 4.37114e-08 11 71)" fill="#41AD3F"/>
<circle cx="9.5" cy="9.5" r="9.5" transform="matrix(-4.37114e-08 1 1 4.37114e-08 3 53)" fill="#41AD3F"/>
<rect width="34" height="3" transform="matrix(-4.37114e-08 1 1 4.37114e-08 11 21)" fill="#41AD3F"/>
<circle cx="9.5" cy="9.5" r="9.5" transform="matrix(-4.37114e-08 1 1 4.37114e-08 3 3)" fill="#41AD3F"/>
<circle cx="9.5" cy="9.5" r="9.5" transform="matrix(-4.37114e-08 1 1 4.37114e-08 3 203)" fill="#41AD3F"/>
<circle cx="9.5" cy="9.5" r="9.5" transform="matrix(-4.37114e-08 1 1 4.37114e-08 3 253)" fill="#41AD3F"/>
</svg>
