<svg width="720" height="720" viewBox="0 0 720 720" fill="none" xmlns="http://www.w3.org/2000/svg">
<circle cx="22.5" cy="22.5" r="2.5" fill="#D9D9D9"/>
<circle cx="67.5" cy="22.5" r="2.5" fill="#D9D9D9"/>
<circle cx="112.5" cy="22.5" r="2.5" fill="#D9D9D9"/>
<circle cx="157.5" cy="22.5" r="2.5" fill="#D9D9D9"/>
<circle cx="22.5" cy="67.5" r="2.5" fill="#D9D9D9"/>
<circle cx="67.5" cy="67.5" r="2.5" fill="#D9D9D9"/>
<circle cx="112.5" cy="67.5" r="2.5" fill="#D9D9D9"/>
<circle cx="157.5" cy="67.5" r="2.5" fill="#D9D9D9"/>
<circle cx="22.5" cy="112.5" r="2.5" fill="#D9D9D9"/>
<circle cx="67.5" cy="112.5" r="2.5" fill="#D9D9D9"/>
<circle cx="112.5" cy="112.5" r="2.5" fill="#D9D9D9"/>
<circle cx="157.5" cy="112.5" r="2.5" fill="#D9D9D9"/>
<circle cx="22.5" cy="157.5" r="2.5" fill="#D9D9D9"/>
<circle cx="67.5" cy="157.5" r="2.5" fill="#D9D9D9"/>
<circle cx="112.5" cy="157.5" r="2.5" fill="#D9D9D9"/>
<circle cx="157.5" cy="157.5" r="2.5" fill="#D9D9D9"/>
<circle cx="22.5" cy="382.5" r="2.5" fill="#D9D9D9"/>
<circle cx="67.5" cy="382.5" r="2.5" fill="#D9D9D9"/>
<circle cx="112.5" cy="382.5" r="2.5" fill="#D9D9D9"/>
<circle cx="157.5" cy="382.5" r="2.5" fill="#D9D9D9"/>
<circle cx="22.5" cy="427.5" r="2.5" fill="#D9D9D9"/>
<circle cx="67.5" cy="427.5" r="2.5" fill="#D9D9D9"/>
<circle cx="112.5" cy="427.5" r="2.5" fill="#D9D9D9"/>
<circle cx="157.5" cy="427.5" r="2.5" fill="#D9D9D9"/>
<circle cx="22.5" cy="472.5" r="2.5" fill="#D9D9D9"/>
<circle cx="67.5" cy="472.5" r="2.5" fill="#D9D9D9"/>
<circle cx="112.5" cy="472.5" r="2.5" fill="#D9D9D9"/>
<circle cx="157.5" cy="472.5" r="2.5" fill="#D9D9D9"/>
<circle cx="22.5" cy="517.5" r="2.5" fill="#D9D9D9"/>
<circle cx="67.5" cy="517.5" r="2.5" fill="#D9D9D9"/>
<circle cx="112.5" cy="517.5" r="2.5" fill="#D9D9D9"/>
<circle cx="157.5" cy="517.5" r="2.5" fill="#D9D9D9"/>
<circle cx="382.5" cy="22.5" r="2.5" fill="#D9D9D9"/>
<circle cx="427.5" cy="22.5" r="2.5" fill="#D9D9D9"/>
<circle cx="472.5" cy="22.5" r="2.5" fill="#D9D9D9"/>
<circle cx="517.5" cy="22.5" r="2.5" fill="#D9D9D9"/>
<circle cx="382.5" cy="67.5" r="2.5" fill="#D9D9D9"/>
<circle cx="427.5" cy="67.5" r="2.5" fill="#D9D9D9"/>
<circle cx="472.5" cy="67.5" r="2.5" fill="#D9D9D9"/>
<circle cx="517.5" cy="67.5" r="2.5" fill="#D9D9D9"/>
<circle cx="382.5" cy="112.5" r="2.5" fill="#D9D9D9"/>
<circle cx="427.5" cy="112.5" r="2.5" fill="#D9D9D9"/>
<circle cx="472.5" cy="112.5" r="2.5" fill="#D9D9D9"/>
<circle cx="517.5" cy="112.5" r="2.5" fill="#D9D9D9"/>
<circle cx="382.5" cy="157.5" r="2.5" fill="#D9D9D9"/>
<circle cx="427.5" cy="157.5" r="2.5" fill="#D9D9D9"/>
<circle cx="472.5" cy="157.5" r="2.5" fill="#D9D9D9"/>
<circle cx="517.5" cy="157.5" r="2.5" fill="#D9D9D9"/>
<circle cx="382.5" cy="382.5" r="2.5" fill="#D9D9D9"/>
<circle cx="427.5" cy="382.5" r="2.5" fill="#D9D9D9"/>
<circle cx="472.5" cy="382.5" r="2.5" fill="#D9D9D9"/>
<circle cx="517.5" cy="382.5" r="2.5" fill="#D9D9D9"/>
<circle cx="382.5" cy="427.5" r="2.5" fill="#D9D9D9"/>
<circle cx="427.5" cy="427.5" r="2.5" fill="#D9D9D9"/>
<circle cx="472.5" cy="427.5" r="2.5" fill="#D9D9D9"/>
<circle cx="517.5" cy="427.5" r="2.5" fill="#D9D9D9"/>
<circle cx="382.5" cy="472.5" r="2.5" fill="#D9D9D9"/>
<circle cx="427.5" cy="472.5" r="2.5" fill="#D9D9D9"/>
<circle cx="472.5" cy="472.5" r="2.5" fill="#D9D9D9"/>
<circle cx="517.5" cy="472.5" r="2.5" fill="#D9D9D9"/>
<circle cx="382.5" cy="517.5" r="2.5" fill="#D9D9D9"/>
<circle cx="427.5" cy="517.5" r="2.5" fill="#D9D9D9"/>
<circle cx="472.5" cy="517.5" r="2.5" fill="#D9D9D9"/>
<circle cx="517.5" cy="517.5" r="2.5" fill="#D9D9D9"/>
<circle cx="22.5" cy="202.5" r="2.5" fill="#D9D9D9"/>
<circle cx="67.5" cy="202.5" r="2.5" fill="#D9D9D9"/>
<circle cx="112.5" cy="202.5" r="2.5" fill="#D9D9D9"/>
<circle cx="157.5" cy="202.5" r="2.5" fill="#D9D9D9"/>
<circle cx="22.5" cy="247.5" r="2.5" fill="#D9D9D9"/>
<circle cx="67.5" cy="247.5" r="2.5" fill="#D9D9D9"/>
<circle cx="112.5" cy="247.5" r="2.5" fill="#D9D9D9"/>
<circle cx="157.5" cy="247.5" r="2.5" fill="#D9D9D9"/>
<circle cx="22.5" cy="292.5" r="2.5" fill="#D9D9D9"/>
<circle cx="67.5" cy="292.5" r="2.5" fill="#D9D9D9"/>
<circle cx="112.5" cy="292.5" r="2.5" fill="#D9D9D9"/>
<circle cx="157.5" cy="292.5" r="2.5" fill="#D9D9D9"/>
<circle cx="22.5" cy="337.5" r="2.5" fill="#D9D9D9"/>
<circle cx="67.5" cy="337.5" r="2.5" fill="#D9D9D9"/>
<circle cx="112.5" cy="337.5" r="2.5" fill="#D9D9D9"/>
<circle cx="157.5" cy="337.5" r="2.5" fill="#D9D9D9"/>
<circle cx="22.5" cy="562.5" r="2.5" fill="#D9D9D9"/>
<circle cx="67.5" cy="562.5" r="2.5" fill="#D9D9D9"/>
<circle cx="112.5" cy="562.5" r="2.5" fill="#D9D9D9"/>
<circle cx="157.5" cy="562.5" r="2.5" fill="#D9D9D9"/>
<circle cx="22.5" cy="607.5" r="2.5" fill="#D9D9D9"/>
<circle cx="67.5" cy="607.5" r="2.5" fill="#D9D9D9"/>
<circle cx="112.5" cy="607.5" r="2.5" fill="#D9D9D9"/>
<circle cx="157.5" cy="607.5" r="2.5" fill="#D9D9D9"/>
<circle cx="22.5" cy="652.5" r="2.5" fill="#D9D9D9"/>
<circle cx="67.5" cy="652.5" r="2.5" fill="#D9D9D9"/>
<circle cx="112.5" cy="652.5" r="2.5" fill="#D9D9D9"/>
<circle cx="157.5" cy="652.5" r="2.5" fill="#D9D9D9"/>
<circle cx="22.5" cy="697.5" r="2.5" fill="#D9D9D9"/>
<circle cx="67.5" cy="697.5" r="2.5" fill="#D9D9D9"/>
<circle cx="112.5" cy="697.5" r="2.5" fill="#D9D9D9"/>
<circle cx="157.5" cy="697.5" r="2.5" fill="#D9D9D9"/>
<circle cx="382.5" cy="202.5" r="2.5" fill="#D9D9D9"/>
<circle cx="427.5" cy="202.5" r="2.5" fill="#D9D9D9"/>
<circle cx="472.5" cy="202.5" r="2.5" fill="#D9D9D9"/>
<circle cx="517.5" cy="202.5" r="2.5" fill="#D9D9D9"/>
<circle cx="382.5" cy="247.5" r="2.5" fill="#D9D9D9"/>
<circle cx="427.5" cy="247.5" r="2.5" fill="#D9D9D9"/>
<circle cx="472.5" cy="247.5" r="2.5" fill="#D9D9D9"/>
<circle cx="517.5" cy="247.5" r="2.5" fill="#D9D9D9"/>
<circle cx="382.5" cy="292.5" r="2.5" fill="#D9D9D9"/>
<circle cx="427.5" cy="292.5" r="2.5" fill="#D9D9D9"/>
<circle cx="472.5" cy="292.5" r="2.5" fill="#D9D9D9"/>
<circle cx="517.5" cy="292.5" r="2.5" fill="#D9D9D9"/>
<circle cx="382.5" cy="337.5" r="2.5" fill="#D9D9D9"/>
<circle cx="427.5" cy="337.5" r="2.5" fill="#D9D9D9"/>
<circle cx="472.5" cy="337.5" r="2.5" fill="#D9D9D9"/>
<circle cx="517.5" cy="337.5" r="2.5" fill="#D9D9D9"/>
<circle cx="382.5" cy="562.5" r="2.5" fill="#D9D9D9"/>
<circle cx="427.5" cy="562.5" r="2.5" fill="#D9D9D9"/>
<circle cx="472.5" cy="562.5" r="2.5" fill="#D9D9D9"/>
<circle cx="517.5" cy="562.5" r="2.5" fill="#D9D9D9"/>
<circle cx="382.5" cy="607.5" r="2.5" fill="#D9D9D9"/>
<circle cx="427.5" cy="607.5" r="2.5" fill="#D9D9D9"/>
<circle cx="472.5" cy="607.5" r="2.5" fill="#D9D9D9"/>
<circle cx="517.5" cy="607.5" r="2.5" fill="#D9D9D9"/>
<circle cx="382.5" cy="652.5" r="2.5" fill="#D9D9D9"/>
<circle cx="427.5" cy="652.5" r="2.5" fill="#D9D9D9"/>
<circle cx="472.5" cy="652.5" r="2.5" fill="#D9D9D9"/>
<circle cx="517.5" cy="652.5" r="2.5" fill="#D9D9D9"/>
<circle cx="382.5" cy="697.5" r="2.5" fill="#D9D9D9"/>
<circle cx="427.5" cy="697.5" r="2.5" fill="#D9D9D9"/>
<circle cx="472.5" cy="697.5" r="2.5" fill="#D9D9D9"/>
<circle cx="517.5" cy="697.5" r="2.5" fill="#D9D9D9"/>
<circle cx="202.5" cy="22.5" r="2.5" fill="#D9D9D9"/>
<circle cx="247.5" cy="22.5" r="2.5" fill="#D9D9D9"/>
<circle cx="292.5" cy="22.5" r="2.5" fill="#D9D9D9"/>
<circle cx="337.5" cy="22.5" r="2.5" fill="#D9D9D9"/>
<circle cx="202.5" cy="67.5" r="2.5" fill="#D9D9D9"/>
<circle cx="247.5" cy="67.5" r="2.5" fill="#D9D9D9"/>
<circle cx="292.5" cy="67.5" r="2.5" fill="#D9D9D9"/>
<circle cx="337.5" cy="67.5" r="2.5" fill="#D9D9D9"/>
<circle cx="202.5" cy="112.5" r="2.5" fill="#D9D9D9"/>
<circle cx="247.5" cy="112.5" r="2.5" fill="#D9D9D9"/>
<circle cx="292.5" cy="112.5" r="2.5" fill="#D9D9D9"/>
<circle cx="337.5" cy="112.5" r="2.5" fill="#D9D9D9"/>
<circle cx="202.5" cy="157.5" r="2.5" fill="#D9D9D9"/>
<circle cx="247.5" cy="157.5" r="2.5" fill="#D9D9D9"/>
<circle cx="292.5" cy="157.5" r="2.5" fill="#D9D9D9"/>
<circle cx="337.5" cy="157.5" r="2.5" fill="#D9D9D9"/>
<circle cx="202.5" cy="382.5" r="2.5" fill="#D9D9D9"/>
<circle cx="247.5" cy="382.5" r="2.5" fill="#D9D9D9"/>
<circle cx="292.5" cy="382.5" r="2.5" fill="#D9D9D9"/>
<circle cx="337.5" cy="382.5" r="2.5" fill="#D9D9D9"/>
<circle cx="202.5" cy="427.5" r="2.5" fill="#D9D9D9"/>
<circle cx="247.5" cy="427.5" r="2.5" fill="#D9D9D9"/>
<circle cx="292.5" cy="427.5" r="2.5" fill="#D9D9D9"/>
<circle cx="337.5" cy="427.5" r="2.5" fill="#D9D9D9"/>
<circle cx="202.5" cy="472.5" r="2.5" fill="#D9D9D9"/>
<circle cx="247.5" cy="472.5" r="2.5" fill="#D9D9D9"/>
<circle cx="292.5" cy="472.5" r="2.5" fill="#D9D9D9"/>
<circle cx="337.5" cy="472.5" r="2.5" fill="#D9D9D9"/>
<circle cx="202.5" cy="517.5" r="2.5" fill="#D9D9D9"/>
<circle cx="247.5" cy="517.5" r="2.5" fill="#D9D9D9"/>
<circle cx="292.5" cy="517.5" r="2.5" fill="#D9D9D9"/>
<circle cx="337.5" cy="517.5" r="2.5" fill="#D9D9D9"/>
<circle cx="562.5" cy="22.5" r="2.5" fill="#D9D9D9"/>
<circle cx="607.5" cy="22.5" r="2.5" fill="#D9D9D9"/>
<circle cx="652.5" cy="22.5" r="2.5" fill="#D9D9D9"/>
<circle cx="697.5" cy="22.5" r="2.5" fill="#D9D9D9"/>
<circle cx="562.5" cy="67.5" r="2.5" fill="#D9D9D9"/>
<circle cx="607.5" cy="67.5" r="2.5" fill="#D9D9D9"/>
<circle cx="652.5" cy="67.5" r="2.5" fill="#D9D9D9"/>
<circle cx="697.5" cy="67.5" r="2.5" fill="#D9D9D9"/>
<circle cx="562.5" cy="112.5" r="2.5" fill="#D9D9D9"/>
<circle cx="607.5" cy="112.5" r="2.5" fill="#D9D9D9"/>
<circle cx="652.5" cy="112.5" r="2.5" fill="#D9D9D9"/>
<circle cx="697.5" cy="112.5" r="2.5" fill="#D9D9D9"/>
<circle cx="562.5" cy="157.5" r="2.5" fill="#D9D9D9"/>
<circle cx="607.5" cy="157.5" r="2.5" fill="#D9D9D9"/>
<circle cx="652.5" cy="157.5" r="2.5" fill="#D9D9D9"/>
<circle cx="697.5" cy="157.5" r="2.5" fill="#D9D9D9"/>
<circle cx="562.5" cy="382.5" r="2.5" fill="#D9D9D9"/>
<circle cx="607.5" cy="382.5" r="2.5" fill="#D9D9D9"/>
<circle cx="652.5" cy="382.5" r="2.5" fill="#D9D9D9"/>
<circle cx="697.5" cy="382.5" r="2.5" fill="#D9D9D9"/>
<circle cx="562.5" cy="427.5" r="2.5" fill="#D9D9D9"/>
<circle cx="607.5" cy="427.5" r="2.5" fill="#D9D9D9"/>
<circle cx="652.5" cy="427.5" r="2.5" fill="#D9D9D9"/>
<circle cx="697.5" cy="427.5" r="2.5" fill="#D9D9D9"/>
<circle cx="562.5" cy="472.5" r="2.5" fill="#D9D9D9"/>
<circle cx="607.5" cy="472.5" r="2.5" fill="#D9D9D9"/>
<circle cx="652.5" cy="472.5" r="2.5" fill="#D9D9D9"/>
<circle cx="697.5" cy="472.5" r="2.5" fill="#D9D9D9"/>
<circle cx="562.5" cy="517.5" r="2.5" fill="#D9D9D9"/>
<circle cx="607.5" cy="517.5" r="2.5" fill="#D9D9D9"/>
<circle cx="652.5" cy="517.5" r="2.5" fill="#D9D9D9"/>
<circle cx="697.5" cy="517.5" r="2.5" fill="#D9D9D9"/>
<circle cx="202.5" cy="202.5" r="2.5" fill="#D9D9D9"/>
<circle cx="247.5" cy="202.5" r="2.5" fill="#D9D9D9"/>
<circle cx="292.5" cy="202.5" r="2.5" fill="#D9D9D9"/>
<circle cx="337.5" cy="202.5" r="2.5" fill="#D9D9D9"/>
<circle cx="202.5" cy="247.5" r="2.5" fill="#D9D9D9"/>
<circle cx="247.5" cy="247.5" r="2.5" fill="#D9D9D9"/>
<circle cx="292.5" cy="247.5" r="2.5" fill="#D9D9D9"/>
<circle cx="337.5" cy="247.5" r="2.5" fill="#D9D9D9"/>
<circle cx="202.5" cy="292.5" r="2.5" fill="#D9D9D9"/>
<circle cx="247.5" cy="292.5" r="2.5" fill="#D9D9D9"/>
<circle cx="292.5" cy="292.5" r="2.5" fill="#D9D9D9"/>
<circle cx="337.5" cy="292.5" r="2.5" fill="#D9D9D9"/>
<circle cx="202.5" cy="337.5" r="2.5" fill="#D9D9D9"/>
<circle cx="247.5" cy="337.5" r="2.5" fill="#D9D9D9"/>
<circle cx="292.5" cy="337.5" r="2.5" fill="#D9D9D9"/>
<circle cx="337.5" cy="337.5" r="2.5" fill="#D9D9D9"/>
<circle cx="202.5" cy="562.5" r="2.5" fill="#D9D9D9"/>
<circle cx="247.5" cy="562.5" r="2.5" fill="#D9D9D9"/>
<circle cx="292.5" cy="562.5" r="2.5" fill="#D9D9D9"/>
<circle cx="337.5" cy="562.5" r="2.5" fill="#D9D9D9"/>
<circle cx="202.5" cy="607.5" r="2.5" fill="#D9D9D9"/>
<circle cx="247.5" cy="607.5" r="2.5" fill="#D9D9D9"/>
<circle cx="292.5" cy="607.5" r="2.5" fill="#D9D9D9"/>
<circle cx="337.5" cy="607.5" r="2.5" fill="#D9D9D9"/>
<circle cx="202.5" cy="652.5" r="2.5" fill="#D9D9D9"/>
<circle cx="247.5" cy="652.5" r="2.5" fill="#D9D9D9"/>
<circle cx="292.5" cy="652.5" r="2.5" fill="#D9D9D9"/>
<circle cx="337.5" cy="652.5" r="2.5" fill="#D9D9D9"/>
<circle cx="202.5" cy="697.5" r="2.5" fill="#D9D9D9"/>
<circle cx="247.5" cy="697.5" r="2.5" fill="#D9D9D9"/>
<circle cx="292.5" cy="697.5" r="2.5" fill="#D9D9D9"/>
<circle cx="337.5" cy="697.5" r="2.5" fill="#D9D9D9"/>
<circle cx="562.5" cy="202.5" r="2.5" fill="#D9D9D9"/>
<circle cx="607.5" cy="202.5" r="2.5" fill="#D9D9D9"/>
<circle cx="652.5" cy="202.5" r="2.5" fill="#D9D9D9"/>
<circle cx="697.5" cy="202.5" r="2.5" fill="#D9D9D9"/>
<circle cx="562.5" cy="247.5" r="2.5" fill="#D9D9D9"/>
<circle cx="607.5" cy="247.5" r="2.5" fill="#D9D9D9"/>
<circle cx="652.5" cy="247.5" r="2.5" fill="#D9D9D9"/>
<circle cx="697.5" cy="247.5" r="2.5" fill="#D9D9D9"/>
<circle cx="562.5" cy="292.5" r="2.5" fill="#D9D9D9"/>
<circle cx="607.5" cy="292.5" r="2.5" fill="#D9D9D9"/>
<circle cx="652.5" cy="292.5" r="2.5" fill="#D9D9D9"/>
<circle cx="697.5" cy="292.5" r="2.5" fill="#D9D9D9"/>
<circle cx="562.5" cy="337.5" r="2.5" fill="#D9D9D9"/>
<circle cx="607.5" cy="337.5" r="2.5" fill="#D9D9D9"/>
<circle cx="652.5" cy="337.5" r="2.5" fill="#D9D9D9"/>
<circle cx="697.5" cy="337.5" r="2.5" fill="#D9D9D9"/>
<circle cx="562.5" cy="562.5" r="2.5" fill="#D9D9D9"/>
<circle cx="607.5" cy="562.5" r="2.5" fill="#D9D9D9"/>
<circle cx="652.5" cy="562.5" r="2.5" fill="#D9D9D9"/>
<circle cx="697.5" cy="562.5" r="2.5" fill="#D9D9D9"/>
<circle cx="562.5" cy="607.5" r="2.5" fill="#D9D9D9"/>
<circle cx="607.5" cy="607.5" r="2.5" fill="#D9D9D9"/>
<circle cx="652.5" cy="607.5" r="2.5" fill="#D9D9D9"/>
<circle cx="697.5" cy="607.5" r="2.5" fill="#D9D9D9"/>
<circle cx="562.5" cy="652.5" r="2.5" fill="#D9D9D9"/>
<circle cx="607.5" cy="652.5" r="2.5" fill="#D9D9D9"/>
<circle cx="652.5" cy="652.5" r="2.5" fill="#D9D9D9"/>
<circle cx="697.5" cy="652.5" r="2.5" fill="#D9D9D9"/>
<circle cx="562.5" cy="697.5" r="2.5" fill="#D9D9D9"/>
<circle cx="607.5" cy="697.5" r="2.5" fill="#D9D9D9"/>
<circle cx="652.5" cy="697.5" r="2.5" fill="#D9D9D9"/>
<circle cx="697.5" cy="697.5" r="2.5" fill="#D9D9D9"/>
</svg>
