<svg width="594" height="564" viewBox="0 0 594 564" fill="none" xmlns="http://www.w3.org/2000/svg">
<line x1="261.77" y1="81.0685" x2="281.77" y2="119.069" stroke="white" stroke-width="4"/>
<line x1="127.881" y1="200.321" x2="140.881" y2="236.321" stroke="white" stroke-width="4"/>
<line x1="467.847" y1="206.767" x2="452.847" y2="242.914" stroke="white" stroke-width="4"/>
<line x1="336.798" y1="80.8768" x2="316.798" y2="121.877" stroke="white" stroke-width="4"/>
<line x1="207" y1="448" x2="207" y2="479" stroke="white" stroke-width="4"/>
<line x1="170.875" y1="422.798" x2="133.875" y2="440.798" stroke="white" stroke-width="4"/>
<line x1="387" y1="448" x2="387" y2="479" stroke="white" stroke-width="4"/>
<line x1="423.734" y1="423.14" x2="461.734" y2="438.14" stroke="white" stroke-width="4"/>
<line x1="297" y1="196" x2="297" y2="227" stroke="white" stroke-width="4"/>
<line x1="398" y1="282" x2="347" y2="282" stroke="white" stroke-width="4"/>
<line x1="247" y1="282" x2="196" y2="282" stroke="white" stroke-width="4"/>
<line x1="115" y1="282" x2="84" y2="282" stroke="white" stroke-width="4"/>
<line x1="509" y1="280" x2="478" y2="280" stroke="white" stroke-width="4"/>
<line x1="269.651" y1="319.129" x2="230.651" y2="376.129" stroke="white" stroke-width="4"/>
<line y1="-2" x2="69.0652" y2="-2" transform="matrix(0.564684 0.825307 0.825307 -0.564684 326 318)" stroke="white" stroke-width="4"/>
<circle cx="251" cy="55" r="30" fill="#EE4036"/>
<circle cx="250.543" cy="41.5" r="7.5" fill="#D9D9D9"/>
<path fill-rule="evenodd" clip-rule="evenodd" d="M250.95 75.7726C260.032 75.7726 267.793 70.1145 270.9 62.1308C266.878 55.3021 259.449 50.7197 250.95 50.7197C242.451 50.7197 235.022 55.3021 231 62.1308C234.107 70.1145 241.868 75.7726 250.95 75.7726Z" fill="#D9D9D9"/>
<circle cx="352" cy="55" r="30" fill="#EE4036"/>
<circle cx="351.543" cy="41.5" r="7.5" fill="#D9D9D9"/>
<path fill-rule="evenodd" clip-rule="evenodd" d="M351.95 75.7726C361.032 75.7726 368.793 70.1145 371.9 62.1308C367.878 55.3021 360.449 50.7197 351.95 50.7197C343.451 50.7197 336.022 55.3021 332 62.1308C335.107 70.1145 342.868 75.7726 351.95 75.7726Z" fill="#D9D9D9"/>
<circle cx="478" cy="179" r="30" fill="#EE4036"/>
<circle cx="477.543" cy="165.5" r="7.5" fill="#D9D9D9"/>
<path fill-rule="evenodd" clip-rule="evenodd" d="M477.95 199.773C487.032 199.773 494.793 194.115 497.9 186.131C493.878 179.302 486.449 174.72 477.95 174.72C469.451 174.72 462.022 179.302 458 186.131C461.107 194.115 468.868 199.773 477.95 199.773Z" fill="#D9D9D9"/>
<circle cx="539" cy="280" r="30" fill="#EE4036"/>
<circle cx="538.543" cy="266.5" r="7.5" fill="#D9D9D9"/>
<path fill-rule="evenodd" clip-rule="evenodd" d="M538.95 300.773C548.032 300.773 555.793 295.115 558.9 287.131C554.878 280.302 547.449 275.72 538.95 275.72C530.451 275.72 523.022 280.302 519 287.131C522.107 295.115 529.868 300.773 538.95 300.773Z" fill="#D9D9D9"/>
<circle cx="387" cy="509" r="30" fill="#EE4036"/>
<circle cx="386.543" cy="495.5" r="7.5" fill="#D9D9D9"/>
<path fill-rule="evenodd" clip-rule="evenodd" d="M386.95 529.773C396.032 529.773 403.793 524.115 406.9 516.131C402.878 509.302 395.449 504.72 386.95 504.72C378.451 504.72 371.022 509.302 367 516.131C370.107 524.115 377.868 529.773 386.95 529.773Z" fill="#D9D9D9"/>
<circle cx="488" cy="452" r="30" fill="#EE4036"/>
<circle cx="487.543" cy="438.5" r="7.5" fill="#D9D9D9"/>
<path fill-rule="evenodd" clip-rule="evenodd" d="M487.95 472.773C497.032 472.773 504.793 467.115 507.9 459.131C503.878 452.302 496.449 447.72 487.95 447.72C479.451 447.72 472.022 452.302 468 459.131C471.107 467.115 478.868 472.773 487.95 472.773Z" fill="#D9D9D9"/>
<circle cx="106" cy="452" r="30" fill="#EE4036"/>
<circle cx="105.543" cy="438.5" r="7.5" fill="#D9D9D9"/>
<path fill-rule="evenodd" clip-rule="evenodd" d="M105.95 472.773C115.032 472.773 122.793 467.115 125.9 459.131C121.878 452.302 114.449 447.72 105.95 447.72C97.4511 447.72 90.0225 452.302 86 459.131C89.1067 467.115 96.8676 472.773 105.95 472.773Z" fill="#D9D9D9"/>
<circle cx="207" cy="509" r="30" fill="#EE4036"/>
<circle cx="206.543" cy="495.5" r="7.5" fill="#D9D9D9"/>
<path fill-rule="evenodd" clip-rule="evenodd" d="M206.95 529.773C216.032 529.773 223.793 524.115 226.9 516.131C222.878 509.302 215.449 504.72 206.95 504.72C198.451 504.72 191.022 509.302 187 516.131C190.107 524.115 197.868 529.773 206.95 529.773Z" fill="#D9D9D9"/>
<circle cx="55" cy="273" r="30" fill="#EE4036"/>
<circle cx="54.543" cy="259.5" r="7.5" fill="#D9D9D9"/>
<path fill-rule="evenodd" clip-rule="evenodd" d="M54.95 293.773C64.0324 293.773 71.7933 288.115 74.9 280.131C70.8775 273.302 63.4489 268.72 54.95 268.72C46.4511 268.72 39.0225 273.302 35 280.131C38.1067 288.115 45.8676 293.773 54.95 293.773Z" fill="#D9D9D9"/>
<circle cx="115" cy="171" r="30" fill="#EE4036"/>
<circle cx="114.543" cy="157.5" r="7.5" fill="#D9D9D9"/>
<path fill-rule="evenodd" clip-rule="evenodd" d="M114.95 191.773C124.032 191.773 131.793 186.115 134.9 178.131C130.878 171.302 123.449 166.72 114.95 166.72C106.451 166.72 99.0225 171.302 95 178.131C98.1067 186.115 105.868 191.773 114.95 191.773Z" fill="#D9D9D9"/>
<circle cx="297" cy="156" r="40" fill="#FAAF40"/>
<ellipse cx="296.731" cy="136.5" rx="10" ry="10.5" fill="#D9D9D9"/>
<path fill-rule="evenodd" clip-rule="evenodd" d="M297.407 185.357C310.019 185.357 320.885 177.88 325.814 167.118C320.766 156.503 309.944 149.164 297.407 149.164C284.87 149.164 274.048 156.503 269 167.118C273.929 177.88 284.795 185.357 297.407 185.357Z" fill="#D9D9D9"/>
<circle cx="156" cy="272" r="40" fill="#FAAF40"/>
<ellipse cx="155.731" cy="252.5" rx="10" ry="10.5" fill="#D9D9D9"/>
<path fill-rule="evenodd" clip-rule="evenodd" d="M156.407 301.357C169.019 301.357 179.885 293.88 184.814 283.118C179.766 272.503 168.944 265.164 156.407 265.164C143.87 265.164 133.048 272.503 128 283.118C132.929 293.88 143.795 301.357 156.407 301.357Z" fill="#D9D9D9"/>
<circle cx="207" cy="408" r="40" fill="#FAAF40"/>
<ellipse cx="206.731" cy="388.5" rx="10" ry="10.5" fill="#D9D9D9"/>
<path fill-rule="evenodd" clip-rule="evenodd" d="M207.407 437.357C220.019 437.357 230.885 429.88 235.814 419.118C230.766 408.503 219.944 401.164 207.407 401.164C194.87 401.164 184.048 408.503 179 419.118C183.929 429.88 194.795 437.357 207.407 437.357Z" fill="#D9D9D9"/>
<circle cx="387" cy="408" r="40" fill="#FAAF40"/>
<ellipse cx="386.731" cy="388.5" rx="10" ry="10.5" fill="#D9D9D9"/>
<path fill-rule="evenodd" clip-rule="evenodd" d="M387.407 437.357C400.019 437.357 410.885 429.88 415.814 419.118C410.766 408.503 399.944 401.164 387.407 401.164C374.87 401.164 364.048 408.503 359 419.118C363.929 429.88 374.795 437.357 387.407 437.357Z" fill="#D9D9D9"/>
<circle cx="438" cy="280" r="40" fill="#FAAF40"/>
<ellipse cx="437.731" cy="260.5" rx="10" ry="10.5" fill="#D9D9D9"/>
<path fill-rule="evenodd" clip-rule="evenodd" d="M438.407 309.357C451.019 309.357 461.885 301.88 466.814 291.118C461.766 280.503 450.944 273.164 438.407 273.164C425.87 273.164 415.048 280.503 410 291.118C414.929 301.88 425.795 309.357 438.407 309.357Z" fill="#D9D9D9"/>
<circle cx="297" cy="277" r="50" fill="#262261"/>
<circle cx="296.5" cy="255.5" r="12.5" fill="#D9D9D9"/>
<path fill-rule="evenodd" clip-rule="evenodd" d="M297 316C312.365 316 325.655 307.115 332.011 294.202C326.241 280.567 312.738 271 297 271C281.262 271 267.759 280.567 261.989 294.202C268.345 307.115 281.635 316 297 316Z" fill="#D9D9D9"/>
</svg>
