<svg width="960" height="127" viewBox="0 0 960 127" fill="none" xmlns="http://www.w3.org/2000/svg">
<g clip-path="url(#clip0_639_20)">
<path d="M0 66L53.3 53C106.7 40 213.3 14 320 10.2C426.7 6.30001 533.3 24.7 640 26.7C746.7 28.7 853.3 14.3 906.7 7.20001L960 0V149H906.7C853.3 149 746.7 149 640 149C533.3 149 426.7 149 320 149C213.3 149 106.7 149 53.3 149H0V66Z" fill="#030712"/>
<path d="M0 81L53.3 68C106.7 55 213.3 29 320 25.2C426.7 21.3 533.3 39.7 640 41.7C746.7 43.7 853.3 29.3 906.7 22.2L960 15V164H906.7C853.3 164 746.7 164 640 164C533.3 164 426.7 164 320 164C213.3 164 106.7 164 53.3 164H0V81Z" fill="#0E0B13"/>
<path d="M0 96L53.3 83C106.7 70 213.3 44 320 40.2C426.7 36.3 533.3 54.7 640 56.7C746.7 58.7 853.3 44.3 906.7 37.2L960 30V179H906.7C853.3 179 746.7 179 640 179C533.3 179 426.7 179 320 179C213.3 179 106.7 179 53.3 179H0V96Z" fill="#140F13"/>
<path d="M0 96L53.3 83C106.7 70 213.3 44 320 40.2C426.7 36.3 533.3 54.7 640 56.7C746.7 58.7 853.3 44.3 906.7 37.2L960 30V179H906.7C853.3 179 746.7 179 640 179C533.3 179 426.7 179 320 179C213.3 179 106.7 179 53.3 179H0V96Z" fill="#140F13"/>
<path d="M0 111L53.3 98C106.7 85 213.3 59 320 55.2C426.7 51.3 533.3 69.7 640 71.7C746.7 73.7 853.3 59.3 906.7 52.2L960 45V194H906.7C853.3 194 746.7 194 640 194C533.3 194 426.7 194 320 194C213.3 194 106.7 194 53.3 194H0V111Z" fill="#140F13"/>
<path d="M0 111L53.3 98C106.7 85 213.3 59 320 55.2C426.7 51.3 533.3 69.7 640 71.7C746.7 73.7 853.3 59.3 906.7 52.2L960 45V194H906.7C853.3 194 746.7 194 640 194C533.3 194 426.7 194 320 194C213.3 194 106.7 194 53.3 194H0V111Z" fill="#171314"/>
<path d="M0 126L53.3 113C106.7 100 213.3 74 320 70.2C426.7 66.3 533.3 84.7 640 86.7C746.7 88.7 853.3 74.3 906.7 67.2L960 60V209H906.7C853.3 209 746.7 209 640 209C533.3 209 426.7 209 320 209C213.3 209 106.7 209 53.3 209H0V126Z" fill="#140F13"/>
<path d="M0 126L53.3 113C106.7 100 213.3 74 320 70.2C426.7 66.3 533.3 84.7 640 86.7C746.7 88.7 853.3 74.3 906.7 67.2L960 60V209H906.7C853.3 209 746.7 209 640 209C533.3 209 426.7 209 320 209C213.3 209 106.7 209 53.3 209H0V126Z" fill="#181717"/>
</g>
<defs>
<clipPath id="clip0_639_20">
<rect width="960" height="127" fill="white"/>
</clipPath>
</defs>
</svg>
