<svg width="161" height="160" viewBox="0 0 161 160" fill="none" xmlns="http://www.w3.org/2000/svg">
<path d="M53.9994 50.5602C53.0978 50.5602 52.2123 50.1282 51.6649 49.3282L43.0192 36.7362C42.1337 35.4562 42.4718 33.6962 43.7598 32.8322C45.0478 31.9522 46.8188 32.2882 47.6882 33.5682L56.3339 46.1602C57.2194 47.4402 56.8813 49.2002 55.5933 50.0642C55.0942 50.4162 54.5468 50.5602 53.9994 50.5602Z" fill="white"/>
<path d="M72.4339 47.6965C71.0654 47.6965 69.874 46.7205 69.6486 45.3445L65.6075 20.7205C65.3499 19.1845 66.4125 17.7445 67.942 17.4885C69.4876 17.2325 70.9366 18.2885 71.1942 19.8085L75.2353 44.4325C75.4929 45.9685 74.4303 47.4085 72.9008 47.6645C72.7398 47.6965 72.5788 47.6965 72.4339 47.6965Z" fill="white"/>
<path d="M90.8684 47.6961C90.7396 47.6961 90.6108 47.6961 90.482 47.6641C88.9364 47.4561 87.8577 46.0321 88.067 44.4961L91.5285 19.8721C91.7378 18.3361 93.1546 17.2641 94.7163 17.4721C96.2619 17.6801 97.3406 19.1041 97.1313 20.6401L93.6698 45.2801C93.4766 46.6881 92.2691 47.6961 90.8684 47.6961Z" fill="white"/>
<path d="M108.16 50.56C107.645 50.56 107.113 50.416 106.63 50.112C105.31 49.28 104.924 47.536 105.777 46.224L115.566 31.056C116.403 29.76 118.158 29.376 119.478 30.208C120.798 31.04 121.169 32.784 120.331 34.096L110.543 49.28C109.995 50.112 109.094 50.56 108.16 50.56Z" fill="white"/>
<path d="M21.7189 112.992C21.4452 112.992 21.1715 112.96 20.9139 112.88L3.6225 107.712C2.8819 107.488 2.254 106.976 1.9159 106.288C1.5617 105.6 1.5134 104.8 1.771 104.08L19.0624 55.984C19.3361 55.248 19.8835 54.656 20.6241 54.352C21.3486 54.048 22.1697 54.048 22.8942 54.368L39.606 61.808C40.7169 62.304 41.3931 63.456 41.2643 64.656C38.9298 87.952 24.7457 110.72 24.1339 111.68C23.6026 112.496 22.6849 112.992 21.7189 112.992ZM8.0983 103.184L20.4148 106.848C23.6509 101.248 33.0533 83.744 35.3878 66.08L23.3611 60.72L8.0983 103.184Z" fill="white"/>
<path d="M139.281 112.992C138.412 112.992 137.558 112.592 137.011 111.872C121.249 90.976 116.516 67.616 116.323 66.624C116.097 65.488 116.596 64.336 117.578 63.712L131.988 54.544C132.664 54.112 133.485 54 134.258 54.192C135.031 54.4 135.675 54.928 136.045 55.632L159.1 100.864C159.454 101.536 159.503 102.336 159.245 103.056C158.988 103.776 158.456 104.368 157.764 104.688L140.473 112.704C140.086 112.896 139.684 112.992 139.281 112.992ZM122.312 67.376C123.696 73.008 128.655 90.56 140.183 106.64L152.709 100.832L132.406 60.96L122.312 67.376Z" fill="white"/>
<path d="M123.712 117.568C123.02 117.568 122.328 117.312 121.78 116.816C108.707 104.704 87.0688 84.8959 84.7021 83.3439C83.3497 82.4639 80.7737 82.8159 79.0671 83.2959C77.6181 86.1279 73.5931 92.8959 67.4107 94.5759C63.112 95.7439 59.409 95.2159 57.0101 93.1039C55.1264 91.4559 54.2731 88.9759 54.6595 86.3199C55.1908 82.6559 57.4609 79.9519 58.7972 78.6399C59.087 76.2879 59.9403 71.4719 62.2587 68.8319C65.366 65.2959 75.1387 59.6959 76.2335 59.0719C76.4267 58.9599 76.6199 58.8799 76.8453 58.8159C77.28 58.6879 87.6967 55.7119 95.4408 58.9119C100.641 61.0719 104.022 63.2479 105.568 64.3519L118.898 63.2959C120.412 63.1679 121.813 64.3199 121.941 65.8719C122.07 67.4239 120.911 68.7679 119.349 68.8959L104.94 70.0479C104.215 70.1119 103.475 69.8719 102.895 69.4079C102.863 69.3919 99.6107 66.7519 93.2512 64.1119C87.9704 61.9359 80.3229 63.7279 78.729 64.1279C74.8328 66.3519 68.3445 70.4479 66.5091 72.5279C65.3177 73.8879 64.5127 77.8399 64.3195 80.2239C64.2551 81.0079 63.8687 81.7279 63.2408 82.2079C63.2247 82.2239 60.6648 84.3039 60.2623 87.1039C60.1496 87.8879 60.3106 88.4959 60.7614 88.8799C61.4698 89.5039 63.1925 89.8879 65.9295 89.1519C70.035 88.0319 73.5448 81.9359 74.4625 79.8719C74.7684 79.1999 75.3158 78.6559 76.0081 78.3839C76.7326 78.0959 83.2692 75.6639 87.8255 78.6559C91.0294 80.7679 116.5 104.256 123.938 111.136L134.483 103.52C135.739 102.608 137.51 102.88 138.444 104.144C139.362 105.408 139.088 107.152 137.816 108.08L125.387 117.072C124.888 117.392 124.292 117.568 123.712 117.568Z" fill="white"/>
<path d="M66.9599 71.1841C66.8794 71.1841 66.7989 71.1841 66.7345 71.1681L38.2053 68.8801C36.6436 68.7521 35.4844 67.3921 35.6132 65.8561C35.742 64.3041 37.0783 63.1361 38.6561 63.2801L67.1853 65.5681C68.747 65.6961 69.9062 67.0561 69.7774 68.5921C69.6647 70.0641 68.425 71.1841 66.9599 71.1841Z" fill="white"/>
<path d="M120.541 127.616C117.546 127.616 114.616 126.192 112.829 124.912C112.764 124.864 112.716 124.816 112.652 124.768L87.2942 103.136C86.1028 102.128 85.974 100.352 86.9883 99.168C88.0026 97.984 89.7897 97.856 90.9811 98.864L116.226 120.4C116.757 120.752 120.46 123.088 122.296 121.28C124.179 119.424 121.925 116.96 121.668 116.688C120.589 115.568 120.637 113.776 121.764 112.72C122.891 111.648 124.694 111.696 125.757 112.816C128.317 115.488 130.571 121.024 126.272 125.264C124.566 126.992 122.537 127.616 120.541 127.616Z" fill="white"/>
<path d="M110.43 136.16C108.337 136.16 105.841 135.36 102.927 133.056C98.9506 129.888 77.3283 111.232 76.4106 110.432C75.2353 109.408 75.1065 107.632 76.1369 106.464C77.1673 105.296 78.9544 105.168 80.1297 106.192C80.3551 106.384 102.573 125.568 106.469 128.672C110.301 131.712 111.67 130.352 112.491 129.536C114.632 127.392 112.555 124.72 112.297 124.432C111.315 123.232 111.492 121.456 112.7 120.48C113.907 119.504 115.695 119.68 116.677 120.88C118.609 123.248 121.072 128.928 116.483 133.504C115.276 134.72 113.231 136.16 110.43 136.16Z" fill="white"/>
<path d="M97.6626 141.12C94.6358 141.12 91.8666 139.568 90.3371 138.24L78.2621 128.272C77.0546 127.28 76.8936 125.504 77.8918 124.32C78.89 123.12 80.6771 122.96 81.8685 123.952L93.9918 133.968C94.6036 134.496 97.5982 136.784 99.8522 134.416C101.494 132.688 99.1921 129.968 99.0955 129.84C98.0812 128.656 98.21 126.896 99.4014 125.888C100.577 124.88 102.348 124.992 103.378 126.16C105.391 128.448 108.112 133.936 103.99 138.288C101.994 140.368 99.7717 141.12 97.6626 141.12Z" fill="white"/>
<path d="M83.6878 142.544C80.1136 142.544 75.5573 141.248 70.0511 137.136C68.7953 136.208 68.5538 134.448 69.4876 133.2C70.4214 131.952 72.1924 131.712 73.4482 132.64C83.881 140.416 88.5178 135.296 88.6949 135.072C89.6931 133.904 91.4802 133.744 92.6716 134.72C93.863 135.696 94.0562 137.424 93.0902 138.608C93.0419 138.688 89.8219 142.544 83.6878 142.544Z" fill="white"/>
<path d="M58.5396 136.224C56.7042 136.224 54.9332 135.664 53.4037 134.624C49.3465 131.808 48.3483 126.24 51.1819 122.208L55.2713 116.368C56.9457 113.984 59.6988 112.544 62.6451 112.544C64.4805 112.544 66.2676 113.104 67.781 114.144C69.7452 115.504 71.0654 117.552 71.484 119.888C71.9026 122.24 71.3874 124.608 70.0028 126.56L65.9134 132.4C64.239 134.8 61.4859 136.224 58.5396 136.224ZM62.6451 118.176C61.5664 118.176 60.536 118.704 59.9242 119.584L55.8348 125.424C54.7883 126.912 55.1586 128.976 56.6559 130.016C58.1049 131.024 60.2623 130.624 61.2766 129.2L65.366 123.36C65.8651 122.64 66.0583 121.76 65.9134 120.896C65.7524 120.032 65.2694 119.28 64.5449 118.768C63.9814 118.384 63.3213 118.176 62.6451 118.176Z" fill="white"/>
<path d="M48.1229 130.288C46.3358 130.288 44.6131 129.744 43.148 128.736C39.2035 126 38.2375 120.592 40.9745 116.672L44.0496 112.272C45.6757 109.952 48.3483 108.56 51.2141 108.56C53.0012 108.56 54.7239 109.104 56.189 110.112C58.1049 111.44 59.3768 113.424 59.7954 115.696C60.1979 117.968 59.6988 120.272 58.3625 122.176L55.2874 126.576C53.6452 128.912 50.9726 130.288 48.1229 130.288ZM51.2141 114.192C50.2159 114.192 49.266 114.672 48.7025 115.488L45.6274 119.888C44.6614 121.264 44.9995 123.168 46.3841 124.128C47.7204 125.056 49.7168 124.704 50.6506 123.376L53.7257 118.976C54.1926 118.304 54.3697 117.504 54.2248 116.704C54.0799 115.904 53.6291 115.2 52.9529 114.736C52.4377 114.384 51.842 114.192 51.2141 114.192Z" fill="white"/>
<path d="M38.9137 123.696C37.3037 123.696 35.742 123.216 34.4057 122.288C32.683 121.088 31.5238 119.296 31.1535 117.232C30.7832 115.168 31.2501 113.088 32.4415 111.376L34.454 108.496C35.9191 106.4 38.3502 105.136 40.9262 105.136C42.5362 105.136 44.0979 105.616 45.4342 106.544C48.9923 109.008 49.8778 113.904 47.3823 117.44L45.3698 120.32C43.9047 122.432 41.4897 123.696 38.9137 123.696ZM40.9423 110.768C40.2178 110.768 39.5255 111.12 39.123 111.712L37.1105 114.592C36.7724 115.072 36.6436 115.664 36.7402 116.24C36.8368 116.816 37.1749 117.328 37.6579 117.664C38.64 118.336 40.0729 118.08 40.7491 117.12L42.7616 114.24C43.47 113.248 43.2124 111.856 42.2142 111.168C41.8278 110.912 41.3931 110.768 40.9423 110.768Z" fill="white"/>
<path d="M68.0225 141.136C66.4125 141.136 64.8669 140.656 63.5467 139.744C60.0047 137.296 59.1353 132.432 61.5986 128.912L65.044 124C66.5091 121.92 68.908 120.672 71.4679 120.672C73.0779 120.672 74.6235 121.152 75.9437 122.064C77.6664 123.248 78.8095 125.04 79.1798 127.088C79.5501 129.136 79.0832 131.2 77.8918 132.912L74.4625 137.808C72.9813 139.888 70.5824 141.136 68.0225 141.136ZM71.4679 126.304C70.7595 126.304 70.0833 126.656 69.6808 127.232L66.2515 132.128C65.5592 133.104 65.8007 134.448 66.7828 135.136C67.7327 135.792 69.1495 135.536 69.8096 134.592L73.2389 129.696C73.577 129.216 73.6897 128.656 73.5931 128.08C73.4965 127.52 73.1745 127.024 72.6915 126.688C72.3373 126.432 71.9026 126.304 71.4679 126.304Z" fill="white"/>
<path d="M33.3914 115.888C32.9084 115.888 32.4254 115.76 31.9746 115.504L21.9765 109.76C20.6241 108.976 20.1572 107.264 20.9461 105.92C21.735 104.576 23.4577 104.112 24.8101 104.896L34.8082 110.64C36.1606 111.424 36.6275 113.136 35.8386 114.48C35.3234 115.376 34.3735 115.888 33.3914 115.888Z" fill="white"/>
</svg>
