<svg width="573" height="419" viewBox="0 0 573 419" fill="none" xmlns="http://www.w3.org/2000/svg">
<path d="M95.2185 258.411C103.502 258.41 110.217 251.695 110.217 243.411V106.396C110.217 98.1117 103.502 91.3959 95.2175 91.3959H47.3363C21.1943 91.3959 0 112.589 0 138.732V211.057C0 237.199 21.1943 258.411 47.3363 258.411H94.5L95.2185 258.411Z" fill="white"/>
<path d="M355.169 15.1713L244.042 74.6077C223.425 85.6245 200.413 91.3948 177.051 91.3948H154.175C145.891 91.3948 139.175 98.1106 139.175 106.395V243.409C139.175 251.693 145.891 258.409 154.175 258.409H177.051C200.413 258.409 223.426 264.162 244.042 275.196L355.169 334.632L362.385 338.251C372.359 343.253 384.109 336.001 384.109 324.843V24.9611C384.109 13.8026 372.36 6.55058 362.385 11.5527L355.169 15.1713ZM355.485 277.301C355.485 288.633 343.402 295.873 333.41 290.528L257.542 249.946C232.869 236.743 205.03 229.767 177.051 229.767V229.767C171.942 229.767 167.801 225.625 167.801 220.516V129.271C167.801 124.162 171.942 120.02 177.051 120.02V120.02C205.03 120.02 232.869 113.043 257.542 99.841L333.412 59.2716C343.404 53.9286 355.485 61.1683 355.485 72.4993V277.301Z" fill="white"/>
<path d="M417.51 196.62V153.184C417.51 146.728 412.276 141.494 405.82 141.494C399.364 141.494 394.13 146.728 394.13 153.184V196.62C394.13 203.077 399.364 208.31 405.82 208.31C412.276 208.31 417.51 203.077 417.51 196.62Z" fill="white"/>
<path d="M26.5 346.5L15.7198 395.558C15.4875 396.615 15.3499 397.698 15.4318 398.777C16.2634 409.731 25.4131 418.343 36.5813 418.343H71.9395C83.6378 418.343 83.5 418.343 93.1338 397.148L100.058 378.595L123.282 304.788C126.323 295.123 119.106 285.286 108.974 285.286H55.9285C49.2947 285.286 43.4487 289.643 41.5536 296.001L26.5 346.5Z" fill="white"/>
<path d="M564.056 166.046H482.446C477.506 166.046 473.502 170.05 473.502 174.99C473.502 179.93 477.506 183.934 482.446 183.934H564.056C568.996 183.934 573 179.93 573 174.99C573 170.05 568.996 166.046 564.056 166.046Z" fill="white"/>
<path d="M474.66 113.827L537.683 76.561C541.937 74.0453 543.347 68.5569 540.831 64.3024C538.315 60.0479 532.827 58.6383 528.572 61.1541L465.55 98.4201C461.295 100.936 459.885 106.424 462.401 110.679C464.917 114.933 470.405 116.343 474.66 113.827Z" fill="white"/>
<path d="M462.424 234.952C459.908 239.206 461.317 244.694 465.571 247.209L528.603 284.48C532.852 286.993 538.334 285.587 540.849 281.339V281.339C543.366 277.088 541.959 271.602 537.707 269.087L474.682 231.805C470.428 229.289 464.94 230.697 462.424 234.952V234.952Z" fill="white"/>
</svg>
