{"asset":{"version":"2.0","generator":"VECTARY"},"nodes":[{"translation":[0,0,0],"scale":[0.01,0.01,0.01],"rotation":[0,0,0,1],"name":"qhacks_crown","children":[1]},{"translation":[0,0,0],"scale":[1,1,1],"rotation":[0,0,0,1],"name":"Crown","children":[2,3,4,5,6,7,8,9,10,11,12,13,14,15,16,17,18,19,20]},{"translation":[-0.36076489931744504,-116.64761447906494,-25],"scale":[1,1,1],"rotation":[0,0,0,1],"name":"Rectangle 21","mesh":0},{"translation":[-90.36605048936937,-156.3836446783681,-25],"scale":[1,1,1],"rotation":[0,0,0,1],"name":"Rectangle 20","mesh":1},{"translation":[-170.52679466443922,-8.267385721716579,-25],"scale":[1,1,1],"rotation":[0,0,0,1],"name":"Rectangle 19","mesh":2},{"translation":[-147.52679466443922,21.616355321631886,-25],"scale":[1,1,1],"rotation":[0,0,0,1],"name":"Rectangle 18","mesh":3},{"translation":[-143.52679466443922,91.61635532163189,-25],"scale":[1,1,1],"rotation":[0,0,0,1],"name":"Rectangle 17","mesh":4},{"translation":[-195.52679466443922,117.61635532163189,-25],"scale":[1,1,1],"rotation":[0,0,0,1],"name":"Rectangle 16","mesh":5},{"translation":[-110.52679466443922,-31.383644678368114,-25],"scale":[1,1,1],"rotation":[0,0,0,1],"name":"Rectangle 14","mesh":6},{"translation":[-66.52679466443922,-8.383644678368114,-25],"scale":[1,1,1],"rotation":[0,0,0,1],"name":"Rectangle 13","mesh":7},{"translation":[-29.526794664439223,29.616355321631886,-25],"scale":[1,1,1],"rotation":[0,0,0,1],"name":"Rectangle 12","mesh":8},{"translation":[-56.52679466443922,108.61635532163189,-25],"scale":[1,1,1],"rotation":[0,0,0,1],"name":"Rectangle 11","mesh":9},{"translation":[-10.526794664439223,143.6163553216319,-25],"scale":[1,1,1],"rotation":[0,0,0,1],"name":"Rectangle 10","mesh":10},{"translation":[30.473205335560777,110.61635532163189,-25],"scale":[1,1,1],"rotation":[0,0,0,1],"name":"Rectangle 9","mesh":11},{"translation":[25.473205335560777,-3.383644678368114,-25],"scale":[1,1,1],"rotation":[0,0,0,1],"name":"Rectangle 8","mesh":12},{"translation":[-4.5267946644392225,39.616355321631886,-25],"scale":[1,1,1],"rotation":[0,0,0,1],"name":"Rectangle 6","mesh":13},{"translation":[113.63394951063063,51.616355321631886,-25],"scale":[1,1,1],"rotation":[0,0,0,1],"name":"Rectangle 5","mesh":14},{"translation":[164.63394951063063,71.61635532163189,-25],"scale":[1,1,1],"rotation":[0,0,0,1],"name":"Rectangle 4","mesh":15},{"translation":[126.63394951063063,-33.383644678368114,-25],"scale":[1,1,1],"rotation":[0,0,0,1],"name":"Rectangle 3","mesh":16},{"translation":[126.63394951063063,-33.383644678368114,-25],"scale":[1,1,1],"rotation":[0,0,0,1],"name":"Rectangle 2","mesh":17},{"translation":[76.47320533556078,-25.383644678368114,-25],"scale":[1,1,1],"rotation":[0,0,0,1],"name":"Rectangle","mesh":18}],"materials":[{"pbrMetallicRoughness":{"baseColorFactor":[0.8591735696585323,0.04777575355617064,0.03287591694838383,1],"metallicFactor":0,"roughnessFactor":0.2},"name":"Bengal","emissiveFactor":[0,0,0],"extensions":{},"alphaMode":"OPAQUE","doubleSided":false},{"pbrMetallicRoughness":{"baseColorFactor":[0.8591735696585323,0.04777575355617064,0.03287591694838383,1],"metallicFactor":0,"roughnessFactor":0.2},"name":"Lorenzo","emissiveFactor":[0,0,0],"extensions":{},"alphaMode":"OPAQUE","doubleSided":false},{"pbrMetallicRoughness":{"baseColorFactor":[0.8591735696585323,0.04777575355617064,0.03287591694838383,1],"metallicFactor":0,"roughnessFactor":0.2},"name":"Bubble","emissiveFactor":[0,0,0],"extensions":{},"alphaMode":"OPAQUE","doubleSided":false},{"pbrMetallicRoughness":{"baseColorFactor":[0.8591735696585323,0.04777575355617064,0.03287591694838383,1],"metallicFactor":0,"roughnessFactor":0.2},"name":"Irish Beauty","emissiveFactor":[0,0,0],"extensions":{},"alphaMode":"OPAQUE","doubleSided":false},{"pbrMetallicRoughness":{"baseColorFactor":[0.9573695761995268,0.4368127538003594,0.04777575355617064,1],"metallicFactor":0,"roughnessFactor":0.2},"name":"Caribbean Kiss","emissiveFactor":[0,0,0],"extensions":{},"alphaMode":"OPAQUE","doubleSided":false},{"pbrMetallicRoughness":{"baseColorFactor":[0.015175238159625197,0.011881334434813665,0.11926401300504741,1],"metallicFactor":0,"roughnessFactor":0.2},"name":"Little Valley","emissiveFactor":[0,0,0],"extensions":{},"alphaMode":"OPAQUE","doubleSided":false},{"pbrMetallicRoughness":{"baseColorFactor":[0.015175238159625197,0.011881334434813665,0.11926401300504741,1],"metallicFactor":0,"roughnessFactor":0.2},"name":"Noah","emissiveFactor":[0,0,0],"extensions":{},"alphaMode":"OPAQUE","doubleSided":false},{"pbrMetallicRoughness":{"baseColorFactor":[0.9573695761995268,0.4368127538003594,0.04777575355617064,1],"metallicFactor":0,"roughnessFactor":0.2},"name":"Florida","emissiveFactor":[0,0,0],"extensions":{},"alphaMode":"OPAQUE","doubleSided":false},{"pbrMetallicRoughness":{"baseColorFactor":[0.8591735696585323,0.04777575355617064,0.03287591694838383,1],"metallicFactor":0,"roughnessFactor":0.2},"name":"Cold Wave","emissiveFactor":[0,0,0],"extensions":{},"alphaMode":"OPAQUE","doubleSided":false},{"pbrMetallicRoughness":{"baseColorFactor":[0.015175238159625197,0.011881334434813665,0.11926401300504741,1],"metallicFactor":0,"roughnessFactor":0.2},"name":"Manchester","emissiveFactor":[0,0,0],"extensions":{},"alphaMode":"OPAQUE","doubleSided":false},{"pbrMetallicRoughness":{"baseColorFactor":[0.9573695761995268,0.4368127538003594,0.04777575355617064,1],"metallicFactor":0,"roughnessFactor":0.2},"name":"Lima","emissiveFactor":[0,0,0],"extensions":{},"alphaMode":"OPAQUE","doubleSided":false},{"pbrMetallicRoughness":{"baseColorFactor":[0.8591735696585323,0.04777575355617064,0.03287591694838383,1],"metallicFactor":0,"roughnessFactor":0.2},"name":"Hidden Place","emissiveFactor":[0,0,0],"extensions":{},"alphaMode":"OPAQUE","doubleSided":false},{"pbrMetallicRoughness":{"baseColorFactor":[0.8591735696585323,0.04777575355617064,0.03287591694838383,1],"metallicFactor":0,"roughnessFactor":0.2},"name":"Force of Nature","emissiveFactor":[0,0,0],"extensions":{},"alphaMode":"OPAQUE","doubleSided":false},{"pbrMetallicRoughness":{"baseColorFactor":[0.015175238159625197,0.011881334434813665,0.11926401300504741,1],"metallicFactor":0,"roughnessFactor":0.2},"name":"Coastal Calm","emissiveFactor":[0,0,0],"extensions":{},"alphaMode":"OPAQUE","doubleSided":false},{"pbrMetallicRoughness":{"baseColorFactor":[0.9573695761995268,0.4368127538003594,0.04777575355617064,1],"metallicFactor":0,"roughnessFactor":0.2},"name":"Orient","emissiveFactor":[0,0,0],"extensions":{},"alphaMode":"OPAQUE","doubleSided":false},{"pbrMetallicRoughness":{"baseColorFactor":[0.8591735696585323,0.04777575355617064,0.03287591694838383,1],"metallicFactor":0,"roughnessFactor":0.2},"name":"Evening Glory","emissiveFactor":[0,0,0],"extensions":{},"alphaMode":"OPAQUE","doubleSided":false},{"pbrMetallicRoughness":{"baseColorFactor":[0.015175238159625197,0.011881334434813665,0.11926401300504741,1],"metallicFactor":0,"roughnessFactor":0.2},"name":"Meadow","emissiveFactor":[0,0,0],"extensions":{},"alphaMode":"OPAQUE","doubleSided":false},{"pbrMetallicRoughness":{"baseColorFactor":[0.015175238159625197,0.011881334434813665,0.11926401300504741,1],"metallicFactor":0,"roughnessFactor":0.2},"name":"Havana","emissiveFactor":[0,0,0],"extensions":{},"alphaMode":"OPAQUE","doubleSided":false},{"pbrMetallicRoughness":{"baseColorFactor":[0.9573695761995268,0.4368127538003594,0.04777575355617064,1],"metallicFactor":0,"roughnessFactor":0.2},"name":"Charlotte","emissiveFactor":[0,0,0],"extensions":{},"alphaMode":"OPAQUE","doubleSided":false}],"meshes":[{"primitives":[{"mode":4,"attributes":{"POSITION":1,"NORMAL":2,"TEXCOORD_0":3},"material":0,"indices":0}]},{"primitives":[{"mode":4,"attributes":{"POSITION":5,"NORMAL":6,"TEXCOORD_0":7},"material":1,"indices":4}]},{"primitives":[{"mode":4,"attributes":{"POSITION":9,"NORMAL":10,"TEXCOORD_0":11},"material":2,"indices":8}]},{"primitives":[{"mode":4,"attributes":{"POSITION":13,"NORMAL":14,"TEXCOORD_0":15},"material":3,"indices":12}]},{"primitives":[{"mode":4,"attributes":{"POSITION":17,"NORMAL":18,"TEXCOORD_0":19},"material":4,"indices":16}]},{"primitives":[{"mode":4,"attributes":{"POSITION":21,"NORMAL":22,"TEXCOORD_0":23},"material":5,"indices":20}]},{"primitives":[{"mode":4,"attributes":{"POSITION":25,"NORMAL":26,"TEXCOORD_0":27},"material":6,"indices":24}]},{"primitives":[{"mode":4,"attributes":{"POSITION":29,"NORMAL":30,"TEXCOORD_0":31},"material":7,"indices":28}]},{"primitives":[{"mode":4,"attributes":{"POSITION":33,"NORMAL":34,"TEXCOORD_0":35},"material":8,"indices":32}]},{"primitives":[{"mode":4,"attributes":{"POSITION":37,"NORMAL":38,"TEXCOORD_0":39},"material":9,"indices":36}]},{"primitives":[{"mode":4,"attributes":{"POSITION":41,"NORMAL":42,"TEXCOORD_0":43},"material":10,"indices":40}]},{"primitives":[{"mode":4,"attributes":{"POSITION":45,"NORMAL":46,"TEXCOORD_0":47},"material":11,"indices":44}]},{"primitives":[{"mode":4,"attributes":{"POSITION":49,"NORMAL":50,"TEXCOORD_0":51},"material":12,"indices":48}]},{"primitives":[{"mode":4,"attributes":{"POSITION":53,"NORMAL":54,"TEXCOORD_0":55},"material":13,"indices":52}]},{"primitives":[{"mode":4,"attributes":{"POSITION":57,"NORMAL":58,"TEXCOORD_0":59},"material":14,"indices":56}]},{"primitives":[{"mode":4,"attributes":{"POSITION":61,"NORMAL":62,"TEXCOORD_0":63},"material":15,"indices":60}]},{"primitives":[{"mode":4,"attributes":{"POSITION":65,"NORMAL":66,"TEXCOORD_0":67},"material":16,"indices":64}]},{"primitives":[{"mode":4,"attributes":{"POSITION":69,"NORMAL":70,"TEXCOORD_0":71},"material":17,"indices":68}]},{"primitives":[{"mode":4,"attributes":{"POSITION":73,"NORMAL":74,"TEXCOORD_0":75},"material":18,"indices":72}]}],"accessors":[{"bufferView":0,"byteOffset":0,"componentType":5125,"count":1956,"type":"SCALAR"},{"bufferView":1,"byteOffset":0,"componentType":5126,"count":656,"max":[149.4931640625,9.263969421386719,50],"min":[-149.4931640625,-9.263969421386719,0],"type":"VEC3"},{"bufferView":2,"byteOffset":0,"componentType":5126,"count":656,"type":"VEC3"},{"bufferView":3,"byteOffset":0,"componentType":5126,"count":656,"type":"VEC2"},{"bufferView":4,"byteOffset":0,"componentType":5125,"count":1947,"type":"SCALAR"},{"bufferView":5,"byteOffset":0,"componentType":5126,"count":655,"max":[230.5662384033203,62.825130462646484,50],"min":[-49.38020706176758,48.3028564453125,0],"type":"VEC3"},{"bufferView":6,"byteOffset":0,"componentType":5126,"count":655,"type":"VEC3"},{"bufferView":7,"byteOffset":0,"componentType":5126,"count":655,"type":"VEC2"},{"bufferView":8,"byteOffset":0,"componentType":5125,"count":1956,"type":"SCALAR"},{"bufferView":9,"byteOffset":0,"componentType":5126,"count":656,"max":[47.71802520751953,16.7891788482666,50],"min":[3.8772666454315186,-83.9232406616211,0],"type":"VEC3"},{"bufferView":10,"byteOffset":0,"componentType":5126,"count":656,"type":"VEC3"},{"bufferView":11,"byteOffset":0,"componentType":5126,"count":656,"type":"VEC2"},{"bufferView":12,"byteOffset":0,"componentType":5125,"count":1956,"type":"SCALAR"},{"bufferView":13,"byteOffset":0,"componentType":5126,"count":656,"max":[59.9753303527832,-10.804935455322266,50],"min":[-15.229846954345703,-80.1772689819336,0],"type":"VEC3"},{"bufferView":14,"byteOffset":0,"componentType":5126,"count":656,"type":"VEC3"},{"bufferView":15,"byteOffset":0,"componentType":5126,"count":656,"type":"VEC2"},{"bufferView":16,"byteOffset":0,"componentType":5125,"count":1956,"type":"SCALAR"},{"bufferView":17,"byteOffset":0,"componentType":5126,"count":656,"max":[37.173004150390625,-31.723920822143555,50],"min":[-19.075618743896484,-75.54624938964844,0],"type":"VEC3"},{"bufferView":18,"byteOffset":0,"componentType":5126,"count":656,"type":"VEC3"},{"bufferView":19,"byteOffset":0,"componentType":5126,"count":656,"type":"VEC2"},{"bufferView":20,"byteOffset":0,"componentType":5125,"count":1956,"type":"SCALAR"},{"bufferView":21,"byteOffset":0,"componentType":5126,"count":656,"max":[34.012245178222656,-33.58131790161133,50],"min":[-21.362529754638672,-121.1292953491211,0],"type":"VEC3"},{"bufferView":22,"byteOffset":0,"componentType":5126,"count":656,"type":"VEC3"},{"bufferView":23,"byteOffset":0,"componentType":5126,"count":656,"type":"VEC2"},{"bufferView":24,"byteOffset":0,"componentType":5125,"count":1953,"type":"SCALAR"},{"bufferView":25,"byteOffset":0,"componentType":5126,"count":656,"max":[93.89225006103516,-25.292747497558594,50],"min":[-27.77625274658203,-67.31782531738281,0],"type":"VEC3"},{"bufferView":26,"byteOffset":0,"componentType":5126,"count":656,"type":"VEC3"},{"bufferView":27,"byteOffset":0,"componentType":5126,"count":656,"type":"VEC2"},{"bufferView":28,"byteOffset":0,"componentType":5125,"count":1956,"type":"SCALAR"},{"bufferView":29,"byteOffset":0,"componentType":5126,"count":656,"max":[58.08761215209961,-32.261783599853516,50],"min":[-14.731531143188477,-76.08069610595703,0],"type":"VEC3"},{"bufferView":30,"byteOffset":0,"componentType":5126,"count":656,"type":"VEC3"},{"bufferView":31,"byteOffset":0,"componentType":5126,"count":656,"type":"VEC2"},{"bufferView":32,"byteOffset":0,"componentType":5125,"count":1956,"type":"SCALAR"},{"bufferView":33,"byteOffset":0,"componentType":5126,"count":656,"max":[25.655162811279297,10.96676254272461,50],"min":[-11.672898292541504,-107.77584075927734,0],"type":"VEC3"},{"bufferView":34,"byteOffset":0,"componentType":5126,"count":656,"type":"VEC3"},{"bufferView":35,"byteOffset":0,"componentType":5126,"count":656,"type":"VEC2"},{"bufferView":36,"byteOffset":0,"componentType":5125,"count":1956,"type":"SCALAR"},{"bufferView":37,"byteOffset":0,"componentType":5126,"count":656,"max":[42.39486312866211,-30.420501708984375,50],"min":[-8.349120140075684,-66.42721557617188,0],"type":"VEC3"},{"bufferView":38,"byteOffset":0,"componentType":5126,"count":656,"type":"VEC3"},{"bufferView":39,"byteOffset":0,"componentType":5126,"count":656,"type":"VEC2"},{"bufferView":40,"byteOffset":0,"componentType":5125,"count":1956,"type":"SCALAR"},{"bufferView":41,"byteOffset":0,"componentType":5126,"count":656,"max":[36.93798828125,-17.704771041870117,50],"min":[-16.926700592041016,-130.35386657714844,0],"type":"VEC3"},{"bufferView":42,"byteOffset":0,"componentType":5126,"count":656,"type":"VEC3"},{"bufferView":43,"byteOffset":0,"componentType":5126,"count":656,"type":"VEC2"},{"bufferView":44,"byteOffset":0,"componentType":5125,"count":1956,"type":"SCALAR"},{"bufferView":45,"byteOffset":0,"componentType":5126,"count":656,"max":[34.0501823425293,-32.034236907958984,50],"min":[-17.058258056640625,-69.11573028564453,0],"type":"VEC3"},{"bufferView":46,"byteOffset":0,"componentType":5126,"count":656,"type":"VEC3"},{"bufferView":47,"byteOffset":0,"componentType":5126,"count":656,"type":"VEC2"},{"bufferView":48,"byteOffset":0,"componentType":5125,"count":1956,"type":"SCALAR"},{"bufferView":49,"byteOffset":0,"componentType":5126,"count":656,"max":[54.83873748779297,-36.964324951171875,50],"min":[-18.329938888549805,-80.67346954345703,0],"type":"VEC3"},{"bufferView":50,"byteOffset":0,"componentType":5126,"count":656,"type":"VEC3"},{"bufferView":51,"byteOffset":0,"componentType":5126,"count":656,"type":"VEC2"},{"bufferView":52,"byteOffset":0,"componentType":5125,"count":1956,"type":"SCALAR"},{"bufferView":53,"byteOffset":0,"componentType":5126,"count":656,"max":[44.492462158203125,-0.796917200088501,50],"min":[7.204809665679932,-115.56182861328125,0],"type":"VEC3"},{"bufferView":54,"byteOffset":0,"componentType":5126,"count":656,"type":"VEC3"},{"bufferView":55,"byteOffset":0,"componentType":5126,"count":656,"type":"VEC2"},{"bufferView":56,"byteOffset":0,"componentType":5125,"count":1956,"type":"SCALAR"},{"bufferView":57,"byteOffset":0,"componentType":5126,"count":656,"max":[45.22279357910156,9.001697540283203,50],"min":[-10.122185707092285,-35.540626525878906,0],"type":"VEC3"},{"bufferView":58,"byteOffset":0,"componentType":5126,"count":656,"type":"VEC3"},{"bufferView":59,"byteOffset":0,"componentType":5126,"count":656,"type":"VEC2"},{"bufferView":60,"byteOffset":0,"componentType":5125,"count":1956,"type":"SCALAR"},{"bufferView":61,"byteOffset":0,"componentType":5126,"count":656,"max":[52.255374908447266,13.711479187011719,50],"min":[-4.971379280090332,-78.04096984863281,0],"type":"VEC3"},{"bufferView":62,"byteOffset":0,"componentType":5126,"count":656,"type":"VEC3"},{"bufferView":63,"byteOffset":0,"componentType":5126,"count":656,"type":"VEC2"},{"bufferView":64,"byteOffset":0,"componentType":5125,"count":1956,"type":"SCALAR"},{"bufferView":65,"byteOffset":0,"componentType":5126,"count":656,"max":[36.82698059082031,41.35610580444336,50],"min":[-5.176115989685059,-59.2112922668457,0],"type":"VEC3"},{"bufferView":66,"byteOffset":0,"componentType":5126,"count":656,"type":"VEC3"},{"bufferView":67,"byteOffset":0,"componentType":5126,"count":656,"type":"VEC2"},{"bufferView":68,"byteOffset":0,"componentType":5125,"count":1956,"type":"SCALAR"},{"bufferView":69,"byteOffset":0,"componentType":5126,"count":656,"max":[33.683937072753906,43.09357452392578,50],"min":[-37.186214447021484,-23.291963577270508,0],"type":"VEC3"},{"bufferView":70,"byteOffset":0,"componentType":5126,"count":656,"type":"VEC3"},{"bufferView":71,"byteOffset":0,"componentType":5126,"count":656,"type":"VEC2"},{"bufferView":72,"byteOffset":0,"componentType":5125,"count":1956,"type":"SCALAR"},{"bufferView":73,"byteOffset":0,"componentType":5126,"count":656,"max":[60.89081954956055,-29.64739418029785,50],"min":[-58.719154357910156,-74.5025634765625,0],"type":"VEC3"},{"bufferView":74,"byteOffset":0,"componentType":5126,"count":656,"type":"VEC3"},{"bufferView":75,"byteOffset":0,"componentType":5126,"count":656,"type":"VEC2"}],"bufferViews":[{"buffer":0,"byteOffset":0,"byteLength":7824,"target":34963},{"buffer":0,"byteOffset":7824,"byteLength":7872,"target":34962},{"buffer":0,"byteOffset":15696,"byteLength":7872,"target":34962},{"buffer":0,"byteOffset":23568,"byteLength":5248,"target":34962},{"buffer":0,"byteOffset":28816,"byteLength":7788,"target":34963},{"buffer":0,"byteOffset":36604,"byteLength":7860,"target":34962},{"buffer":0,"byteOffset":44464,"byteLength":7860,"target":34962},{"buffer":0,"byteOffset":52324,"byteLength":5240,"target":34962},{"buffer":0,"byteOffset":57564,"byteLength":7824,"target":34963},{"buffer":0,"byteOffset":65388,"byteLength":7872,"target":34962},{"buffer":0,"byteOffset":73260,"byteLength":7872,"target":34962},{"buffer":0,"byteOffset":81132,"byteLength":5248,"target":34962},{"buffer":0,"byteOffset":86380,"byteLength":7824,"target":34963},{"buffer":0,"byteOffset":94204,"byteLength":7872,"target":34962},{"buffer":0,"byteOffset":102076,"byteLength":7872,"target":34962},{"buffer":0,"byteOffset":109948,"byteLength":5248,"target":34962},{"buffer":0,"byteOffset":115196,"byteLength":7824,"target":34963},{"buffer":0,"byteOffset":123020,"byteLength":7872,"target":34962},{"buffer":0,"byteOffset":130892,"byteLength":7872,"target":34962},{"buffer":0,"byteOffset":138764,"byteLength":5248,"target":34962},{"buffer":0,"byteOffset":144012,"byteLength":7824,"target":34963},{"buffer":0,"byteOffset":151836,"byteLength":7872,"target":34962},{"buffer":0,"byteOffset":159708,"byteLength":7872,"target":34962},{"buffer":0,"byteOffset":167580,"byteLength":5248,"target":34962},{"buffer":0,"byteOffset":172828,"byteLength":7812,"target":34963},{"buffer":0,"byteOffset":180640,"byteLength":7872,"target":34962},{"buffer":0,"byteOffset":188512,"byteLength":7872,"target":34962},{"buffer":0,"byteOffset":196384,"byteLength":5248,"target":34962},{"buffer":0,"byteOffset":201632,"byteLength":7824,"target":34963},{"buffer":0,"byteOffset":209456,"byteLength":7872,"target":34962},{"buffer":0,"byteOffset":217328,"byteLength":7872,"target":34962},{"buffer":0,"byteOffset":225200,"byteLength":5248,"target":34962},{"buffer":0,"byteOffset":230448,"byteLength":7824,"target":34963},{"buffer":0,"byteOffset":238272,"byteLength":7872,"target":34962},{"buffer":0,"byteOffset":246144,"byteLength":7872,"target":34962},{"buffer":0,"byteOffset":254016,"byteLength":5248,"target":34962},{"buffer":0,"byteOffset":259264,"byteLength":7824,"target":34963},{"buffer":0,"byteOffset":267088,"byteLength":7872,"target":34962},{"buffer":0,"byteOffset":274960,"byteLength":7872,"target":34962},{"buffer":0,"byteOffset":282832,"byteLength":5248,"target":34962},{"buffer":0,"byteOffset":288080,"byteLength":7824,"target":34963},{"buffer":0,"byteOffset":295904,"byteLength":7872,"target":34962},{"buffer":0,"byteOffset":303776,"byteLength":7872,"target":34962},{"buffer":0,"byteOffset":311648,"byteLength":5248,"target":34962},{"buffer":0,"byteOffset":316896,"byteLength":7824,"target":34963},{"buffer":0,"byteOffset":324720,"byteLength":7872,"target":34962},{"buffer":0,"byteOffset":332592,"byteLength":7872,"target":34962},{"buffer":0,"byteOffset":340464,"byteLength":5248,"target":34962},{"buffer":0,"byteOffset":345712,"byteLength":7824,"target":34963},{"buffer":0,"byteOffset":353536,"byteLength":7872,"target":34962},{"buffer":0,"byteOffset":361408,"byteLength":7872,"target":34962},{"buffer":0,"byteOffset":369280,"byteLength":5248,"target":34962},{"buffer":0,"byteOffset":374528,"byteLength":7824,"target":34963},{"buffer":0,"byteOffset":382352,"byteLength":7872,"target":34962},{"buffer":0,"byteOffset":390224,"byteLength":7872,"target":34962},{"buffer":0,"byteOffset":398096,"byteLength":5248,"target":34962},{"buffer":0,"byteOffset":403344,"byteLength":7824,"target":34963},{"buffer":0,"byteOffset":411168,"byteLength":7872,"target":34962},{"buffer":0,"byteOffset":419040,"byteLength":7872,"target":34962},{"buffer":0,"byteOffset":426912,"byteLength":5248,"target":34962},{"buffer":0,"byteOffset":432160,"byteLength":7824,"target":34963},{"buffer":0,"byteOffset":439984,"byteLength":7872,"target":34962},{"buffer":0,"byteOffset":447856,"byteLength":7872,"target":34962},{"buffer":0,"byteOffset":455728,"byteLength":5248,"target":34962},{"buffer":0,"byteOffset":460976,"byteLength":7824,"target":34963},{"buffer":0,"byteOffset":468800,"byteLength":7872,"target":34962},{"buffer":0,"byteOffset":476672,"byteLength":7872,"target":34962},{"buffer":0,"byteOffset":484544,"byteLength":5248,"target":34962},{"buffer":0,"byteOffset":489792,"byteLength":7824,"target":34963},{"buffer":0,"byteOffset":497616,"byteLength":7872,"target":34962},{"buffer":0,"byteOffset":505488,"byteLength":7872,"target":34962},{"buffer":0,"byteOffset":513360,"byteLength":5248,"target":34962},{"buffer":0,"byteOffset":518608,"byteLength":7824,"target":34963},{"buffer":0,"byteOffset":526432,"byteLength":7872,"target":34962},{"buffer":0,"byteOffset":534304,"byteLength":7872,"target":34962},{"buffer":0,"byteOffset":542176,"byteLength":5248,"target":34962}],"scene":0,"scenes":[{"nodes":[0],"name":"QHacks Crown"}],"extensionsUsed":["KHR_texture_transform"],"buffers":[{"byteLength":547424,"uri":"QHacksCrown.bin"}]}