<svg width="531" height="531" viewBox="0 0 531 531" fill="none" xmlns="http://www.w3.org/2000/svg">
<path d="M0 0.899902C38.2 12.4999 76.5 23.9999 112.4 38.6999C148.3 53.2999 181.9 71.0999 211.3 92.1999C240.7 113.4 266 137.8 300.5 154.2C335.1 170.5 379 178.6 413.6 201.2C448.2 223.7 473.5 260.7 477.6 301C481.7 341.3 464.7 384.9 469.9 423.7C475.1 462.6 502.6 496.8 530.1 531H0V0.899902Z" fill="#381718"/>
<path d="M0 133.4C28.7 142.1 57.3 150.8 84.3 161.7C111.2 172.7 136.4 186.1 158.5 201.9C180.5 217.8 199.5 236.1 225.4 248.4C251.3 260.6 284.2 266.7 310.2 283.6C336.1 300.6 355.1 328.3 358.2 358.5C361.3 388.7 348.5 421.4 352.4 450.6C356.4 479.7 377 505.4 397.6 531H0V133.4Z" fill="#86181F"/>
<path d="M0 266C19.1 271.7 38.2 277.5 56.2 284.8C74.1 292.2 90.9 301 105.7 311.6C120.4 322.2 133 334.4 150.3 342.6C167.5 350.7 189.5 354.8 206.8 366.1C224.1 377.4 236.7 395.9 238.8 416C240.9 436.1 232.3 457.9 235 477.4C237.6 496.8 251.3 513.9 265 531H0V266Z" fill="#D70716"/>
<path d="M0 398.5C9.6 401.4 19.1 404.3 28.1 407.9C37.1 411.6 45.5 416 52.8 421.3C60.2 426.6 66.5 432.7 75.1 436.8C83.8 440.9 94.7 442.9 103.4 448.5C112 454.2 118.4 463.4 119.4 473.5C120.4 483.6 116.2 494.5 117.5 504.2C118.8 513.9 125.7 522.5 132.5 531H0V398.5Z" fill="#FF0000"/>
</svg>
