<svg width="531" height="531" viewBox="0 0 531 531" fill="none" xmlns="http://www.w3.org/2000/svg">
<path d="M531 530.1C490.1 531 449.2 531.9 413 516.8C376.9 501.7 345.4 470.5 317.5 443.3C289.6 416.1 265.2 392.8 231.7 375.3C198.2 357.8 155.5 346 131.5 318.6C107.4 291.2 102 248.2 92.2004 211.3C82.4004 174.4 68.3004 143.5 52.3004 109.3C36.4004 75 18.6004 37.5 0.900391 0H531V530.1Z" fill="#381718"/>
<path d="M531 397.6C500.3 398.3 469.7 398.9 442.5 387.6C415.4 376.3 391.8 352.9 370.9 332.5C350 312 331.7 294.6 306.5 281.5C281.4 268.3 249.4 259.5 231.4 239C213.3 218.4 209.3 186.2 201.9 158.5C194.6 130.8 183.9 107.6 172 81.9C160 56.3 146.7 28.1 133.4 0H531V397.6Z" fill="#86181F"/>
<path d="M531 265C510.6 265.5 490.1 266 472 258.4C453.9 250.8 438.2 235.2 424.3 221.6C410.3 208 398.1 196.4 381.4 187.6C364.6 178.9 343.3 173 331.2 159.3C319.2 145.6 316.5 124.1 311.6 105.7C306.7 87.2 299.6 71.7 291.7 54.6C283.7 37.5 274.8 18.8 266 0H531V265Z" fill="#D70716"/>
<path d="M531 132.5C520.8 132.8 510.6 133 501.5 129.2C492.5 125.4 484.6 117.6 477.6 110.8C470.7 104 464.6 98.2 456.2 93.8C447.8 89.4 437.1 86.5 431.1 79.7C425.1 72.8 423.8 62.1 421.3 52.8C418.9 43.6 415.3 35.9 411.3 27.3C407.3 18.8 402.9 9.4 398.5 0H531V132.5Z" fill="#FF0000"/>
</svg>
