<svg id="visual" viewBox="0 0 900 600" width="900" height="600" xmlns="http://www.w3.org/2000/svg" xmlns:xlink="http://www.w3.org/1999/xlink" version="1.1"><path d="M0 124L21.5 127.2C43 130.3 86 136.7 128.8 139.3C171.7 142 214.3 141 257.2 135.5C300 130 343 120 385.8 121.7C428.7 123.3 471.3 136.7 514.2 141.2C557 145.7 600 141.3 642.8 129.5C685.7 117.7 728.3 98.3 771.2 97.8C814 97.3 857 115.7 878.5 124.8L900 134L900 0L878.5 0C857 0 814 0 771.2 0C728.3 0 685.7 0 642.8 0C600 0 557 0 514.2 0C471.3 0 428.7 0 385.8 0C343 0 300 0 257.2 0C214.3 0 171.7 0 128.8 0C86 0 43 0 21.5 0L0 0Z" fill="#faaf40"></path><path d="M0 82L21.5 84.7C43 87.3 86 92.7 128.8 92.7C171.7 92.7 214.3 87.3 257.2 91.5C300 95.7 343 109.3 385.8 107.5C428.7 105.7 471.3 88.3 514.2 83C557 77.7 600 84.3 642.8 88.3C685.7 92.3 728.3 93.7 771.2 93.2C814 92.7 857 90.3 878.5 89.2L900 88L900 0L878.5 0C857 0 814 0 771.2 0C728.3 0 685.7 0 642.8 0C600 0 557 0 514.2 0C471.3 0 428.7 0 385.8 0C343 0 300 0 257.2 0C214.3 0 171.7 0 128.8 0C86 0 43 0 21.5 0L0 0Z" fill="#fa9735"></path><path d="M0 50L21.5 50.8C43 51.7 86 53.3 128.8 52.8C171.7 52.3 214.3 49.7 257.2 49.3C300 49 343 51 385.8 60C428.7 69 471.3 85 514.2 93C557 101 600 101 642.8 94.7C685.7 88.3 728.3 75.7 771.2 68C814 60.3 857 57.7 878.5 56.3L900 55L900 0L878.5 0C857 0 814 0 771.2 0C728.3 0 685.7 0 642.8 0C600 0 557 0 514.2 0C471.3 0 428.7 0 385.8 0C343 0 300 0 257.2 0C214.3 0 171.7 0 128.8 0C86 0 43 0 21.5 0L0 0Z" fill="#f87d31"></path><path d="M0 57L21.5 59.2C43 61.3 86 65.7 128.8 67.5C171.7 69.3 214.3 68.7 257.2 65.2C300 61.7 343 55.3 385.8 48.3C428.7 41.3 471.3 33.7 514.2 38.2C557 42.7 600 59.3 642.8 65.7C685.7 72 728.3 68 771.2 67.3C814 66.7 857 69.3 878.5 70.7L900 72L900 0L878.5 0C857 0 814 0 771.2 0C728.3 0 685.7 0 642.8 0C600 0 557 0 514.2 0C471.3 0 428.7 0 385.8 0C343 0 300 0 257.2 0C214.3 0 171.7 0 128.8 0C86 0 43 0 21.5 0L0 0Z" fill="#f46132"></path><path d="M0 39L21.5 35.7C43 32.3 86 25.7 128.8 25.3C171.7 25 214.3 31 257.2 36C300 41 343 45 385.8 45.2C428.7 45.3 471.3 41.7 514.2 40.3C557 39 600 40 642.8 39.3C685.7 38.7 728.3 36.3 771.2 31C814 25.7 857 17.3 878.5 13.2L900 9L900 0L878.5 0C857 0 814 0 771.2 0C728.3 0 685.7 0 642.8 0C600 0 557 0 514.2 0C471.3 0 428.7 0 385.8 0C343 0 300 0 257.2 0C214.3 0 171.7 0 128.8 0C86 0 43 0 21.5 0L0 0Z" fill="#ee4036"></path></svg>