<svg width="1080" height="200" viewBox="0 0 1080 200" fill="none" xmlns="http://www.w3.org/2000/svg">
<g clip-path="url(#clip0_632_9)">
<path d="M0 201L41.5 180.5C80 159 144 159 216 149.2C288 139.3 360 116.7 432 120.2C504 123.7 576 153.3 648 151.5C720 149.7 792 116.3 864 109.3C936 102.3 1026.5 128 1044 151.5L1080 201H1044C1008 201 936 201 864 201C792 201 720 201 648 201C576 201 504 201 432 201C360 201 288 201 216 201C144 201 72 201 36 201H0Z" fill="#F87D31"/>
</g>
<defs>
<clipPath id="clip0_632_9">
<rect width="1080" height="200" fill="white"/>
</clipPath>
</defs>
</svg>
