<svg width="1080" height="200" viewBox="0 0 1080 200" fill="none" xmlns="http://www.w3.org/2000/svg">
<g clip-path="url(#clip0_632_13)">
<path d="M0 201L30 185.2C51.5 168 120 182.7 180 182.3C240 182 300 183 360 185C420 187 480 190 540 186.8C600 183.7 660 174.3 720 168.8C780 163.3 840 161.7 900 166.7C960 171.7 1021 184 1050 191.5L1080 201H1050C1020 201 960 201 900 201C840 201 780 201 720 201C660 201 600 201 540 201C480 201 420 201 360 201C300 201 240 201 180 201C120 201 60 201 30 201H0Z" fill="#FAAF40"/>
</g>
<defs>
<clipPath id="clip0_632_13">
<rect width="1080" height="200" fill="white"/>
</clipPath>
</defs>
</svg>
