<svg width="1080" height="200" viewBox="0 0 1080 200" fill="none" xmlns="http://www.w3.org/2000/svg">
<g clip-path="url(#clip0_632_7)">
<path d="M0 201L36 169C78.5 131.3 144 103 216 99.5C288 96 360 133 432 131.3C504 129.7 576 89.3 648 92.3C720 95.3 792 141.7 864 163.3C936 185 1009.5 186.5 1044 195L1080 201H1044C1008 201 936 201 864 201C792 201 720 201 648 201C576 201 504 201 432 201C360 201 288 201 216 201C144 201 72 201 36 201H0Z" fill="#F46132"/>
</g>
<defs>
<clipPath id="clip0_632_7">
<rect width="1080" height="200" fill="white"/>
</clipPath>
</defs>
</svg>
