<svg width="1080" height="200" viewBox="0 0 1080 200" fill="none" xmlns="http://www.w3.org/2000/svg">
<g clip-path="url(#clip0_632_11)">
<path d="M0 201L36 192C75 177.8 144 166.7 216 172.8C288 179 360 186 432 182C504 178 576 163 648 152.2C720 141.3 792 134.7 864 136C936 137.3 995 152.2 1044 179.5L1080 201H1044C1008 201 936 201 864 201C792 201 720 201 648 201C576 201 504 201 432 201C360 201 288 201 216 201C144 201 72 201 36 201H0Z" fill="#FA9735"/>
</g>
<defs>
<clipPath id="clip0_632_11">
<rect width="1080" height="200" fill="white"/>
</clipPath>
</defs>
</svg>
