<?xml version="1.0" encoding="UTF-8"?>
<svg version="1.1" viewBox="0 0 900 600" xmlns="http://www.w3.org/2000/svg">
<path d="m0 376 21.5 3.5c21.5 3.5 64.5 10.5 107.3 22.3 42.9 11.9 85.5 28.5 128.4 23 42.8-5.5 85.8-33.1 128.6-44.5 42.9-11.3 85.5-6.3 128.4 7.9 42.8 14.1 85.8 37.5 128.6 43.5 42.9 6 85.5-5.4 128.4-17.4 42.8-12 85.8-24.6 107.3-31l21.5-6.3v224h-21.5-107.3-128.4-128.6-128.4-128.6-128.4-107.3-21.5z" fill="#f13d19"/>
<path d="m0 414 21.5-2.3c21.5-2.4 64.5-7 107.3-5 42.9 2 85.5 10.6 128.4 22.1 42.8 11.5 85.8 25.9 128.6 24.9 42.9-1 85.5-17.4 128.4-15.5 42.8 1.8 85.8 21.8 128.6 22.1 42.9 0.4 85.5-19 128.4-22.5 42.8-3.5 85.8 8.9 107.3 15l21.5 6.2v142h-21.5-107.3-128.4-128.6-128.4-128.6-128.4-107.3-21.5z" fill="#f6630b"/>
<path d="m0 462 21.5-3.5c21.5-3.5 64.5-10.5 107.3-6.7 42.9 3.9 85.5 18.5 128.4 25.4 42.8 6.8 85.8 5.8 128.6 5 42.9-0.9 85.5-1.5 128.4-7.5 42.8-6 85.8-17.4 128.6-16.9 42.9 0.5 85.5 12.9 128.4 18 42.8 5.2 85.8 3.2 107.3 2.2l21.5-1v124h-21.5-107.3-128.4-128.6-128.4-128.6-128.4-107.3-21.5z" fill="#f98200"/>
<path d="m0 514 21.5 4c21.5 4 64.5 12 107.3 7.7 42.9-4.4 85.5-21 128.4-20.7 42.8 0.3 85.8 17.7 128.6 20.7 42.9 3 85.5-8.4 128.4-15.4 42.8-7 85.8-9.6 128.6-6.3 42.9 3.3 85.5 12.7 128.4 17.2 42.8 4.5 85.8 4.1 107.3 4l21.5-0.2v76h-21.5-107.3-128.4-128.6-128.4-128.6-128.4-107.3-21.5z" fill="#fa9e01"/>
<path d="m0 559 21.5-2.8c21.5-2.9 64.5-8.5 107.3-11 42.9-2.5 85.5-1.9 128.4 0.1 42.8 2 85.8 5.4 128.6 9 42.9 3.7 85.5 7.7 128.4 8.9 42.8 1.1 85.8-0.5 128.6-7.2 42.9-6.7 85.5-18.3 128.4-21.7 42.8-3.3 85.8 1.7 107.3 4.2l21.5 2.5v60h-21.5-107.3-128.4-128.6-128.4-128.6-128.4-107.3-21.5z" fill="#f9b918"/>
</svg>
