<svg width="636" height="129" viewBox="0 0 636 129" fill="none" xmlns="http://www.w3.org/2000/svg">
<path d="M170.043 93.8943C169.57 93.8943 169.127 93.7169 168.713 93.3625C168.359 92.9491 168.182 92.5059 168.182 92.0333C168.182 91.6789 168.211 91.4131 168.27 91.2357L189.095 34.3447C189.272 33.6357 189.656 33.0449 190.247 32.5723C190.838 32.0997 191.606 31.8634 192.551 31.8634H205.666C206.611 31.8634 207.379 32.0997 207.97 32.5723C208.561 33.0449 208.945 33.6357 209.122 34.3447L229.858 91.2357L230.035 92.0333C230.035 92.5059 229.828 92.9491 229.415 93.3625C229.06 93.7169 228.617 93.8943 228.086 93.8943H217.186C215.768 93.8943 214.823 93.2737 214.35 92.0333L210.894 82.9946H187.234L183.867 92.0333C183.394 93.2737 182.419 93.8943 180.942 93.8943H170.043ZM207.349 70.234L199.108 46.8393L190.867 70.234H207.349Z" fill="#4A55FF"/>
<path d="M250.086 94.7802C245.301 94.7802 241.284 94.1009 238.035 92.7419C234.845 91.3833 232.481 89.7588 230.945 87.8684C229.409 85.9777 228.642 84.2941 228.642 82.8172C228.642 82.2264 228.848 81.7538 229.262 81.3995C229.734 80.9856 230.237 80.7789 230.768 80.7789H240.87C241.225 80.7789 241.55 80.9269 241.845 81.2221C242.554 81.6947 243.086 82.0788 243.44 82.374C244.74 83.3192 245.863 84.0282 246.808 84.5008C247.812 84.9143 249.023 85.121 250.441 85.121C252.154 85.121 253.542 84.7964 254.606 84.1465C255.728 83.4374 256.29 82.4629 256.29 81.2221C256.29 80.2178 255.994 79.4202 255.403 78.8294C254.871 78.2386 253.808 77.6775 252.213 77.1458C250.618 76.555 248.196 75.9348 244.947 75.2848C240.043 74.2805 236.262 72.656 233.604 70.4109C231.005 68.1071 229.705 65.0351 229.705 61.1949C229.705 58.7729 230.473 56.4687 232.009 54.2831C233.545 52.0972 235.819 50.3247 238.832 48.9661C241.904 47.6074 245.538 46.9281 249.732 46.9281C253.926 46.9281 257.589 47.5777 260.72 48.8776C263.851 50.1771 266.214 51.7722 267.809 53.6625C269.464 55.4942 270.291 57.1778 270.291 58.7138C270.291 59.2455 270.084 59.7181 269.67 60.1315C269.316 60.545 268.873 60.7521 268.341 60.7521H259.125C258.653 60.7521 258.209 60.6041 257.796 60.3089C257.028 59.8954 256.348 59.4522 255.758 58.9796C254.754 58.2118 253.808 57.621 252.922 57.2075C252.036 56.7937 250.943 56.5869 249.643 56.5869C248.107 56.5869 246.867 56.9417 245.921 57.6504C245.035 58.3594 244.592 59.2748 244.592 60.3974C244.592 61.2838 244.829 62.0223 245.301 62.6127C245.833 63.2035 246.896 63.7944 248.491 64.3852C250.146 64.9169 252.568 65.478 255.758 66.0688C261.488 67.0731 265.653 68.8456 268.253 71.3859C270.911 73.9262 272.24 76.9093 272.24 80.336C272.24 84.7076 270.291 88.2228 266.392 90.8813C262.492 93.4807 257.057 94.7802 250.086 94.7802Z" fill="#4A55FF"/>
<path d="M294.144 94.7802C289.359 94.7802 285.342 94.1009 282.093 92.7419C278.902 91.3833 276.539 89.7588 275.003 87.8684C273.467 85.9777 272.699 84.2941 272.699 82.8172C272.699 82.2264 272.906 81.7538 273.319 81.3995C273.792 80.9856 274.294 80.7789 274.826 80.7789H284.928C285.282 80.7789 285.607 80.9269 285.903 81.2221C286.612 81.6947 287.143 82.0788 287.498 82.374C288.798 83.3192 289.92 84.0282 290.865 84.5008C291.87 84.9143 293.081 85.121 294.498 85.121C296.212 85.121 297.6 84.7964 298.664 84.1465C299.786 83.4374 300.347 82.4629 300.347 81.2221C300.347 80.2178 300.052 79.4202 299.461 78.8294C298.929 78.2386 297.866 77.6775 296.271 77.1458C294.676 76.555 292.254 75.9348 289.004 75.2848C284.101 74.2805 280.32 72.656 277.662 70.4109C275.062 68.1071 273.763 65.0351 273.763 61.1949C273.763 58.7729 274.53 56.4687 276.066 54.2831C277.602 52.0972 279.877 50.3247 282.89 48.9661C285.962 47.6074 289.595 46.9281 293.79 46.9281C297.984 46.9281 301.647 47.5777 304.778 48.8776C307.909 50.1771 310.272 51.7722 311.867 53.6625C313.521 55.4942 314.348 57.1778 314.348 58.7138C314.348 59.2455 314.142 59.7181 313.728 60.1315C313.374 60.545 312.93 60.7521 312.399 60.7521H303.183C302.71 60.7521 302.267 60.6041 301.854 60.3089C301.086 59.8954 300.406 59.4522 299.816 58.9796C298.811 58.2118 297.866 57.621 296.98 57.2075C296.094 56.7937 295.001 56.5869 293.701 56.5869C292.165 56.5869 290.925 56.9417 289.979 57.6504C289.093 58.3594 288.65 59.2748 288.65 60.3974C288.65 61.2838 288.886 62.0223 289.359 62.6127C289.89 63.2035 290.954 63.7944 292.549 64.3852C294.203 64.9169 296.625 65.478 299.816 66.0688C305.546 67.0731 309.711 68.8456 312.31 71.3859C314.969 73.9262 316.298 76.9093 316.298 80.336C316.298 84.7076 314.348 88.2228 310.449 90.8813C306.55 93.4807 301.115 94.7802 294.144 94.7802Z" fill="#4A55FF"/>
<path d="M340.506 94.7802C333.417 94.7802 327.834 92.8601 323.757 89.0203C319.681 85.1801 317.554 79.5976 317.377 72.2719V69.1706C317.613 62.1992 319.77 56.7643 323.846 52.8654C327.981 48.9069 333.505 46.9281 340.417 46.9281C345.439 46.9281 349.663 47.9618 353.089 50.0295C356.575 52.0381 359.174 54.8148 360.887 58.3594C362.659 61.904 363.546 65.9803 363.546 70.5883V72.7151C363.546 73.306 363.339 73.8373 362.925 74.3103C362.512 74.7237 361.98 74.9305 361.33 74.9305H332.973V75.5507C333.092 78.3275 333.771 80.5721 335.011 82.2855C336.252 83.9989 338.054 84.8552 340.417 84.8552C341.894 84.8552 343.105 84.5599 344.05 83.9691C344.996 83.3192 345.852 82.5514 346.62 81.6653C347.152 81.0154 347.565 80.6313 347.861 80.513C348.215 80.336 348.747 80.2472 349.456 80.2472H360.444C360.976 80.2472 361.419 80.4245 361.773 80.7789C362.187 81.0745 362.394 81.4879 362.394 82.0196C362.394 83.5556 361.508 85.3277 359.735 87.3367C358.022 89.3453 355.511 91.088 352.203 92.5649C348.895 94.0418 344.996 94.7802 340.506 94.7802ZM347.949 66.1577V65.9803C347.949 63.0857 347.27 60.8108 345.911 59.157C344.612 57.4436 342.78 56.5869 340.417 56.5869C338.113 56.5869 336.282 57.4436 334.923 59.157C333.623 60.8108 332.973 63.0857 332.973 65.9803V66.1577H347.949Z" fill="#4A55FF"/>
<path d="M369.145 93.8942C368.495 93.8942 367.964 93.6875 367.55 93.2736C367.137 92.8601 366.93 92.3284 366.93 91.6789V50.0295C366.93 49.3795 367.137 48.8478 367.55 48.4343C367.964 48.0209 368.495 47.8141 369.145 47.8141H378.804C379.454 47.8141 379.986 48.0209 380.399 48.4343C380.813 48.8478 381.02 49.3795 381.02 50.0295V53.0423C382.379 51.2703 384.18 49.8227 386.425 48.7002C388.729 47.5185 391.299 46.9281 394.135 46.9281C400.634 46.9281 405.122 49.4684 407.606 54.549C409.022 52.3039 411.002 50.4727 413.542 49.0545C416.081 47.6368 418.799 46.9281 421.696 46.9281C426.537 46.9281 430.465 48.582 433.481 51.8904C436.552 55.1398 438.088 60.0137 438.088 66.512V91.6789C438.088 92.2693 437.881 92.801 437.469 93.2736C437.056 93.6875 436.524 93.8942 435.874 93.8942H425.593C424.942 93.8942 424.382 93.6875 423.91 93.2736C423.497 92.8601 423.291 92.3284 423.291 91.6789V67.1322C423.291 64.1785 422.668 62.0516 421.43 60.7521C420.248 59.4522 418.621 58.8023 416.554 58.8023C414.665 58.8023 413.097 59.482 411.859 60.8406C410.617 62.1401 409.998 64.2376 409.998 67.1322V91.6789C409.998 92.2693 409.792 92.801 409.375 93.2736C408.963 93.6875 408.431 93.8942 407.78 93.8942H397.503C396.853 93.8942 396.32 93.6875 395.907 93.2736C395.494 92.8601 395.287 92.3284 395.287 91.6789V67.1322C395.287 64.2376 394.637 62.1401 393.337 60.8406C392.097 59.482 390.501 58.8023 388.552 58.8023C386.662 58.8023 385.066 59.482 383.767 60.8406C382.526 62.1401 381.906 64.2078 381.906 67.0437V91.6789C381.906 92.2693 381.699 92.801 381.285 93.2736C380.872 93.6875 380.34 93.8942 379.69 93.8942H369.145Z" fill="#4A55FF"/>
<path d="M471.359 94.7803C465.451 94.7803 460.872 92.8011 457.626 88.843V91.679C457.626 92.2694 457.416 92.8011 457.003 93.2737C456.59 93.6875 456.059 93.8943 455.408 93.8943H445.397C444.806 93.8943 444.274 93.6875 443.802 93.2737C443.385 92.8011 443.179 92.2694 443.179 91.679V33.1927C443.179 32.5428 443.385 32.0111 443.802 31.5976C444.274 31.1841 444.806 30.9773 445.397 30.9773H456.206C456.856 30.9773 457.388 31.1841 457.801 31.5976C458.213 32.0111 458.424 32.5428 458.424 33.1927V52.1564C461.729 48.6709 466.042 46.9282 471.359 46.9282C477.089 46.9282 481.608 48.7892 484.918 52.5107C488.227 56.2327 489.997 61.2839 490.235 67.664C490.294 68.4322 490.322 69.4952 490.322 70.8542C490.322 72.1538 490.294 73.1878 490.235 73.9556C489.941 80.5722 488.168 85.7119 484.918 89.3748C481.668 92.9785 477.148 94.7803 471.359 94.7803ZM466.574 82.9058C469.351 82.9058 471.331 82.0789 472.51 80.4246C473.752 78.7704 474.462 76.4959 474.637 73.6013C474.756 72.4196 474.815 71.5042 474.815 70.8542C474.815 70.2043 474.756 69.2885 474.637 68.1072C474.462 65.2122 473.752 62.9378 472.51 61.2839C471.331 59.6297 469.351 58.8023 466.574 58.8023C463.975 58.8023 461.995 59.5999 460.638 61.195C459.277 62.7901 458.539 64.7987 458.424 67.2208L458.332 70.4999L458.424 73.8671C458.598 76.5257 459.309 78.7112 460.55 80.4246C461.848 82.0789 463.856 82.9058 466.574 82.9058Z" fill="#4A55FF"/>
<path d="M496.377 93.8943C495.786 93.8943 495.254 93.6875 494.782 93.2737C494.366 92.8011 494.159 92.2694 494.159 91.679V33.1927C494.159 32.5428 494.366 32.0111 494.782 31.5976C495.254 31.1841 495.786 30.9773 496.377 30.9773H506.833C507.484 30.9773 508.015 31.1841 508.428 31.5976C508.841 32.0111 509.047 32.5428 509.047 33.1927V91.679C509.047 92.3285 508.841 92.8602 508.428 93.2737C508.015 93.6875 507.484 93.8943 506.833 93.8943H496.377Z" fill="#4A55FF"/>
<path d="M523.189 110.731C522.657 110.731 522.213 110.554 521.86 110.199C521.507 109.845 521.328 109.402 521.328 108.87C521.328 108.457 521.415 108.073 521.594 107.718L528.506 91.0583L511.491 50.8271C511.313 50.3545 511.226 50.0002 511.226 49.7637C511.345 49.232 511.579 48.7891 511.936 48.4344C512.289 48.0209 512.733 47.8142 513.265 47.8142H523.368C524.606 47.8142 525.463 48.4344 525.935 49.6752L536.037 75.4622L546.406 49.6752C546.997 48.4344 547.882 47.8142 549.064 47.8142H558.988C559.52 47.8142 559.964 48.0209 560.317 48.4344C560.734 48.7891 560.94 49.2026 560.94 49.6752C560.94 49.9113 560.849 50.2954 560.674 50.8271L535.597 108.87C535.125 110.111 534.236 110.731 532.938 110.731H523.189Z" fill="#4A55FF"/>
<path d="M556.428 93.8943C555.956 93.8943 555.512 93.7169 555.099 93.3625C554.742 92.9491 554.567 92.5059 554.567 92.0333C554.567 91.6789 554.595 91.4131 554.655 91.2357L575.479 34.3447C575.657 33.6357 576.042 33.0449 576.633 32.5723C577.221 32.0997 577.99 31.8634 578.935 31.8634H592.049C592.997 31.8634 593.763 32.0997 594.354 32.5723C594.945 33.0449 595.33 33.6357 595.505 34.3447L616.242 91.2357L616.42 92.0333C616.42 92.5059 616.214 92.9491 615.801 93.3625C615.444 93.7169 615.004 93.8943 614.472 93.8943H603.572C602.151 93.8943 601.207 93.2737 600.735 92.0333L597.279 82.9946H573.618L570.253 92.0333C569.777 93.2737 568.804 93.8943 567.328 93.8943H556.428ZM593.735 70.234L585.494 46.8393L577.252 70.234H593.735Z" fill="#4A55FF"/>
<path d="M620.698 93.8943C620.106 93.8943 619.575 93.6875 619.102 93.2737C618.69 92.8011 618.479 92.2694 618.479 91.6789V34.0788C618.479 33.429 618.69 32.8973 619.102 32.4837C619.575 32.0702 620.106 31.8634 620.698 31.8634H632.57C633.221 31.8634 633.752 32.0702 634.165 32.4837C634.637 32.8973 634.875 33.429 634.875 34.0788V91.6789C634.875 92.3285 634.637 92.8602 634.165 93.2737C633.752 93.6875 633.221 93.8943 632.57 93.8943H620.698Z" fill="#4A55FF"/>
<mask id="mask0_613_12" style="mask-type:luminance" maskUnits="userSpaceOnUse" x="0" y="0" width="128" height="129">
<path d="M128 0.177979H0V128.178H128V0.177979Z" fill="white"/>
</mask>
<g mask="url(#mask0_613_12)">
<path d="M12.0938 85.781L1.96499 109.59C-0.876911 116.256 -1.41134 123.858 5.70558 126.505C7.40586 127.145 9.13042 127.441 10.855 127.441C16.3445 127.441 21.5668 124.337 23.7286 119.246L25.7689 114.453L41.3874 77.7684L56.9328 41.2214C60.6428 34.7252 62.918 24.7284 77.4821 19.3527C66.1595 17.9007 43.3349 14.9126 43.1068 14.9126C42.9607 15.1409 41.4358 17.4581 41.2902 17.6863C40.9744 18.1885 40.6585 18.7136 40.4157 19.2614C40.3915 19.3071 40.3915 19.3299 40.3673 19.3527L12.1181 85.7353C12.1181 85.7353 12.0938 85.7583 12.0938 85.781Z" fill="url(#paint0_radial_613_12)"/>
<path d="M113.355 85.7801L123.483 109.59C126.325 116.255 126.86 123.857 119.743 126.505C118.042 127.144 116.318 127.441 114.593 127.441C109.104 127.441 103.881 124.336 101.72 119.246L99.6793 114.452L84.061 77.7676L68.5157 41.2206C64.8056 34.7243 58.5426 21.2957 41.8164 16.9549C43.9294 12.0014 51.1725 11.1567 56.832 11.1567H72.1833H72.3047C72.9118 11.1796 73.4951 11.248 74.1264 11.3393C74.4423 11.385 74.7823 11.385 75.0982 11.4535C75.5108 11.5448 75.8997 11.7046 76.3128 11.8188C76.7742 11.9557 77.2357 12.047 77.673 12.2296C77.867 12.3209 78.0614 12.4351 78.2559 12.5264C78.863 12.8003 79.4459 13.0743 80.0046 13.4167C80.3934 13.6449 80.7089 13.9645 81.0735 14.2385C81.389 14.4896 81.7536 14.7178 82.0449 14.9918C82.3123 15.2657 82.5552 15.5853 82.8222 15.882C83.1381 16.2473 83.4781 16.5669 83.7452 16.9549C83.8908 17.1832 84.0126 17.4572 84.1582 17.6854C84.4741 18.1876 84.7895 18.7127 85.0328 19.2605C85.057 19.3062 85.057 19.329 85.0812 19.3519L113.33 85.7345C113.33 85.7345 113.355 85.7575 113.355 85.7801Z" fill="url(#paint1_radial_613_12)"/>
</g>
<defs>
<radialGradient id="paint0_radial_613_12" cx="0" cy="0" r="1" gradientUnits="userSpaceOnUse" gradientTransform="translate(48.0905 27.38) rotate(112.412) scale(109.674 74.8641)">
<stop stop-color="#142167"/>
<stop offset="1" stop-color="#263DB5"/>
</radialGradient>
<radialGradient id="paint1_radial_613_12" cx="0" cy="0" r="1" gradientUnits="userSpaceOnUse" gradientTransform="translate(117.323 36.7033) rotate(132.41) scale(101.801 356.187)">
<stop stop-color="#4259D4"/>
<stop offset="1" stop-color="#6A81FC"/>
</radialGradient>
</defs>
</svg>
