<svg width="1185" height="128" viewBox="0 0 1185 128" fill="none" xmlns="http://www.w3.org/2000/svg">
<g clip-path="url(#clip0_613_29)">
<path d="M115.322 0H5.99843C2.97736 0 0.52832 2.44904 0.52832 5.47008C0.52832 6.92086 1.10463 8.31217 2.13047 9.33804L118.748 125.955C120.884 128.092 124.348 128.092 126.484 125.955C127.509 124.929 128.086 123.538 128.086 122.087V12.7639C128.086 5.71461 122.371 0 115.322 0Z" fill="#228AFF"/>
<path d="M20.507 120.342H82.423C85.4443 120.342 87.8936 117.893 87.8936 114.872C87.8936 113.421 87.3171 112.03 86.2911 111.004L17.0812 41.7942C14.945 39.658 11.4815 39.658 9.34528 41.7942C8.31946 42.82 7.74316 44.2114 7.74316 45.6621V107.579C7.74316 114.627 13.4577 120.342 20.507 120.342Z" fill="#50E3C2"/>
<path d="M252.322 109.037C268.052 109.037 281.815 101.242 289.188 88.9929L272.23 79.0951C268.543 85.7762 261.048 89.7353 252.322 89.7353C237.085 89.7353 227.254 79.4663 227.254 64C227.254 48.534 237.085 38.2646 252.322 38.2646C261.048 38.2646 268.42 42.2239 272.23 48.9052L289.188 39.0069C281.692 26.7579 267.929 18.963 252.322 18.963C226.394 18.963 207.593 38.5121 207.593 64C207.593 89.4882 226.394 109.037 252.322 109.037ZM346.522 109.037C371.222 109.037 391.252 89.4882 391.252 64C391.252 38.5121 371.222 18.963 346.522 18.963C321.822 18.963 301.792 38.5121 301.792 64C301.792 89.4882 321.822 109.037 346.522 109.037ZM346.522 89.7353C332.513 89.7353 321.453 79.4663 321.453 64C321.453 48.534 332.513 38.2646 346.522 38.2646C360.531 38.2646 371.59 48.534 371.59 64C371.59 79.4663 360.531 89.7353 346.522 89.7353ZM430.276 107.305V60.288L463.454 107.305H478.201V20.6952H458.539V67.712L425.361 20.6952H410.614V107.305H430.276ZM546.963 107.305L574.98 20.6952H553.476L534.429 84.415L515.382 20.6952H493.878L521.895 107.305H546.963ZM610.318 107.305V20.6952H590.655V107.305H610.318ZM674.412 109.037C690.141 109.037 703.901 101.242 711.276 88.9929L694.316 79.0951C690.633 85.7762 683.135 89.7353 674.412 89.7353C659.175 89.7353 649.343 79.4663 649.343 64C649.343 48.534 659.175 38.2646 674.412 38.2646C683.135 38.2646 690.51 42.2239 694.316 48.9052L711.276 39.0069C703.778 26.7579 690.018 18.963 674.412 18.963C648.482 18.963 629.681 38.5121 629.681 64C629.681 89.4882 648.482 109.037 674.412 109.037ZM764.43 107.305V39.7493H786.55V20.6952H722.653V39.7493H744.772V107.305H764.43ZM823.118 107.305V20.6952H803.455V107.305H823.118ZM887.212 109.037C911.911 109.037 931.938 89.4882 931.938 64C931.938 38.5121 911.911 18.963 887.212 18.963C862.513 18.963 842.481 38.5121 842.481 64C842.481 89.4882 862.513 109.037 887.212 109.037ZM887.212 89.7353C873.201 89.7353 862.143 79.4663 862.143 64C862.143 48.534 873.201 38.2646 887.212 38.2646C901.218 38.2646 912.28 48.534 912.28 64C912.28 79.4663 901.218 89.7353 887.212 89.7353ZM970.963 107.305V60.288L1004.14 107.305H1018.89V20.6952H999.227V67.712L966.05 20.6952H951.3V107.305H970.963ZM1056.07 107.305L1060.37 93.695H1092.32L1096.62 107.305H1118.13L1088.88 20.6952H1063.81L1034.56 107.305H1056.07ZM1086.42 75.1355H1066.27L1076.35 43.3375L1086.42 75.1355ZM1184.19 107.305V88.2505H1153.46V20.6952H1133.8V107.305H1184.19Z" fill="white"/>
</g>
<defs>
<clipPath id="clip0_613_29">
<rect width="1185" height="128" fill="white"/>
</clipPath>
</defs>
</svg>
