<svg width="1200" height="800" viewBox="0 0 1200 800" fill="none" xmlns="http://www.w3.org/2000/svg">
<rect width="1200" height="800" fill="white"/>
<g clip-path="url(#clip0_905_14)">
<path d="M372.029 409.418H392.688V418.294H392.92C395.182 414.965 398.229 412.243 401.79 410.365C405.351 408.488 409.32 407.513 413.346 407.527C435.009 407.527 436.747 423.311 436.747 432.688V474.368H415.47V442.954C415.47 434.078 416.474 425.048 404.813 425.048C396.819 425.048 393.228 431.801 393.228 438.941V474.368H371.952L372.029 409.418Z" fill="#303E49"/>
<path d="M487.062 474.329H462.503L440.841 409.417H463.005L474.899 452.332H475.168L487.178 409.417H508.84L487.062 474.329Z" fill="#303E49"/>
<path d="M530.116 447.083C530.502 455.96 535.638 461.864 544.635 461.864C547.14 462.004 549.632 461.4 551.795 460.13C553.959 458.86 555.699 456.98 556.798 454.725H576.685C572.823 469.737 558.922 476.259 544.364 476.259C523.242 476.259 508.839 463.485 508.839 441.719C508.822 437.152 509.724 432.628 511.49 428.416C513.257 424.204 515.852 420.39 519.123 417.2C522.394 414.01 526.273 411.511 530.53 409.849C534.786 408.187 539.333 407.397 543.901 407.527C567.069 407.527 578.654 425.048 577.804 447.083H530.116ZM556.528 435.197C556.551 431.781 555.249 428.49 552.894 426.014C550.539 423.538 547.316 422.071 543.901 421.921C536.371 421.921 531.351 427.325 530.116 435.197H556.528Z" fill="#303E49"/>
<path d="M602.519 452.95C602.467 454.354 602.761 455.749 603.373 457.014C603.986 458.278 604.899 459.374 606.033 460.205C608.309 461.744 611.007 462.54 613.756 462.482C617.887 462.482 623.756 460.707 623.756 455.574C623.756 450.441 617.115 449.592 613.369 448.704C599.97 445.347 583.211 444.845 583.211 427.44C583.211 412.003 600.086 407.526 612.867 407.526C627.154 407.526 642.06 411.656 642.793 428.559H623.139C623.23 427.461 623.024 426.358 622.542 425.366C622.059 424.374 621.318 423.531 620.397 422.925C618.339 421.768 615.999 421.206 613.64 421.304C610.125 421.304 604.488 421.69 604.488 426.167C604.488 432.303 618.775 433.422 628.506 435.583C641.673 438.207 645.033 447.701 645.033 453.104C645.033 470.47 628.506 476.259 613.871 476.259C598.425 476.259 582.71 471.165 582.092 453.104L602.519 452.95Z" fill="#303E49"/>
<path d="M692.296 423.195H679.128V452.718C679.128 457.851 682.14 458.97 686.851 458.97C688.588 458.97 690.481 458.738 692.373 458.738V474.175C688.511 474.175 684.65 474.793 680.788 474.793C662.64 474.793 658.006 469.544 658.006 451.908V423.002H647.232V409.225H658.006V389.582H679.282V409.225H692.296V423.195Z" fill="#303E49"/>
<path d="M699.285 409.418H719.943V418.294H720.176C722.087 415.032 724.815 412.323 728.092 410.435C731.37 408.547 735.082 407.545 738.864 407.526C746.974 407.526 754.312 410.151 757.749 418.062C759.972 414.741 763.002 412.035 766.55 410.193C770.104 408.351 774.058 407.435 778.061 407.526C798.675 407.526 800.954 423.195 800.954 435.583V474.175H779.681V436.201C779.681 429.177 776.281 425.048 770.763 425.048C761.648 425.048 760.761 432.071 760.761 442.568V474.368H739.483V437.435C739.483 429.717 737.205 425.048 731.451 425.048C723.728 425.048 720.562 429.447 720.562 442.722V474.368H699.285V409.418Z" fill="#303E49"/>
<path d="M828.645 447.083C828.99 455.959 834.126 461.864 843.161 461.864C845.662 462.006 848.15 461.403 850.306 460.132C852.467 458.862 854.198 456.979 855.288 454.725H875.212C871.351 469.737 857.45 476.259 842.89 476.259C821.734 476.259 807.366 463.485 807.366 441.719C807.347 437.155 808.252 432.635 810.014 428.425C811.781 424.215 814.368 420.403 817.639 417.214C820.903 414.025 824.777 411.524 829.033 409.86C833.282 408.196 837.828 407.402 842.391 407.526C865.561 407.526 877.337 425.047 876.333 447.083H828.645ZM855.054 435.197C855.079 431.775 853.773 428.477 851.408 426.001C849.043 423.524 845.81 422.062 842.391 421.921C834.896 421.921 829.876 427.324 828.645 435.197H855.054Z" fill="#303E49"/>
<path d="M884.481 409.418H905.138V418.294H905.366C907.633 414.965 910.675 412.243 914.241 410.365C917.801 408.488 921.767 407.513 925.795 407.527C947.456 407.527 949.199 423.311 949.199 432.688V474.368H927.84V442.954C927.84 434.078 928.844 425.048 917.185 425.048C909.191 425.048 905.6 431.801 905.6 438.941V474.368H884.327L884.481 409.418Z" fill="#303E49"/>
<path d="M998.89 423.195H985.765V452.718C985.765 457.851 988.777 458.97 993.488 458.97C995.225 458.97 997.116 458.738 998.97 458.738V474.175C995.108 474.175 991.246 474.793 987.385 474.793C969.234 474.793 964.603 469.544 964.603 451.908V423.002H953.714V409.225H964.486V389.582H985.765V409.225H998.89V423.195Z" fill="#303E49"/>
<path d="M1022.45 452.95C1022.4 454.352 1022.7 455.745 1023.31 457.009C1023.93 458.273 1024.83 459.37 1025.96 460.205C1028.24 461.744 1030.93 462.54 1033.68 462.482C1037.81 462.482 1043.68 460.707 1043.68 455.574C1043.68 450.441 1037.08 449.592 1033.3 448.704C1019.9 445.347 1003.14 444.845 1003.14 427.44C1003.14 412.003 1020.05 407.526 1032.79 407.526C1047.08 407.526 1061.99 411.656 1062.72 428.559H1043.07C1043.16 427.461 1042.95 426.358 1042.47 425.366C1041.99 424.374 1041.24 423.531 1040.33 422.925C1038.27 421.768 1035.93 421.206 1033.57 421.304C1030.05 421.304 1024.42 421.69 1024.42 426.167C1024.42 432.303 1038.71 433.422 1048.48 435.583C1061.6 438.207 1065 447.701 1065 453.104C1065 470.47 1048.48 476.259 1033.8 476.259C1018.35 476.259 1002.64 471.165 1002.02 453.104L1022.45 452.95Z" fill="#303E49"/>
<path d="M337.586 365.114H331.33V474.407H337.586V365.114Z" fill="#2B70B8"/>
<path d="M350.288 344.467H344.071V474.406H350.288V344.467Z" fill="#2B70B8"/>
<path d="M363.032 323.782H356.814V474.407H363.032V323.782Z" fill="#2B70B8"/>
<path d="M180.232 367.352C179.757 364.357 178.179 361.646 175.807 359.754C173.435 357.862 170.441 356.924 167.412 357.125C164.077 357.095 160.838 358.239 158.261 360.355C155.684 362.472 153.934 365.427 153.318 368.703C152.554 371.364 152.151 374.116 152.121 376.885C152.163 378.578 152.318 380.267 152.585 381.94C152.862 384.323 153.609 386.628 154.782 388.72C155.955 390.814 157.531 392.654 159.419 394.135C161.745 395.735 164.512 396.572 167.335 396.528C169.677 396.532 171.984 395.962 174.054 394.868C175.903 393.72 177.446 392.141 178.549 390.265C179.652 388.39 180.283 386.274 180.387 384.101H197.261C196.992 391.206 194.023 397.941 188.959 402.934C186.145 405.702 182.788 407.858 179.1 409.265C175.412 410.674 171.472 411.303 167.528 411.116C161.064 411.244 154.698 409.516 149.187 406.137C147.567 405.062 146.054 403.834 144.669 402.471C138.209 395.543 134.741 386.351 135.015 376.885C134.847 368.208 137.854 359.768 143.472 353.15C146.518 349.859 150.225 347.247 154.35 345.484C158.476 343.722 162.927 342.85 167.412 342.924C171.749 342.797 176.062 343.603 180.059 345.288C184.056 346.972 187.645 349.496 190.581 352.687C193.489 356.09 195.506 360.161 196.45 364.535C196.597 365.52 196.688 366.512 196.721 367.507L180.232 367.352Z" fill="#303E49"/>
<path d="M220.893 374.453H231.588C232.67 374.453 233.713 374.453 234.716 374.26C235.929 374.198 237.11 373.851 238.163 373.248C239.216 372.644 240.113 371.801 240.779 370.787C241.491 369.417 241.849 367.892 241.821 366.349C241.821 357.704 233.403 358.244 231.473 358.167H220.893V374.453ZM230.739 344.351C232.515 344.351 234.253 344.351 235.991 344.351C238.945 344.15 241.909 344.578 244.686 345.609C247.462 346.639 249.988 348.248 252.095 350.328C254.201 352.408 255.842 354.912 256.907 357.675C257.971 360.437 258.437 363.393 258.271 366.349C258.431 370.427 257.346 374.457 255.159 377.903C252.973 381.35 249.789 384.05 246.03 385.645C242.312 386.952 238.387 387.58 234.446 387.497H221.009V409.224H204.057V344.351H230.739Z" fill="#303E49"/>
<path d="M283.411 374.53H294.107C295.226 374.53 296.23 374.53 297.234 374.337C298.454 374.281 299.642 373.937 300.702 373.334C301.763 372.73 302.665 371.884 303.335 370.864C304.023 369.487 304.368 367.964 304.339 366.426C304.339 357.781 295.96 358.322 294.029 358.244H283.411V374.53ZM293.296 344.428C295.034 344.428 296.771 344.428 298.547 344.428C301.502 344.227 304.466 344.655 307.243 345.686C310.019 346.716 312.544 348.325 314.651 350.405C316.758 352.485 318.399 354.99 319.464 357.752C320.528 360.514 320.993 363.47 320.827 366.426C320.987 370.504 319.902 374.534 317.716 377.98C315.529 381.427 312.346 384.127 308.587 385.722C304.858 386.986 300.94 387.599 297.003 387.536H283.526V409.263H266.613V344.428H293.296Z" fill="#303E49"/>
</g>
<defs>
<clipPath id="clip0_905_14">
<rect width="930" height="160.041" fill="white" transform="translate(135 320)"/>
</clipPath>
</defs>
</svg>
