<svg width="516" height="128" viewBox="0 0 516 128" fill="none" xmlns="http://www.w3.org/2000/svg">
<path d="M316.22 98.706H316.048C316.134 98.706 316.134 98.7919 316.22 98.7919H316.306L316.22 98.706ZM316.22 98.7919C315.532 98.7919 313.728 99.1356 311.838 99.1356C305.911 99.1356 303.849 96.3866 303.849 92.7785V68.8966H315.962C316.649 68.8966 317.165 68.2953 317.165 67.4362V54.4644C317.165 53.7772 316.563 53.1758 315.962 53.1758H303.849V37.0255C303.849 36.4242 303.42 36.0805 302.732 36.0805H286.238C285.551 36.0805 285.208 36.5101 285.208 37.0255V53.6054C285.208 53.6054 276.875 55.6671 276.359 55.753C275.758 55.9248 275.414 56.4403 275.414 57.0416V67.4362C275.414 68.2953 276.016 68.8966 276.703 68.8966H285.122V93.9812C285.122 112.623 298.093 114.513 306.942 114.513C310.979 114.513 315.876 113.224 316.649 112.795C317.079 112.623 317.336 112.107 317.336 111.592V100.166C317.336 99.4792 316.907 98.9638 316.22 98.7919ZM497.138 82.0403C497.138 68.2094 491.554 66.4054 485.712 67.0067C481.159 67.2644 477.465 69.5839 477.465 69.5839V96.4725C477.465 96.4725 481.159 99.0497 486.743 99.2215C494.561 99.3933 497.138 96.5584 497.138 82.0403ZM515.693 80.8376C515.693 107.039 507.189 114.513 492.413 114.513C479.871 114.513 473.17 108.156 473.17 108.156C473.17 108.156 472.912 111.678 472.483 112.107C472.225 112.537 471.881 112.709 471.366 112.709H460.112C459.339 112.709 458.652 112.107 458.652 111.42L458.824 26.6309C458.824 25.9436 459.425 25.3423 460.112 25.3423H476.349C477.036 25.3423 477.637 25.9436 477.637 26.6309V55.4094C477.637 55.4094 483.908 51.3718 493.1 51.3718L493.014 51.2C502.12 51.2 515.693 54.6362 515.693 80.8376ZM449.116 53.2617H433.052C432.193 53.2617 431.763 53.8631 431.763 54.7221V96.2148C431.763 96.2148 427.554 99.1356 421.798 99.1356C416.128 99.1356 414.41 96.5584 414.41 90.8027V54.5503C414.41 53.8631 413.809 53.2617 413.122 53.2617H396.8C396.112 53.2617 395.511 53.8631 395.511 54.5503V93.6376C395.511 110.389 404.875 114.599 417.761 114.599C428.413 114.599 437.004 108.757 437.004 108.757C437.004 108.757 437.433 111.764 437.605 112.193C437.777 112.537 438.292 112.881 438.808 112.881H449.03C449.889 112.881 450.319 112.279 450.319 111.592L450.491 54.5503C450.577 53.8631 449.889 53.2617 449.116 53.2617ZM268.198 53.1758H251.962C251.275 53.1758 250.673 53.8631 250.673 54.7221V110.733C250.673 112.279 251.704 112.795 252.993 112.795H267.683C269.229 112.795 269.573 112.107 269.573 110.733V54.4644C269.487 53.7772 268.885 53.1758 268.198 53.1758ZM260.123 27.3181C254.281 27.3181 249.557 31.957 249.557 37.8846C249.557 43.7262 254.196 48.451 260.123 48.451C265.879 48.451 270.518 43.8121 270.518 37.8846C270.518 32.043 265.879 27.3181 260.123 27.3181ZM386.061 25.4282H369.911C369.224 25.4282 368.622 26.0295 368.622 26.7168V57.9007H343.366V26.7168C343.366 26.0295 342.765 25.4282 342.077 25.4282H325.841C325.154 25.4282 324.553 26.0295 324.553 26.7168V111.506C324.553 112.193 325.24 112.795 325.841 112.795H342.077C342.765 112.795 343.366 112.193 343.366 111.506V75.2537H368.622L368.451 111.506C368.451 112.193 369.052 112.795 369.739 112.795H385.975C386.663 112.795 387.264 112.193 387.264 111.506V26.7168C387.35 26.0295 386.749 25.4282 386.061 25.4282ZM241.997 62.9691V106.781C241.997 107.039 241.911 107.64 241.567 107.726C241.567 107.726 232.032 114.513 216.311 114.513C197.326 114.513 174.732 108.585 174.732 69.3262C174.732 30.0671 194.405 21.9919 213.648 22.0779C230.314 22.0779 237.014 25.8577 238.045 26.545C238.303 26.9745 238.475 27.2322 238.475 27.5758L235.382 41.2349C235.382 41.9221 234.695 42.7812 233.836 42.5235C231.087 41.6644 226.963 40.0322 217.256 40.0322C206.002 40.0322 193.975 43.2107 193.975 68.553C193.975 93.8094 205.401 96.8161 213.648 96.8161C220.692 96.8161 223.183 95.957 223.183 95.957V78.4322H211.93C211.071 78.4322 210.469 77.8309 210.469 77.1436V63.055C210.469 62.3678 211.071 61.7664 211.93 61.7664H240.536C241.396 61.6805 241.997 62.2819 241.997 62.9691Z" fill="white"/>
<path fill-rule="evenodd" clip-rule="evenodd" d="M65.6323 0.343536C29.4658 0.343536 0.171875 29.6375 0.171875 65.8039C0.171875 94.7544 18.8994 119.238 44.9289 127.914C48.1934 128.43 49.4819 126.54 49.4819 124.821C49.4819 123.275 49.396 118.121 49.396 112.623C32.988 115.63 28.6927 108.585 27.4041 104.977C26.6309 103.087 23.4524 97.2456 20.7034 95.6993C18.384 94.4966 15.1195 91.404 20.6175 91.3181C25.7719 91.2322 29.4658 96.0429 30.6685 98.0188C36.596 107.898 45.9598 105.149 49.7397 103.431C50.341 99.2215 52.0591 96.3007 53.9491 94.6685C39.4309 93.0362 24.1397 87.3664 24.1397 62.3677C24.1397 55.2375 26.7168 49.31 30.8403 44.757C30.1531 43.1247 27.9195 36.4241 31.5276 27.4039C31.5276 27.4039 37.0256 25.6858 49.5678 34.1046C54.8081 32.6442 60.392 31.8711 65.89 31.8711C71.4739 31.8711 76.9719 32.6442 82.2121 34.1046C94.7544 25.5999 100.167 27.4039 100.167 27.4039C103.775 36.4241 101.455 43.1247 100.854 44.757C105.063 49.31 107.554 55.1516 107.554 62.3677C107.554 87.4523 92.2631 93.0362 77.6591 94.6685C80.0645 96.7302 82.1262 100.596 82.1262 106.781C82.1262 115.544 82.0403 122.588 82.0403 124.736C82.0403 126.454 83.243 128.515 86.5074 127.828C113.138 118.808 131.093 93.8094 131.093 65.718C131.093 29.6375 101.799 0.343536 65.6323 0.343536Z" fill="white"/>
</svg>
