<svg width="1200" height="800" viewBox="0 0 1200 800" fill="none" xmlns="http://www.w3.org/2000/svg">
<rect width="1200" height="800" fill="white"/>
<path d="M542.848 309.378V360.402H542.612L508.854 301.296L490.139 310.41V386.175H506.728V325.654H506.96L541.667 386.174H559.437V301.302L542.848 309.378ZM597.261 354.023L608.166 320.429H608.395L618.946 354.023H597.261ZM618.692 301.288H618.667L593.907 313.35L567.888 386.175H586.606L592.522 368.673H623.914L629.369 386.175H648.675L618.692 301.288ZM944.779 354.023L955.694 320.429H955.946L966.468 354.023H944.779ZM966.253 301.288H966.217L941.45 313.35L915.43 386.175H934.149L940.054 368.673H971.443L976.919 386.175H996.21L966.253 301.288ZM707.318 301.296H646.856L638.206 316.237V316.314H663.907V386.175H681.684V316.314H698.649L707.318 301.296ZM714.407 309.925V386.175H732.181V301.296H732.149L714.407 309.925ZM784.758 373.374C775.166 373.374 761.637 367.467 761.637 343.702C761.637 319.939 775.166 314.039 784.758 314.039C794.35 314.039 807.843 319.939 807.843 343.701C807.843 367.467 794.35 373.374 784.758 373.374ZM784.758 299.027C783.97 299.027 783.075 299.042 782.145 299.109L752.725 313.432C747.5 320.093 743.885 329.747 743.885 343.702C743.885 383.546 773.483 388.393 784.758 388.393C795.996 388.393 825.595 383.546 825.595 343.701C825.595 303.867 795.996 299.027 784.758 299.027ZM890.018 309.378V360.402H889.804L856.017 301.296L837.335 310.41V386.175H853.906V325.654H854.12L888.873 386.174H906.625V301.302L890.018 309.378ZM1065 370.809H1022.73V301.302L1004.94 309.957V386.175H1056.12L1065 370.809ZM528.986 486.088H507.189V463.419H529.816C536.205 463.419 542.612 466.251 542.612 473.688C542.612 482.315 537.64 486.088 528.986 486.088ZM507.189 430.543H527.565C535.618 430.543 540.597 432.674 540.597 439.646C540.597 446.381 535.031 449.117 528.041 449.117H507.189V430.543ZM547.232 455.018C550.79 453.232 557.654 449.814 557.654 437.635C557.654 428.888 552.311 415.883 531.473 415.883H508.063L490.139 424.617V500.767H526.141C543.553 500.767 548.188 497.81 553.041 493.074C557.54 488.698 560.385 482.316 560.385 475.577C560.385 467.197 557.654 458.925 547.232 455.018ZM703.473 423.969V474.991H703.241L669.493 415.884L650.778 425.009V500.767H667.36V440.243H667.596L702.299 500.767H720.076V415.892L703.473 423.969ZM591.949 468.594L602.847 435.039H603.084L613.631 468.594H591.949ZM613.38 415.884H613.359L588.591 427.938L562.575 500.767H581.287L587.203 483.27H618.602L624.039 500.767H643.369L613.38 415.884ZM808.093 415.913L780.57 420.752L752.689 450.399V415.899L734.937 424.556V500.767H752.689V472.026L760.993 463.53L787.299 500.767H810.133L773.448 450.64L808.093 415.913Z" fill="#17314B"/>
<path d="M421.004 300.581V500.057L313.589 528.726C308.667 529.861 305.117 530.615 301.566 529.319C298.847 528.147 296.624 525.237 294.702 522.519L261.581 477.083C259.652 474.34 257.451 471.355 254.745 470.261C251.202 468.887 247.637 469.736 242.687 470.805L135 499.539V300.017L242.308 271.276C247.215 270.19 250.801 269.325 254.348 270.733C257.071 271.851 259.38 274.884 261.302 277.606L294.548 323.08C296.492 325.844 298.639 328.868 301.406 329.922C304.992 331.261 308.514 330.49 313.421 329.372L421.004 300.581Z" fill="#ED1C24"/>
<path d="M237.297 282.172L143.457 307.355V497.262L242.687 470.804C247.655 469.736 251.202 468.879 254.745 470.253C257.472 471.354 259.652 474.34 261.581 477.076L294.716 522.504C296.624 525.235 298.854 528.145 301.567 529.311C305.117 530.607 308.682 529.853 313.589 528.711L421.004 500.041V312.795L310.332 342.4C305.368 343.518 301.846 344.328 298.195 342.989C295.385 341.894 293.102 338.943 291.066 336.221L256.148 288.48C254.094 285.758 252.061 282.729 249.312 281.622C247.991 281.119 246.649 280.918 245.246 280.918C242.888 280.918 240.357 281.49 237.297 282.172Z" fill="url(#paint0_linear_640_22)"/>
<defs>
<linearGradient id="paint0_linear_640_22" x1="143.457" y1="280.918" x2="421.004" y2="280.918" gradientUnits="userSpaceOnUse">
<stop stop-color="#ED1C24"/>
<stop offset="0.3315" stop-color="#ED1C24"/>
<stop offset="0.3933" stop-color="#AA161E"/>
<stop offset="0.5729" stop-color="#AA161E" stop-opacity="0.9922"/>
<stop offset="0.6354" stop-color="#ED1C24"/>
<stop offset="1" stop-color="#ED1C24"/>
</linearGradient>
</defs>
</svg>
