<?xml version="1.0" encoding="utf-8"?>
<svg viewBox="0 0 231.61 141.77" style="enable-background:new 0 0 231.61 141.77;" xmlns="http://www.w3.org/2000/svg">
  <defs>
    <style type="text/css">
	.st0{fill:#C69E60;}
	.st1{fill:none;stroke:#C69E60;stroke-width:2;stroke-miterlimit:10;}
</style>
  </defs>
  <g style="" transform="matrix(0.8080670237541199, 0, 0, 0.8080670237541199, 22.2308292388916, 6.532602787017824)">
    <path class="st0" d="M5.44,122.51l0,17.13c0,0.78-0.63,1.41-1.41,1.41H1.41c-0.78,0-1.41-0.63-1.41-1.41l0-43.6 c0-0.74,0.6-1.35,1.35-1.35h7.11c8.42,0,10.73,3.67,10.73,10.3l0,7.15c0,6.7-2.31,10.37-10.73,10.37H5.44z M8.44,118.03 c4.35,0,5.31-2.2,5.31-5.88l0-7.17c0-3.62-0.96-5.81-5.31-5.81H5.44l0,18.86H8.44z"/>
    <path class="st0" d="M35.7,141.05h-2.61c-0.78,0-1.41-0.63-1.41-1.41l0-43.6c0-0.74,0.6-1.35,1.35-1.35h2.67 c0.78,0,1.41,0.63,1.41,1.41l0,43.54C37.11,140.42,36.48,141.05,35.7,141.05z"/>
    <path class="st0" d="M65.9,96.04c0-0.74,0.6-1.35,1.35-1.35h2.42c0.74,0,1.35,0.6,1.35,1.35l0,43.6c0,0.78-0.63,1.41-1.41,1.41 h-3.34c-0.9,0-1.22-0.38-1.48-1.22l-6.42-24.01l-2.25-9.41l-0.32,0.06l0.51,9.67l0,23.5c0,0.78-0.63,1.41-1.41,1.41h-2.29 c-0.78,0-1.41-0.63-1.41-1.41l0-43.6c0-0.74,0.6-1.35,1.35-1.35h3.41c0.9,0,1.28,0.38,1.48,1.22l6.42,24.01l2.25,9.41l0.32-0.06 l-0.51-9.67V96.04z"/>
    <path class="st0" d="M100.44,96.04c0-0.74,0.6-1.35,1.35-1.35h2.42c0.74,0,1.35,0.6,1.35,1.35l0,43.6c0,0.78-0.63,1.41-1.41,1.41 h-3.34c-0.9,0-1.22-0.38-1.48-1.22l-6.42-24.01l-2.25-9.41l-0.32,0.06l0.51,9.67l0,23.5c0,0.78-0.63,1.41-1.41,1.41h-2.29 c-0.78,0-1.41-0.63-1.41-1.41l0-43.54c0-0.78,0.63-1.41,1.41-1.41h3.34c0.9,0,1.28,0.38,1.48,1.22l6.42,24.01l2.25,9.41l0.32-0.06 l-0.51-9.67L100.44,96.04z"/>
    <path class="st0" d="M129.53,99.16l-5.63,40.61c-0.13,0.83-0.64,1.28-1.41,1.28h-2.69c-0.9,0-1.34-0.7-1.22-1.6l6.66-43.35 c0.13-0.96,0.64-1.41,1.54-1.41h5.76c0.9,0,1.34,0.45,1.47,1.41l6.66,43.35c0.13,0.96-0.32,1.6-1.22,1.6l-2.69,0 c-0.7,0-1.28-0.45-1.34-1.28l-5.57-40.61 M129.85,99.16h-0.32"/>
    <path class="st0" d="M172.4,111.18c0,0.78-0.63,1.41-1.41,1.41h-2.61c-0.78,0-1.41-0.63-1.41-1.41v-7.64 c0-3.13-0.83-5.02-4.48-5.02c-3.65,0-4.48,1.89-4.48,5.02l0,28.66c0,3.13,0.83,5.02,4.48,5.02c3.64,0,4.48-1.89,4.48-5.02v-7.7 c0-0.75,0.6-1.35,1.35-1.35h2.67c0.78,0,1.41,0.63,1.41,1.41v7.64c0,6.19-2.19,9.57-9.91,9.57c-7.72,0-9.91-3.39-9.91-9.57l0-28.66 c0-6.19,2.19-9.57,9.91-9.57c7.72,0,9.91,3.39,9.91,9.57V111.18z"/>
    <path class="st0" d="M191.6,136.57h10.42c0.78,0,1.41,0.63,1.41,1.41v1.65c0,0.78-0.63,1.41-1.41,1.41h-14.44 c-0.78,0-1.41-0.63-1.41-1.41v-43.6c0-0.74,0.6-1.35,1.35-1.35h2.67c0.78,0,1.41,0.63,1.41,1.41V136.57z"/>
    <path class="st0" d="M230.19,94.69c0.78,0,1.41,0.63,1.41,1.41v1.65c0,0.78-0.63,1.41-1.41,1.41h-10.42v16.31h8.18 c0.78,0,1.41,0.63,1.41,1.41v1.65c0,0.78-0.63,1.41-1.41,1.41h-8.18v16.63l10.42,0c0.78,0,1.41,0.63,1.41,1.41v1.65 c0,0.78-0.63,1.41-1.41,1.41h-14.44c-0.78,0-1.41-0.63-1.41-1.41v-43.6c0-0.74,0.6-1.35,1.35-1.35H230.19z"/>
  </g>
  <g transform="matrix(1, 0, 0, 1, 0.08726800978183746, 19.677719116210938)">
    <g>
      <path class="st1" d="M108.72,36.02c2.09,2.09,4.83,3.14,7.57,3.14c2.74,0,5.49-1.04,7.58-3.14c4.18-4.18,4.18-10.97,0-15.15 L108.72,36.02z"/>
      <polyline class="st1" points="123.87,20.87 116.28,13.29 93.53,36.04 &#9;&#9;"/>
    </g>
    <circle class="st1" cx="115.8" cy="25.58" r="24.58"/>
  </g>
</svg>