<svg width="668" height="62" viewBox="0 0 668 62" fill="none" xmlns="http://www.w3.org/2000/svg">
<path d="M1.65128 60H0.245028L2.8054 52.7273H4.43182L6.99574 60H5.58949L3.64702 54.2188H3.5902L1.65128 60ZM1.69744 57.1484H5.53267V58.2067H1.69744V57.1484ZM10.1101 60.1065C9.56558 60.1065 9.09801 59.987 8.70739 59.7479C8.31913 59.5088 8.01965 59.1785 7.80895 58.7571C7.60062 58.3333 7.49645 57.8456 7.49645 57.294C7.49645 56.7401 7.60298 56.2512 7.81605 55.8274C8.02912 55.4013 8.32978 55.0698 8.71804 54.8331C9.10866 54.594 9.57031 54.4744 10.103 54.4744C10.5457 54.4744 10.9375 54.5561 11.2784 54.7195C11.6217 54.8804 11.8951 55.1089 12.0987 55.4048C12.3023 55.6984 12.4183 56.0417 12.4467 56.4347H11.218C11.1683 56.1719 11.05 55.9529 10.8629 55.7777C10.6783 55.6001 10.4309 55.5114 10.1207 55.5114C9.85795 55.5114 9.62713 55.5824 9.42827 55.7244C9.2294 55.8641 9.07434 56.0653 8.96307 56.3281C8.85417 56.5909 8.79972 56.9058 8.79972 57.2727C8.79972 57.6444 8.85417 57.964 8.96307 58.2315C9.07197 58.4967 9.22467 58.7015 9.42116 58.8459C9.62003 58.9879 9.85322 59.0589 10.1207 59.0589C10.3101 59.0589 10.4794 59.0234 10.6286 58.9524C10.7801 58.879 10.9067 58.7737 11.0085 58.6364C11.1103 58.4991 11.1802 58.3321 11.218 58.1357H12.4467C12.416 58.5215 12.3023 58.8636 12.1058 59.1619C11.9093 59.4579 11.6418 59.6899 11.3033 59.858C10.9647 60.0237 10.567 60.1065 10.1101 60.1065ZM15.8816 60.1065C15.3371 60.1065 14.8695 59.987 14.4789 59.7479C14.0906 59.5088 13.7911 59.1785 13.5804 58.7571C13.3721 58.3333 13.2679 57.8456 13.2679 57.294C13.2679 56.7401 13.3745 56.2512 13.5875 55.8274C13.8006 55.4013 14.1013 55.0698 14.4895 54.8331C14.8801 54.594 15.3418 54.4744 15.8745 54.4744C16.3172 54.4744 16.709 54.5561 17.0499 54.7195C17.3932 54.8804 17.6666 55.1089 17.8702 55.4048C18.0738 55.6984 18.1898 56.0417 18.2182 56.4347H16.9895C16.9398 56.1719 16.8214 55.9529 16.6344 55.7777C16.4498 55.6001 16.2024 55.5114 15.8922 55.5114C15.6294 55.5114 15.3986 55.5824 15.1998 55.7244C15.0009 55.8641 14.8458 56.0653 14.7346 56.3281C14.6257 56.5909 14.5712 56.9058 14.5712 57.2727C14.5712 57.6444 14.6257 57.964 14.7346 58.2315C14.8435 58.4967 14.9962 58.7015 15.1926 58.8459C15.3915 58.9879 15.6247 59.0589 15.8922 59.0589C16.0816 59.0589 16.2509 59.0234 16.4 58.9524C16.5516 58.879 16.6782 58.7737 16.78 58.6364C16.8818 58.4991 16.9516 58.3321 16.9895 58.1357H18.2182C18.1874 58.5215 18.0738 58.8636 17.8773 59.1619C17.6808 59.4579 17.4133 59.6899 17.0748 59.858C16.7362 60.0237 16.3385 60.1065 15.8816 60.1065ZM21.6531 60.1065C21.1204 60.1065 20.6587 59.9893 20.2681 59.755C19.8775 59.5206 19.5745 59.1927 19.359 58.7713C19.146 58.3499 19.0394 57.8575 19.0394 57.294C19.0394 56.7306 19.146 56.237 19.359 55.8132C19.5745 55.3894 19.8775 55.0604 20.2681 54.826C20.6587 54.5916 21.1204 54.4744 21.6531 54.4744C22.1857 54.4744 22.6474 54.5916 23.038 54.826C23.4286 55.0604 23.7305 55.3894 23.9435 55.8132C24.159 56.237 24.2667 56.7306 24.2667 57.294C24.2667 57.8575 24.159 58.3499 23.9435 58.7713C23.7305 59.1927 23.4286 59.5206 23.038 59.755C22.6474 59.9893 22.1857 60.1065 21.6531 60.1065ZM21.6602 59.0767C21.949 59.0767 22.1905 58.9974 22.3846 58.8388C22.5787 58.6778 22.7231 58.4624 22.8178 58.1925C22.9149 57.9226 22.9634 57.6219 22.9634 57.2905C22.9634 56.9567 22.9149 56.6548 22.8178 56.3849C22.7231 56.1127 22.5787 55.8961 22.3846 55.7351C22.1905 55.5741 21.949 55.4936 21.6602 55.4936C21.3642 55.4936 21.118 55.5741 20.9215 55.7351C20.7274 55.8961 20.5818 56.1127 20.4847 56.3849C20.39 56.6548 20.3427 56.9567 20.3427 57.2905C20.3427 57.6219 20.39 57.9226 20.4847 58.1925C20.5818 58.4624 20.7274 58.6778 20.9215 58.8388C21.118 58.9974 21.3642 59.0767 21.6602 59.0767ZM28.8343 57.706V54.5455H30.1199V60H28.8734V59.0305H28.8166C28.6935 59.3359 28.4911 59.5857 28.2093 59.7798C27.93 59.974 27.5855 60.071 27.176 60.071C26.8185 60.071 26.5024 59.9917 26.2278 59.8331C25.9556 59.6721 25.7425 59.4389 25.5886 59.1335C25.4347 58.8258 25.3578 58.4541 25.3578 58.0185V54.5455H26.6433V57.8196C26.6433 58.1652 26.738 58.4399 26.9274 58.6435C27.1168 58.8471 27.3654 58.9489 27.6731 58.9489C27.8625 58.9489 28.046 58.9027 28.2235 58.8104C28.4011 58.718 28.5467 58.5807 28.6603 58.3984C28.7763 58.2138 28.8343 57.983 28.8343 57.706ZM32.7273 56.804V60H31.4418V54.5455H32.6705V55.4723H32.7344C32.8598 55.1669 33.0599 54.9242 33.3345 54.7443C33.6115 54.5644 33.9536 54.4744 34.3608 54.4744C34.7372 54.4744 35.0651 54.5549 35.3445 54.7159C35.6262 54.8769 35.844 55.1101 35.9979 55.4155C36.1541 55.7209 36.2311 56.0914 36.2287 56.527V60H34.9432V56.7259C34.9432 56.3613 34.8485 56.076 34.6591 55.87C34.4721 55.6641 34.2128 55.5611 33.8814 55.5611C33.6565 55.5611 33.4564 55.6108 33.2812 55.7102C33.1084 55.8073 32.9723 55.9482 32.8729 56.1328C32.7758 56.3175 32.7273 56.5412 32.7273 56.804ZM40.2592 54.5455V55.5398H37.1236V54.5455H40.2592ZM37.8977 53.2386H39.1832V58.3594C39.1832 58.5322 39.2093 58.6648 39.2614 58.7571C39.3158 58.8471 39.3868 58.9086 39.4744 58.9418C39.562 58.9749 39.6591 58.9915 39.7656 58.9915C39.8461 58.9915 39.9195 58.9856 39.9858 58.9737C40.0545 58.9619 40.1065 58.9512 40.142 58.9418L40.3587 59.9467C40.29 59.9704 40.1918 59.9964 40.0639 60.0249C39.9384 60.0533 39.7846 60.0698 39.6023 60.0746C39.2803 60.084 38.9903 60.0355 38.7322 59.929C38.4742 59.8201 38.2694 59.652 38.1179 59.4247C37.9688 59.1974 37.8954 58.9134 37.8977 58.5724V53.2386ZM50.0968 55.1811H48.7686C48.7308 54.9633 48.6609 54.7704 48.5591 54.6023C48.4573 54.4318 48.3307 54.2874 48.1792 54.169C48.0276 54.0507 47.8548 53.9619 47.6607 53.9027C47.4689 53.8411 47.2618 53.8104 47.0392 53.8104C46.6439 53.8104 46.2935 53.9098 45.9881 54.1087C45.6827 54.3052 45.4436 54.594 45.2708 54.9751C45.098 55.3539 45.0115 55.8168 45.0115 56.3636C45.0115 56.92 45.098 57.3887 45.2708 57.7699C45.446 58.1487 45.6851 58.4351 45.9881 58.6293C46.2935 58.821 46.6427 58.9169 47.0357 58.9169C47.2535 58.9169 47.4571 58.8885 47.6465 58.8317C47.8382 58.7725 48.0099 58.6861 48.1614 58.5724C48.3153 58.4588 48.4443 58.3191 48.5485 58.1534C48.655 57.9877 48.7284 57.7983 48.7686 57.5852L50.0968 57.5923C50.0471 57.938 49.9393 58.2623 49.7736 58.5653C49.6103 58.8684 49.396 59.1359 49.1309 59.3679C48.8657 59.5975 48.5556 59.7775 48.2005 59.9077C47.8453 60.0355 47.4512 60.0994 47.0179 60.0994C46.3787 60.0994 45.8082 59.9515 45.3063 59.6555C44.8044 59.3596 44.409 58.9323 44.1202 58.3736C43.8314 57.8149 43.687 57.1449 43.687 56.3636C43.687 55.58 43.8326 54.91 44.1238 54.3537C44.415 53.795 44.8115 53.3677 45.3134 53.0717C45.8153 52.7758 46.3835 52.6278 47.0179 52.6278C47.4228 52.6278 47.7992 52.6847 48.1472 52.7983C48.4952 52.9119 48.8053 53.0788 49.0776 53.299C49.3498 53.5168 49.5736 53.7843 49.7488 54.1016C49.9263 54.4164 50.0423 54.7763 50.0968 55.1811ZM51.2464 60V54.5455H52.4929V55.4545H52.5497C52.6491 55.1397 52.8196 54.897 53.0611 54.7266C53.3049 54.5537 53.5831 54.4673 53.8956 54.4673C53.9666 54.4673 54.0459 54.4709 54.1335 54.478C54.2235 54.4827 54.2981 54.491 54.3572 54.5028V55.6854C54.3028 55.6664 54.2164 55.6499 54.098 55.6357C53.982 55.6191 53.8696 55.6108 53.7607 55.6108C53.5263 55.6108 53.3156 55.6617 53.1286 55.7635C52.9439 55.8629 52.7983 56.0014 52.6918 56.179C52.5852 56.3565 52.532 56.5613 52.532 56.7933V60H51.2464ZM57.4015 60.1065C56.8546 60.1065 56.3823 59.9929 55.9846 59.7656C55.5892 59.536 55.285 59.2116 55.0719 58.7926C54.8588 58.3712 54.7523 57.8752 54.7523 57.3047C54.7523 56.7436 54.8588 56.2512 55.0719 55.8274C55.2873 55.4013 55.588 55.0698 55.9739 54.8331C56.3598 54.594 56.8132 54.4744 57.334 54.4744C57.6702 54.4744 57.9874 54.5289 58.2857 54.6378C58.5864 54.7443 58.8515 54.91 59.0811 55.1349C59.3132 55.3598 59.4954 55.6463 59.628 55.9943C59.7606 56.34 59.8269 56.7519 59.8269 57.2301V57.6243H55.356V56.7578H58.5946C58.5923 56.5116 58.539 56.2926 58.4348 56.1009C58.3307 55.9067 58.1851 55.754 57.998 55.6428C57.8134 55.5315 57.598 55.4759 57.3517 55.4759C57.089 55.4759 56.8581 55.5398 56.6593 55.6676C56.4604 55.7931 56.3053 55.9588 56.1941 56.1648C56.0852 56.3684 56.0295 56.5921 56.0272 56.8359V57.5923C56.0272 57.9096 56.0852 58.1818 56.2012 58.4091C56.3172 58.634 56.4793 58.8068 56.6877 58.9276C56.896 59.0459 57.1399 59.1051 57.4192 59.1051C57.6062 59.1051 57.7755 59.0791 57.927 59.027C58.0785 58.9725 58.2099 58.8932 58.3212 58.7891C58.4325 58.6849 58.5165 58.5559 58.5733 58.402L59.7736 58.5369C59.6979 58.8542 59.5534 59.1312 59.3404 59.3679C59.1297 59.6023 58.8598 59.7846 58.5307 59.9148C58.2016 60.0426 57.8252 60.1065 57.4015 60.1065ZM62.484 60.1101C62.1384 60.1101 61.8271 60.0485 61.5501 59.9254C61.2754 59.8 61.0576 59.6153 60.8967 59.3714C60.738 59.1276 60.6587 58.8269 60.6587 58.4695C60.6587 58.1617 60.7156 57.9072 60.8292 57.706C60.9428 57.5047 61.0979 57.3438 61.2944 57.223C61.4909 57.1023 61.7122 57.0111 61.9585 56.9496C62.207 56.8857 62.4639 56.8395 62.729 56.8111C63.0487 56.7779 63.3079 56.7483 63.5067 56.7223C63.7056 56.6939 63.85 56.6513 63.94 56.5945C64.0323 56.5353 64.0785 56.4441 64.0785 56.321V56.2997C64.0785 56.0322 63.9992 55.825 63.8406 55.6783C63.6819 55.5315 63.4535 55.4581 63.1552 55.4581C62.8403 55.4581 62.5906 55.5268 62.4059 55.6641C62.2236 55.8014 62.1005 55.9635 62.0366 56.1506L60.8363 55.9801C60.931 55.6487 61.0872 55.3717 61.305 55.1491C61.5228 54.9242 61.7892 54.7562 62.104 54.6449C62.4189 54.5312 62.7669 54.4744 63.1481 54.4744C63.4109 54.4744 63.6725 54.5052 63.9329 54.5668C64.1933 54.6283 64.4312 54.7301 64.6467 54.8722C64.8621 55.0118 65.0349 55.2024 65.1651 55.4439C65.2977 55.6854 65.364 55.9872 65.364 56.3494V60H64.1282V59.2507H64.0856C64.0075 59.4022 63.8974 59.5443 63.7553 59.6768C63.6156 59.8071 63.4393 59.9124 63.2262 59.9929C63.0155 60.071 62.7681 60.1101 62.484 60.1101ZM62.8178 59.1655C63.0759 59.1655 63.2996 59.1146 63.489 59.0128C63.6784 58.9086 63.824 58.7713 63.9258 58.6009C64.0299 58.4304 64.082 58.2446 64.082 58.0433V57.4006C64.0418 57.4337 63.9731 57.4645 63.8761 57.4929C63.7814 57.5213 63.6748 57.5462 63.5565 57.5675C63.4381 57.5888 63.3209 57.6077 63.2049 57.6243C63.0889 57.6409 62.9883 57.6551 62.9031 57.6669C62.7113 57.6929 62.5397 57.7356 62.3881 57.7947C62.2366 57.8539 62.1171 57.9368 62.0295 58.0433C61.9419 58.1475 61.8981 58.2824 61.8981 58.4482C61.8981 58.6849 61.9845 58.8636 62.1573 58.9844C62.3301 59.1051 62.5503 59.1655 62.8178 59.1655ZM69.3803 54.5455V55.5398H66.2447V54.5455H69.3803ZM67.0188 53.2386H68.3043V58.3594C68.3043 58.5322 68.3304 58.6648 68.3825 58.7571C68.4369 58.8471 68.5079 58.9086 68.5955 58.9418C68.6831 58.9749 68.7802 58.9915 68.8867 58.9915C68.9672 58.9915 69.0406 58.9856 69.1069 58.9737C69.1755 58.9619 69.2276 58.9512 69.2631 58.9418L69.4798 59.9467C69.4111 59.9704 69.3129 59.9964 69.185 60.0249C69.0595 60.0533 68.9057 60.0698 68.7234 60.0746C68.4014 60.084 68.1114 60.0355 67.8533 59.929C67.5953 59.8201 67.3905 59.652 67.239 59.4247C67.0898 59.1974 67.0165 58.9134 67.0188 58.5724V53.2386ZM72.8116 60.1065C72.2647 60.1065 71.7924 59.9929 71.3947 59.7656C70.9993 59.536 70.6951 59.2116 70.4821 58.7926C70.269 58.3712 70.1625 57.8752 70.1625 57.3047C70.1625 56.7436 70.269 56.2512 70.4821 55.8274C70.6975 55.4013 70.9982 55.0698 71.3841 54.8331C71.7699 54.594 72.2233 54.4744 72.7441 54.4744C73.0803 54.4744 73.3975 54.5289 73.6958 54.6378C73.9965 54.7443 74.2617 54.91 74.4913 55.1349C74.7233 55.3598 74.9056 55.6463 75.0382 55.9943C75.1708 56.34 75.237 56.7519 75.237 57.2301V57.6243H70.7662V56.7578H74.0048C74.0024 56.5116 73.9492 56.2926 73.845 56.1009C73.7408 55.9067 73.5952 55.754 73.4082 55.6428C73.2235 55.5315 73.0081 55.4759 72.7619 55.4759C72.4991 55.4759 72.2683 55.5398 72.0694 55.6676C71.8706 55.7931 71.7155 55.9588 71.6042 56.1648C71.4953 56.3684 71.4397 56.5921 71.4373 56.8359V57.5923C71.4373 57.9096 71.4953 58.1818 71.6113 58.4091C71.7273 58.634 71.8895 58.8068 72.0978 58.9276C72.3062 59.0459 72.55 59.1051 72.8294 59.1051C73.0164 59.1051 73.1857 59.0791 73.3372 59.027C73.4887 58.9725 73.6201 58.8932 73.7314 58.7891C73.8426 58.6849 73.9267 58.5559 73.9835 58.402L75.1838 58.5369C75.108 58.8542 74.9636 59.1312 74.7505 59.3679C74.5398 59.6023 74.2699 59.7846 73.9409 59.9148C73.6118 60.0426 73.2354 60.1065 72.8116 60.1065ZM78.3487 60.0959C77.9202 60.0959 77.5367 59.9858 77.1982 59.7656C76.8596 59.5455 76.5921 59.2259 76.3956 58.8068C76.1991 58.3878 76.1009 57.8788 76.1009 57.2798C76.1009 56.6738 76.2003 56.1624 76.3991 55.7457C76.6004 55.3267 76.8714 55.0107 77.2124 54.7976C77.5533 54.5821 77.9332 54.4744 78.3523 54.4744C78.6719 54.4744 78.9347 54.5289 79.1406 54.6378C79.3466 54.7443 79.5099 54.8733 79.6307 55.0249C79.7514 55.174 79.8449 55.3149 79.9112 55.4474H79.9645V52.7273H81.2536V60H79.9893V59.1406H79.9112C79.8449 59.2732 79.7491 59.4141 79.6236 59.5632C79.4981 59.71 79.3324 59.8355 79.1264 59.9396C78.9205 60.0438 78.6612 60.0959 78.3487 60.0959ZM78.7074 59.0412C78.9796 59.0412 79.2116 58.9678 79.4034 58.821C79.5952 58.6719 79.7408 58.4647 79.8402 58.1996C79.9396 57.9344 79.9893 57.6255 79.9893 57.2727C79.9893 56.92 79.9396 56.6134 79.8402 56.353C79.7431 56.0926 79.5987 55.8902 79.407 55.7457C79.2176 55.6013 78.9844 55.5291 78.7074 55.5291C78.4209 55.5291 78.1818 55.6037 77.9901 55.7528C77.7983 55.902 77.6539 56.108 77.5568 56.3707C77.4598 56.6335 77.4112 56.9342 77.4112 57.2727C77.4112 57.6136 77.4598 57.9179 77.5568 58.1854C77.6563 58.4505 77.8018 58.66 77.9936 58.8139C78.1877 58.9654 78.4257 59.0412 78.7074 59.0412Z" fill="white"/>
<path d="M136.651 60H135.245L137.805 52.7273H139.432L141.996 60H140.589L138.647 54.2188H138.59L136.651 60ZM136.697 57.1484H140.533V58.2067H136.697V57.1484ZM142.954 60V52.7273H144.239V55.4474H144.292C144.359 55.3149 144.452 55.174 144.573 55.0249C144.694 54.8733 144.857 54.7443 145.063 54.6378C145.269 54.5289 145.532 54.4744 145.851 54.4744C146.273 54.4744 146.653 54.5821 146.991 54.7976C147.332 55.0107 147.602 55.3267 147.801 55.7457C148.002 56.1624 148.103 56.6738 148.103 57.2798C148.103 57.8788 148.005 58.3878 147.808 58.8068C147.612 59.2259 147.344 59.5455 147.006 59.7656C146.667 59.9858 146.283 60.0959 145.855 60.0959C145.542 60.0959 145.283 60.0438 145.077 59.9396C144.871 59.8355 144.706 59.71 144.58 59.5632C144.457 59.4141 144.361 59.2732 144.292 59.1406H144.218V60H142.954ZM144.214 57.2727C144.214 57.6255 144.264 57.9344 144.363 58.1996C144.465 58.4647 144.611 58.6719 144.8 58.821C144.992 58.9678 145.224 59.0412 145.496 59.0412C145.78 59.0412 146.018 58.9654 146.21 58.8139C146.402 58.66 146.546 58.4505 146.643 58.1854C146.743 57.9179 146.792 57.6136 146.792 57.2727C146.792 56.9342 146.744 56.6335 146.647 56.3707C146.55 56.108 146.405 55.902 146.214 55.7528C146.022 55.6037 145.783 55.5291 145.496 55.5291C145.222 55.5291 144.988 55.6013 144.797 55.7457C144.605 55.8902 144.459 56.0926 144.36 56.353C144.263 56.6134 144.214 56.92 144.214 57.2727ZM151.575 60.1065C151.042 60.1065 150.581 59.9893 150.19 59.755C149.799 59.5206 149.496 59.1927 149.281 58.7713C149.068 58.3499 148.961 57.8575 148.961 57.294C148.961 56.7306 149.068 56.237 149.281 55.8132C149.496 55.3894 149.799 55.0604 150.19 54.826C150.581 54.5916 151.042 54.4744 151.575 54.4744C152.108 54.4744 152.569 54.5916 152.96 54.826C153.35 55.0604 153.652 55.3894 153.865 55.8132C154.081 56.237 154.189 56.7306 154.189 57.294C154.189 57.8575 154.081 58.3499 153.865 58.7713C153.652 59.1927 153.35 59.5206 152.96 59.755C152.569 59.9893 152.108 60.1065 151.575 60.1065ZM151.582 59.0767C151.871 59.0767 152.112 58.9974 152.306 58.8388C152.501 58.6778 152.645 58.4624 152.74 58.1925C152.837 57.9226 152.885 57.6219 152.885 57.2905C152.885 56.9567 152.837 56.6548 152.74 56.3849C152.645 56.1127 152.501 55.8961 152.306 55.7351C152.112 55.5741 151.871 55.4936 151.582 55.4936C151.286 55.4936 151.04 55.5741 150.843 55.7351C150.649 55.8961 150.504 56.1127 150.407 56.3849C150.312 56.6548 150.265 56.9567 150.265 57.2905C150.265 57.6219 150.312 57.9226 150.407 58.1925C150.504 58.4624 150.649 58.6778 150.843 58.8388C151.04 58.9974 151.286 59.0767 151.582 59.0767ZM158.756 57.706V54.5455H160.042V60H158.795V59.0305H158.738C158.615 59.3359 158.413 59.5857 158.131 59.7798C157.852 59.974 157.507 60.071 157.098 60.071C156.74 60.071 156.424 59.9917 156.15 59.8331C155.877 59.6721 155.664 59.4389 155.51 59.1335C155.357 58.8258 155.28 58.4541 155.28 58.0185V54.5455H156.565V57.8196C156.565 58.1652 156.66 58.4399 156.849 58.6435C157.039 58.8471 157.287 58.9489 157.595 58.9489C157.784 58.9489 157.968 58.9027 158.145 58.8104C158.323 58.718 158.469 58.5807 158.582 58.3984C158.698 58.2138 158.756 57.983 158.756 57.706ZM164.087 54.5455V55.5398H160.952V54.5455H164.087ZM161.726 53.2386H163.011V58.3594C163.011 58.5322 163.037 58.6648 163.089 58.7571C163.144 58.8471 163.215 58.9086 163.303 58.9418C163.39 58.9749 163.487 58.9915 163.594 58.9915C163.674 58.9915 163.748 58.9856 163.814 58.9737C163.883 58.9619 163.935 58.9512 163.97 58.9418L164.187 59.9467C164.118 59.9704 164.02 59.9964 163.892 60.0249C163.767 60.0533 163.613 60.0698 163.43 60.0746C163.108 60.084 162.818 60.0355 162.56 59.929C162.302 59.8201 162.098 59.652 161.946 59.4247C161.797 59.1974 161.723 58.9134 161.726 58.5724V53.2386ZM167.203 52.7273H168.691L170.47 55.9446H170.541L172.32 52.7273H173.808L171.162 57.2869V60H169.848V57.2869L167.203 52.7273ZM176.048 60.1065C175.515 60.1065 175.053 59.9893 174.663 59.755C174.272 59.5206 173.969 59.1927 173.754 58.7713C173.54 58.3499 173.434 57.8575 173.434 57.294C173.434 56.7306 173.54 56.237 173.754 55.8132C173.969 55.3894 174.272 55.0604 174.663 54.826C175.053 54.5916 175.515 54.4744 176.048 54.4744C176.58 54.4744 177.042 54.5916 177.433 54.826C177.823 55.0604 178.125 55.3894 178.338 55.8132C178.554 56.237 178.661 56.7306 178.661 57.294C178.661 57.8575 178.554 58.3499 178.338 58.7713C178.125 59.1927 177.823 59.5206 177.433 59.755C177.042 59.9893 176.58 60.1065 176.048 60.1065ZM176.055 59.0767C176.344 59.0767 176.585 58.9974 176.779 58.8388C176.973 58.6778 177.118 58.4624 177.212 58.1925C177.309 57.9226 177.358 57.6219 177.358 57.2905C177.358 56.9567 177.309 56.6548 177.212 56.3849C177.118 56.1127 176.973 55.8961 176.779 55.7351C176.585 55.5741 176.344 55.4936 176.055 55.4936C175.759 55.4936 175.513 55.5741 175.316 55.7351C175.122 55.8961 174.976 56.1127 174.879 56.3849C174.785 56.6548 174.737 56.9567 174.737 57.2905C174.737 57.6219 174.785 57.9226 174.879 58.1925C174.976 58.4624 175.122 58.6778 175.316 58.8388C175.513 58.9974 175.759 59.0767 176.055 59.0767ZM183.229 57.706V54.5455H184.514V60H183.268V59.0305H183.211C183.088 59.3359 182.886 59.5857 182.604 59.7798C182.325 59.974 181.98 60.071 181.57 60.071C181.213 60.071 180.897 59.9917 180.622 59.8331C180.35 59.6721 180.137 59.4389 179.983 59.1335C179.829 58.8258 179.752 58.4541 179.752 58.0185V54.5455H181.038V57.8196C181.038 58.1652 181.133 58.4399 181.322 58.6435C181.511 58.8471 181.76 58.9489 182.068 58.9489C182.257 58.9489 182.441 58.9027 182.618 58.8104C182.796 58.718 182.941 58.5807 183.055 58.3984C183.171 58.2138 183.229 57.983 183.229 57.706Z" fill="white"/>
<path d="M256.717 60V52.7273H261.447V53.8317H258.035V55.8061H261.202V56.9105H258.035V58.8956H261.476V60H256.717ZM264.759 60.0959C264.33 60.0959 263.947 59.9858 263.608 59.7656C263.27 59.5455 263.002 59.2259 262.806 58.8068C262.609 58.3878 262.511 57.8788 262.511 57.2798C262.511 56.6738 262.61 56.1624 262.809 55.7457C263.011 55.3267 263.282 55.0107 263.623 54.7976C263.963 54.5821 264.343 54.4744 264.762 54.4744C265.082 54.4744 265.345 54.5289 265.551 54.6378C265.757 54.7443 265.92 54.8733 266.041 55.0249C266.162 55.174 266.255 55.3149 266.321 55.4474H266.375V52.7273H267.664V60H266.4V59.1406H266.321C266.255 59.2732 266.159 59.4141 266.034 59.5632C265.908 59.71 265.743 59.8355 265.537 59.9396C265.331 60.0438 265.071 60.0959 264.759 60.0959ZM265.118 59.0412C265.39 59.0412 265.622 58.9678 265.814 58.821C266.005 58.6719 266.151 58.4647 266.25 58.1996C266.35 57.9344 266.4 57.6255 266.4 57.2727C266.4 56.92 266.35 56.6134 266.25 56.353C266.153 56.0926 266.009 55.8902 265.817 55.7457C265.628 55.6013 265.395 55.5291 265.118 55.5291C264.831 55.5291 264.592 55.6037 264.4 55.7528C264.208 55.902 264.064 56.108 263.967 56.3707C263.87 56.6335 263.821 56.9342 263.821 57.2727C263.821 57.6136 263.87 57.9179 263.967 58.1854C264.066 58.4505 264.212 58.66 264.404 58.8139C264.598 58.9654 264.836 59.0412 265.118 59.0412ZM272.51 57.706V54.5455H273.796V60H272.549V59.0305H272.492C272.369 59.3359 272.167 59.5857 271.885 59.7798C271.606 59.974 271.261 60.071 270.852 60.071C270.494 60.071 270.178 59.9917 269.904 59.8331C269.631 59.6721 269.418 59.4389 269.264 59.1335C269.11 58.8258 269.034 58.4541 269.034 58.0185V54.5455H270.319V57.8196C270.319 58.1652 270.414 58.4399 270.603 58.6435C270.793 58.8471 271.041 58.9489 271.349 58.9489C271.538 58.9489 271.722 58.9027 271.899 58.8104C272.077 58.718 272.222 58.5807 272.336 58.3984C272.452 58.2138 272.51 57.983 272.51 57.706ZM277.497 60.1065C276.952 60.1065 276.485 59.987 276.094 59.7479C275.706 59.5088 275.406 59.1785 275.196 58.7571C274.987 58.3333 274.883 57.8456 274.883 57.294C274.883 56.7401 274.99 56.2512 275.203 55.8274C275.416 55.4013 275.717 55.0698 276.105 54.8331C276.495 54.594 276.957 54.4744 277.49 54.4744C277.932 54.4744 278.324 54.5561 278.665 54.7195C279.008 54.8804 279.282 55.1089 279.485 55.4048C279.689 55.6984 279.805 56.0417 279.833 56.4347H278.605C278.555 56.1719 278.437 55.9529 278.25 55.7777C278.065 55.6001 277.818 55.5114 277.507 55.5114C277.245 55.5114 277.014 55.5824 276.815 55.7244C276.616 55.8641 276.461 56.0653 276.35 56.3281C276.241 56.5909 276.186 56.9058 276.186 57.2727C276.186 57.6444 276.241 57.964 276.35 58.2315C276.459 58.4967 276.611 58.7015 276.808 58.8459C277.007 58.9879 277.24 59.0589 277.507 59.0589C277.697 59.0589 277.866 59.0234 278.015 58.9524C278.167 58.879 278.293 58.7737 278.395 58.6364C278.497 58.4991 278.567 58.3321 278.605 58.1357H279.833C279.803 58.5215 279.689 58.8636 279.493 59.1619C279.296 59.4579 279.029 59.6899 278.69 59.858C278.351 60.0237 277.954 60.1065 277.497 60.1065ZM282.459 60.1101C282.113 60.1101 281.802 60.0485 281.525 59.9254C281.25 59.8 281.032 59.6153 280.871 59.3714C280.713 59.1276 280.633 58.8269 280.633 58.4695C280.633 58.1617 280.69 57.9072 280.804 57.706C280.917 57.5047 281.073 57.3438 281.269 57.223C281.465 57.1023 281.687 57.0111 281.933 56.9496C282.182 56.8857 282.439 56.8395 282.704 56.8111C283.023 56.7779 283.282 56.7483 283.481 56.7223C283.68 56.6939 283.825 56.6513 283.915 56.5945C284.007 56.5353 284.053 56.4441 284.053 56.321V56.2997C284.053 56.0322 283.974 55.825 283.815 55.6783C283.657 55.5315 283.428 55.4581 283.13 55.4581C282.815 55.4581 282.565 55.5268 282.381 55.6641C282.198 55.8014 282.075 55.9635 282.011 56.1506L280.811 55.9801C280.906 55.6487 281.062 55.3717 281.28 55.1491C281.497 54.9242 281.764 54.7562 282.079 54.6449C282.394 54.5312 282.742 54.4744 283.123 54.4744C283.385 54.4744 283.647 54.5052 283.907 54.5668C284.168 54.6283 284.406 54.7301 284.621 54.8722C284.837 55.0118 285.01 55.2024 285.14 55.4439C285.272 55.6854 285.339 55.9872 285.339 56.3494V60H284.103V59.2507H284.06C283.982 59.4022 283.872 59.5443 283.73 59.6768C283.59 59.8071 283.414 59.9124 283.201 59.9929C282.99 60.071 282.743 60.1101 282.459 60.1101ZM282.792 59.1655C283.05 59.1655 283.274 59.1146 283.464 59.0128C283.653 58.9086 283.799 58.7713 283.9 58.6009C284.005 58.4304 284.057 58.2446 284.057 58.0433V57.4006C284.016 57.4337 283.948 57.4645 283.851 57.4929C283.756 57.5213 283.649 57.5462 283.531 57.5675C283.413 57.5888 283.296 57.6077 283.18 57.6243C283.064 57.6409 282.963 57.6551 282.878 57.6669C282.686 57.6929 282.514 57.7356 282.363 57.7947C282.211 57.8539 282.092 57.9368 282.004 58.0433C281.916 58.1475 281.873 58.2824 281.873 58.4482C281.873 58.6849 281.959 58.8636 282.132 58.9844C282.305 59.1051 282.525 59.1655 282.792 59.1655ZM289.355 54.5455V55.5398H286.219V54.5455H289.355ZM286.993 53.2386H288.279V58.3594C288.279 58.5322 288.305 58.6648 288.357 58.7571C288.412 58.8471 288.483 58.9086 288.57 58.9418C288.658 58.9749 288.755 58.9915 288.861 58.9915C288.942 58.9915 289.015 58.9856 289.081 58.9737C289.15 58.9619 289.202 58.9512 289.238 58.9418L289.454 59.9467C289.386 59.9704 289.287 59.9964 289.16 60.0249C289.034 60.0533 288.88 60.0698 288.698 60.0746C288.376 60.084 288.086 60.0355 287.828 59.929C287.57 59.8201 287.365 59.652 287.214 59.4247C287.064 59.1974 286.991 58.9134 286.993 58.5724V53.2386ZM290.43 60V54.5455H291.716V60H290.43ZM291.076 53.7713C290.873 53.7713 290.698 53.7038 290.551 53.5689C290.404 53.4316 290.331 53.267 290.331 53.0753C290.331 52.8812 290.404 52.7166 290.551 52.5817C290.698 52.4444 290.873 52.3757 291.076 52.3757C291.282 52.3757 291.458 52.4444 291.602 52.5817C291.749 52.7166 291.822 52.8812 291.822 53.0753C291.822 53.267 291.749 53.4316 291.602 53.5689C291.458 53.7038 291.282 53.7713 291.076 53.7713ZM295.417 60.1065C294.884 60.1065 294.422 59.9893 294.032 59.755C293.641 59.5206 293.338 59.1927 293.123 58.7713C292.91 58.3499 292.803 57.8575 292.803 57.294C292.803 56.7306 292.91 56.237 293.123 55.8132C293.338 55.3894 293.641 55.0604 294.032 54.826C294.422 54.5916 294.884 54.4744 295.417 54.4744C295.949 54.4744 296.411 54.5916 296.802 54.826C297.192 55.0604 297.494 55.3894 297.707 55.8132C297.923 56.237 298.03 56.7306 298.03 57.294C298.03 57.8575 297.923 58.3499 297.707 58.7713C297.494 59.1927 297.192 59.5206 296.802 59.755C296.411 59.9893 295.949 60.1065 295.417 60.1065ZM295.424 59.0767C295.713 59.0767 295.954 58.9974 296.148 58.8388C296.342 58.6778 296.487 58.4624 296.581 58.1925C296.679 57.9226 296.727 57.6219 296.727 57.2905C296.727 56.9567 296.679 56.6548 296.581 56.3849C296.487 56.1127 296.342 55.8961 296.148 55.7351C295.954 55.5741 295.713 55.4936 295.424 55.4936C295.128 55.4936 294.882 55.5741 294.685 55.7351C294.491 55.8961 294.345 56.1127 294.248 56.3849C294.154 56.6548 294.106 56.9567 294.106 57.2905C294.106 57.6219 294.154 57.9226 294.248 58.1925C294.345 58.4624 294.491 58.6778 294.685 58.8388C294.882 58.9974 295.128 59.0767 295.424 59.0767ZM300.407 56.804V60H299.121V54.5455H300.35V55.4723H300.414C300.54 55.1669 300.74 54.9242 301.014 54.7443C301.291 54.5644 301.633 54.4744 302.04 54.4744C302.417 54.4744 302.745 54.5549 303.024 54.7159C303.306 54.8769 303.524 55.1101 303.678 55.4155C303.834 55.7209 303.911 56.0914 303.908 56.527V60H302.623V56.7259C302.623 56.3613 302.528 56.076 302.339 55.87C302.152 55.6641 301.893 55.5611 301.561 55.5611C301.336 55.5611 301.136 55.6108 300.961 55.7102C300.788 55.8073 300.652 55.9482 300.553 56.1328C300.455 56.3175 300.407 56.5412 300.407 56.804Z" fill="white"/>
<path d="M366.651 60H365.245L367.805 52.7273H369.432L371.996 60H370.589L368.647 54.2188H368.59L366.651 60ZM366.697 57.1484H370.533V58.2067H366.697V57.1484ZM374.755 60.0959C374.326 60.0959 373.943 59.9858 373.604 59.7656C373.266 59.5455 372.998 59.2259 372.802 58.8068C372.605 58.3878 372.507 57.8788 372.507 57.2798C372.507 56.6738 372.607 56.1624 372.805 55.7457C373.007 55.3267 373.278 55.0107 373.619 54.7976C373.96 54.5821 374.339 54.4744 374.759 54.4744C375.078 54.4744 375.341 54.5289 375.547 54.6378C375.753 54.7443 375.916 54.8733 376.037 55.0249C376.158 55.174 376.251 55.3149 376.317 55.4474H376.371V52.7273H377.66V60H376.396V59.1406H376.317C376.251 59.2732 376.155 59.4141 376.03 59.5632C375.904 59.71 375.739 59.8355 375.533 59.9396C375.327 60.0438 375.067 60.0959 374.755 60.0959ZM375.114 59.0412C375.386 59.0412 375.618 58.9678 375.81 58.821C376.001 58.6719 376.147 58.4647 376.246 58.1996C376.346 57.9344 376.396 57.6255 376.396 57.2727C376.396 56.92 376.346 56.6134 376.246 56.353C376.149 56.0926 376.005 55.8902 375.813 55.7457C375.624 55.6013 375.391 55.5291 375.114 55.5291C374.827 55.5291 374.588 55.6037 374.396 55.7528C374.205 55.902 374.06 56.108 373.963 56.3707C373.866 56.6335 373.817 56.9342 373.817 57.2727C373.817 57.6136 373.866 57.9179 373.963 58.1854C374.063 58.4505 374.208 58.66 374.4 58.8139C374.594 58.9654 374.832 59.0412 375.114 59.0412ZM381.054 60.0959C380.625 60.0959 380.242 59.9858 379.903 59.7656C379.565 59.5455 379.297 59.2259 379.101 58.8068C378.904 58.3878 378.806 57.8788 378.806 57.2798C378.806 56.6738 378.905 56.1624 379.104 55.7457C379.305 55.3267 379.577 55.0107 379.917 54.7976C380.258 54.5821 380.638 54.4744 381.057 54.4744C381.377 54.4744 381.64 54.5289 381.846 54.6378C382.052 54.7443 382.215 54.8733 382.336 55.0249C382.456 55.174 382.55 55.3149 382.616 55.4474H382.67V52.7273H383.959V60H382.694V59.1406H382.616C382.55 59.2732 382.454 59.4141 382.329 59.5632C382.203 59.71 382.037 59.8355 381.831 59.9396C381.626 60.0438 381.366 60.0959 381.054 60.0959ZM381.412 59.0412C381.685 59.0412 381.917 58.9678 382.108 58.821C382.3 58.6719 382.446 58.4647 382.545 58.1996C382.645 57.9344 382.694 57.6255 382.694 57.2727C382.694 56.92 382.645 56.6134 382.545 56.353C382.448 56.0926 382.304 55.8902 382.112 55.7457C381.923 55.6013 381.689 55.5291 381.412 55.5291C381.126 55.5291 380.887 55.6037 380.695 55.7528C380.503 55.902 380.359 56.108 380.262 56.3707C380.165 56.6335 380.116 56.9342 380.116 57.2727C380.116 57.6136 380.165 57.9179 380.262 58.1854C380.361 58.4505 380.507 58.66 380.699 58.8139C380.893 58.9654 381.131 59.0412 381.412 59.0412ZM385.328 60V54.5455H386.614V60H385.328ZM385.975 53.7713C385.771 53.7713 385.596 53.7038 385.449 53.5689C385.302 53.4316 385.229 53.267 385.229 53.0753C385.229 52.8812 385.302 52.7166 385.449 52.5817C385.596 52.4444 385.771 52.3757 385.975 52.3757C386.181 52.3757 386.356 52.4444 386.5 52.5817C386.647 52.7166 386.721 52.8812 386.721 53.0753C386.721 53.267 386.647 53.4316 386.5 53.5689C386.356 53.7038 386.181 53.7713 385.975 53.7713ZM390.66 54.5455V55.5398H387.524V54.5455H390.66ZM388.298 53.2386H389.584V58.3594C389.584 58.5322 389.61 58.6648 389.662 58.7571C389.716 58.8471 389.787 58.9086 389.875 58.9418C389.962 58.9749 390.059 58.9915 390.166 58.9915C390.247 58.9915 390.32 58.9856 390.386 58.9737C390.455 58.9619 390.507 58.9512 390.542 58.9418L390.759 59.9467C390.69 59.9704 390.592 59.9964 390.464 60.0249C390.339 60.0533 390.185 60.0698 390.003 60.0746C389.681 60.084 389.391 60.0355 389.133 59.929C388.875 59.8201 388.67 59.652 388.518 59.4247C388.369 59.1974 388.296 58.9134 388.298 58.5724V53.2386ZM391.735 60V54.5455H393.02V60H391.735ZM392.381 53.7713C392.177 53.7713 392.002 53.7038 391.855 53.5689C391.709 53.4316 391.635 53.267 391.635 53.0753C391.635 52.8812 391.709 52.7166 391.855 52.5817C392.002 52.4444 392.177 52.3757 392.381 52.3757C392.587 52.3757 392.762 52.4444 392.907 52.5817C393.053 52.7166 393.127 52.8812 393.127 53.0753C393.127 53.267 393.053 53.4316 392.907 53.5689C392.762 53.7038 392.587 53.7713 392.381 53.7713ZM396.721 60.1065C396.189 60.1065 395.727 59.9893 395.336 59.755C394.946 59.5206 394.643 59.1927 394.427 58.7713C394.214 58.3499 394.108 57.8575 394.108 57.294C394.108 56.7306 394.214 56.237 394.427 55.8132C394.643 55.3894 394.946 55.0604 395.336 54.826C395.727 54.5916 396.189 54.4744 396.721 54.4744C397.254 54.4744 397.716 54.5916 398.106 54.826C398.497 55.0604 398.799 55.3894 399.012 55.8132C399.227 56.237 399.335 56.7306 399.335 57.294C399.335 57.8575 399.227 58.3499 399.012 58.7713C398.799 59.1927 398.497 59.5206 398.106 59.755C397.716 59.9893 397.254 60.1065 396.721 60.1065ZM396.729 59.0767C397.017 59.0767 397.259 58.9974 397.453 58.8388C397.647 58.6778 397.791 58.4624 397.886 58.1925C397.983 57.9226 398.032 57.6219 398.032 57.2905C398.032 56.9567 397.983 56.6548 397.886 56.3849C397.791 56.1127 397.647 55.8961 397.453 55.7351C397.259 55.5741 397.017 55.4936 396.729 55.4936C396.433 55.4936 396.186 55.5741 395.99 55.7351C395.796 55.8961 395.65 56.1127 395.553 56.3849C395.458 56.6548 395.411 56.9567 395.411 57.2905C395.411 57.6219 395.458 57.9226 395.553 58.1925C395.65 58.4624 395.796 58.6778 395.99 58.8388C396.186 58.9974 396.433 59.0767 396.729 59.0767ZM401.712 56.804V60H400.426V54.5455H401.655V55.4723H401.719C401.844 55.1669 402.044 54.9242 402.319 54.7443C402.596 54.5644 402.938 54.4744 403.345 54.4744C403.722 54.4744 404.049 54.5549 404.329 54.7159C404.611 54.8769 404.828 55.1101 404.982 55.4155C405.138 55.7209 405.215 56.0914 405.213 56.527V60H403.928V56.7259C403.928 56.3613 403.833 56.076 403.643 55.87C403.456 55.6641 403.197 55.5611 402.866 55.5611C402.641 55.5611 402.441 55.6108 402.266 55.7102C402.093 55.8073 401.957 55.9482 401.857 56.1328C401.76 56.3175 401.712 56.5412 401.712 56.804ZM408.089 60.1101C407.744 60.1101 407.433 60.0485 407.156 59.9254C406.881 59.8 406.663 59.6153 406.502 59.3714C406.344 59.1276 406.264 58.8269 406.264 58.4695C406.264 58.1617 406.321 57.9072 406.435 57.706C406.548 57.5047 406.703 57.3438 406.9 57.223C407.096 57.1023 407.318 57.0111 407.564 56.9496C407.813 56.8857 408.069 56.8395 408.335 56.8111C408.654 56.7779 408.913 56.7483 409.112 56.7223C409.311 56.6939 409.455 56.6513 409.545 56.5945C409.638 56.5353 409.684 56.4441 409.684 56.321V56.2997C409.684 56.0322 409.605 55.825 409.446 55.6783C409.287 55.5315 409.059 55.4581 408.761 55.4581C408.446 55.4581 408.196 55.5268 408.011 55.6641C407.829 55.8014 407.706 55.9635 407.642 56.1506L406.442 55.9801C406.536 55.6487 406.693 55.3717 406.911 55.1491C407.128 54.9242 407.395 54.7562 407.71 54.6449C408.024 54.5312 408.372 54.4744 408.754 54.4744C409.016 54.4744 409.278 54.5052 409.538 54.5668C409.799 54.6283 410.037 54.7301 410.252 54.8722C410.468 55.0118 410.64 55.2024 410.771 55.4439C410.903 55.6854 410.969 55.9872 410.969 56.3494V60H409.734V59.2507H409.691C409.613 59.4022 409.503 59.5443 409.361 59.6768C409.221 59.8071 409.045 59.9124 408.832 59.9929C408.621 60.071 408.374 60.1101 408.089 60.1101ZM408.423 59.1655C408.681 59.1655 408.905 59.1146 409.094 59.0128C409.284 58.9086 409.429 58.7713 409.531 58.6009C409.635 58.4304 409.688 58.2446 409.688 58.0433V57.4006C409.647 57.4337 409.579 57.4645 409.482 57.4929C409.387 57.5213 409.28 57.5462 409.162 57.5675C409.044 57.5888 408.926 57.6077 408.81 57.6243C408.694 57.6409 408.594 57.6551 408.509 57.6669C408.317 57.6929 408.145 57.7356 407.994 57.7947C407.842 57.8539 407.723 57.9368 407.635 58.0433C407.547 58.1475 407.504 58.2824 407.504 58.4482C407.504 58.6849 407.59 58.8636 407.763 58.9844C407.936 59.1051 408.156 59.1655 408.423 59.1655ZM413.548 52.7273V60H412.262V52.7273H413.548ZM418.724 52.7273V60H417.407V52.7273H418.724ZM421.38 56.804V60H420.094V54.5455H421.323V55.4723H421.387C421.512 55.1669 421.712 54.9242 421.987 54.7443C422.264 54.5644 422.606 54.4744 423.013 54.4744C423.39 54.4744 423.717 54.5549 423.997 54.7159C424.279 54.8769 424.496 55.1101 424.65 55.4155C424.806 55.7209 424.883 56.0914 424.881 56.527V60H423.596V56.7259C423.596 56.3613 423.501 56.076 423.311 55.87C423.124 55.6641 422.865 55.5611 422.534 55.5611C422.309 55.5611 422.109 55.6108 421.934 55.7102C421.761 55.8073 421.625 55.9482 421.525 56.1328C421.428 56.3175 421.38 56.5412 421.38 56.804ZM428.951 54.5455V55.5398H425.726V54.5455H428.951ZM426.532 60V54.0305C426.532 53.6636 426.608 53.3582 426.76 53.1143C426.913 52.8705 427.119 52.6882 427.377 52.5675C427.636 52.4467 427.922 52.3864 428.237 52.3864C428.459 52.3864 428.657 52.4041 428.83 52.4396C429.003 52.4751 429.131 52.5071 429.213 52.5355L428.958 53.5298C428.903 53.5133 428.835 53.4967 428.752 53.4801C428.669 53.4612 428.577 53.4517 428.475 53.4517C428.236 53.4517 428.066 53.5097 427.967 53.6257C427.87 53.7393 427.821 53.9027 427.821 54.1158V60H426.532ZM432.132 60.1065C431.599 60.1065 431.137 59.9893 430.747 59.755C430.356 59.5206 430.053 59.1927 429.838 58.7713C429.624 58.3499 429.518 57.8575 429.518 57.294C429.518 56.7306 429.624 56.237 429.838 55.8132C430.053 55.3894 430.356 55.0604 430.747 54.826C431.137 54.5916 431.599 54.4744 432.132 54.4744C432.664 54.4744 433.126 54.5916 433.517 54.826C433.907 55.0604 434.209 55.3894 434.422 55.8132C434.637 56.237 434.745 56.7306 434.745 57.294C434.745 57.8575 434.637 58.3499 434.422 58.7713C434.209 59.1927 433.907 59.5206 433.517 59.755C433.126 59.9893 432.664 60.1065 432.132 60.1065ZM432.139 59.0767C432.427 59.0767 432.669 58.9974 432.863 58.8388C433.057 58.6778 433.202 58.4624 433.296 58.1925C433.393 57.9226 433.442 57.6219 433.442 57.2905C433.442 56.9567 433.393 56.6548 433.296 56.3849C433.202 56.1127 433.057 55.8961 432.863 55.7351C432.669 55.5741 432.427 55.4936 432.139 55.4936C431.843 55.4936 431.597 55.5741 431.4 55.7351C431.206 55.8961 431.06 56.1127 430.963 56.3849C430.869 56.6548 430.821 56.9567 430.821 57.2905C430.821 57.6219 430.869 57.9226 430.963 58.1925C431.06 58.4624 431.206 58.6778 431.4 58.8388C431.597 58.9974 431.843 59.0767 432.139 59.0767Z" fill="white"/>
<path d="M502.717 60V52.7273H505.445C506.003 52.7273 506.472 52.8314 506.851 53.0398C507.232 53.2481 507.52 53.5346 507.714 53.8991C507.91 54.2614 508.009 54.6733 508.009 55.1349C508.009 55.6013 507.91 56.0156 507.714 56.3778C507.517 56.7401 507.227 57.0253 506.844 57.2337C506.46 57.4396 505.988 57.5426 505.427 57.5426H503.619V56.4595H505.249C505.576 56.4595 505.844 56.4027 506.052 56.2891C506.26 56.1754 506.414 56.0192 506.513 55.8203C506.615 55.6214 506.666 55.393 506.666 55.1349C506.666 54.8769 506.615 54.6496 506.513 54.4531C506.414 54.2566 506.259 54.1039 506.048 53.995C505.84 53.8838 505.571 53.8281 505.242 53.8281H504.035V60H502.717ZM511.397 60.1065C510.865 60.1065 510.403 59.9893 510.012 59.755C509.622 59.5206 509.319 59.1927 509.103 58.7713C508.89 58.3499 508.784 57.8575 508.784 57.294C508.784 56.7306 508.89 56.237 509.103 55.8132C509.319 55.3894 509.622 55.0604 510.012 54.826C510.403 54.5916 510.865 54.4744 511.397 54.4744C511.93 54.4744 512.392 54.5916 512.782 54.826C513.173 55.0604 513.475 55.3894 513.688 55.8132C513.903 56.237 514.011 56.7306 514.011 57.294C514.011 57.8575 513.903 58.3499 513.688 58.7713C513.475 59.1927 513.173 59.5206 512.782 59.755C512.392 59.9893 511.93 60.1065 511.397 60.1065ZM511.404 59.0767C511.693 59.0767 511.935 58.9974 512.129 58.8388C512.323 58.6778 512.467 58.4624 512.562 58.1925C512.659 57.9226 512.708 57.6219 512.708 57.2905C512.708 56.9567 512.659 56.6548 512.562 56.3849C512.467 56.1127 512.323 55.8961 512.129 55.7351C511.935 55.5741 511.693 55.4936 511.404 55.4936C511.108 55.4936 510.862 55.5741 510.666 55.7351C510.472 55.8961 510.326 56.1127 510.229 56.3849C510.134 56.6548 510.087 56.9567 510.087 57.2905C510.087 57.6219 510.134 57.9226 510.229 58.1925C510.326 58.4624 510.472 58.6778 510.666 58.8388C510.862 58.9974 511.108 59.0767 511.404 59.0767ZM516.387 52.7273V60H515.102V52.7273H516.387ZM517.709 60V54.5455H518.995V60H517.709ZM518.356 53.7713C518.152 53.7713 517.977 53.7038 517.83 53.5689C517.683 53.4316 517.61 53.267 517.61 53.0753C517.61 52.8812 517.683 52.7166 517.83 52.5817C517.977 52.4444 518.152 52.3757 518.356 52.3757C518.562 52.3757 518.737 52.4444 518.881 52.5817C519.028 52.7166 519.101 52.8812 519.101 53.0753C519.101 53.267 519.028 53.4316 518.881 53.5689C518.737 53.7038 518.562 53.7713 518.356 53.7713ZM522.696 60.1065C522.152 60.1065 521.684 59.987 521.293 59.7479C520.905 59.5088 520.606 59.1785 520.395 58.7571C520.187 58.3333 520.082 57.8456 520.082 57.294C520.082 56.7401 520.189 56.2512 520.402 55.8274C520.615 55.4013 520.916 55.0698 521.304 54.8331C521.695 54.594 522.156 54.4744 522.689 54.4744C523.132 54.4744 523.523 54.5561 523.864 54.7195C524.208 54.8804 524.481 55.1089 524.685 55.4048C524.888 55.6984 525.004 56.0417 525.033 56.4347H523.804C523.754 56.1719 523.636 55.9529 523.449 55.7777C523.264 55.6001 523.017 55.5114 522.707 55.5114C522.444 55.5114 522.213 55.5824 522.014 55.7244C521.815 55.8641 521.66 56.0653 521.549 56.3281C521.44 56.5909 521.386 56.9058 521.386 57.2727C521.386 57.6444 521.44 57.964 521.549 58.2315C521.658 58.4967 521.811 58.7015 522.007 58.8459C522.206 58.9879 522.439 59.0589 522.707 59.0589C522.896 59.0589 523.065 59.0234 523.214 58.9524C523.366 58.879 523.493 58.7737 523.594 58.6364C523.696 58.4991 523.766 58.3321 523.804 58.1357H525.033C525.002 58.5215 524.888 58.8636 524.692 59.1619C524.495 59.4579 524.228 59.6899 523.889 59.858C523.551 60.0237 523.153 60.1065 522.696 60.1065ZM526.088 60V54.5455H527.374V60H526.088ZM526.735 53.7713C526.531 53.7713 526.356 53.7038 526.209 53.5689C526.062 53.4316 525.989 53.267 525.989 53.0753C525.989 52.8812 526.062 52.7166 526.209 52.5817C526.356 52.4444 526.531 52.3757 526.735 52.3757C526.941 52.3757 527.116 52.4444 527.26 52.5817C527.407 52.7166 527.48 52.8812 527.48 53.0753C527.48 53.267 527.407 53.4316 527.26 53.5689C527.116 53.7038 526.941 53.7713 526.735 53.7713ZM531.11 60.1065C530.564 60.1065 530.091 59.9929 529.694 59.7656C529.298 59.536 528.994 59.2116 528.781 58.7926C528.568 58.3712 528.461 57.8752 528.461 57.3047C528.461 56.7436 528.568 56.2512 528.781 55.8274C528.996 55.4013 529.297 55.0698 529.683 54.8331C530.069 54.594 530.522 54.4744 531.043 54.4744C531.379 54.4744 531.696 54.5289 531.995 54.6378C532.295 54.7443 532.56 54.91 532.79 55.1349C533.022 55.3598 533.204 55.6463 533.337 55.9943C533.47 56.34 533.536 56.7519 533.536 57.2301V57.6243H529.065V56.7578H532.304C532.301 56.5116 532.248 56.2926 532.144 56.1009C532.04 55.9067 531.894 55.754 531.707 55.6428C531.522 55.5315 531.307 55.4759 531.061 55.4759C530.798 55.4759 530.567 55.5398 530.368 55.6676C530.169 55.7931 530.014 55.9588 529.903 56.1648C529.794 56.3684 529.739 56.5921 529.736 56.8359V57.5923C529.736 57.9096 529.794 58.1818 529.91 58.4091C530.026 58.634 530.188 58.8068 530.397 58.9276C530.605 59.0459 530.849 59.1051 531.128 59.1051C531.315 59.1051 531.484 59.0791 531.636 59.027C531.788 58.9725 531.919 58.8932 532.03 58.7891C532.141 58.6849 532.225 58.5559 532.282 58.402L533.483 58.5369C533.407 58.8542 533.262 59.1312 533.049 59.3679C532.839 59.6023 532.569 59.7846 532.24 59.9148C531.911 60.0426 531.534 60.1065 531.11 60.1065ZM538.934 55.9872L537.763 56.1151C537.729 55.9967 537.671 55.8854 537.589 55.7812C537.508 55.6771 537.399 55.593 537.262 55.5291C537.125 55.4652 536.956 55.4332 536.758 55.4332C536.49 55.4332 536.265 55.4912 536.083 55.6072C535.903 55.7232 535.814 55.8736 535.817 56.0582C535.814 56.2169 535.872 56.3459 535.991 56.4453C536.111 56.5447 536.31 56.6264 536.587 56.6903L537.518 56.8892C538.034 57.0005 538.417 57.1768 538.668 57.4183C538.921 57.6598 539.049 57.9759 539.052 58.3665C539.049 58.7098 538.949 59.0128 538.75 59.2756C538.553 59.536 538.28 59.7396 537.93 59.8864C537.579 60.0331 537.177 60.1065 536.722 60.1065C536.055 60.1065 535.517 59.9669 535.11 59.6875C534.703 59.4058 534.46 59.014 534.382 58.5121L535.635 58.3913C535.692 58.6375 535.813 58.8234 535.998 58.9489C536.182 59.0743 536.423 59.1371 536.719 59.1371C537.024 59.1371 537.269 59.0743 537.454 58.9489C537.641 58.8234 537.734 58.6683 537.734 58.4837C537.734 58.3274 537.674 58.1984 537.553 58.0966C537.435 57.9948 537.25 57.9167 536.999 57.8622L536.069 57.6669C535.546 57.558 535.158 57.3745 534.907 57.1165C534.657 56.8561 534.532 56.527 534.535 56.1293C534.532 55.7931 534.623 55.5019 534.808 55.2557C534.995 55.0071 535.254 54.8153 535.586 54.6804C535.92 54.5431 536.304 54.4744 536.74 54.4744C537.379 54.4744 537.882 54.6106 538.249 54.8828C538.618 55.1551 538.847 55.5232 538.934 55.9872Z" fill="white"/>
<path d="M618.67 54.7266C618.637 54.4164 618.497 54.175 618.251 54.0021C618.007 53.8293 617.69 53.7429 617.299 53.7429C617.024 53.7429 616.789 53.7843 616.592 53.8672C616.396 53.95 616.246 54.0625 616.141 54.2045C616.037 54.3466 615.984 54.5088 615.982 54.6911C615.982 54.8426 616.016 54.974 616.085 55.0852C616.156 55.1965 616.251 55.2912 616.372 55.3693C616.493 55.4451 616.627 55.509 616.773 55.5611C616.92 55.6132 617.068 55.657 617.217 55.6925L617.899 55.8629C618.174 55.9268 618.438 56.0133 618.691 56.1222C618.947 56.2311 619.175 56.3684 619.376 56.5341C619.58 56.6998 619.741 56.8999 619.859 57.1342C619.978 57.3686 620.037 57.6432 620.037 57.9581C620.037 58.3842 619.928 58.7595 619.71 59.0838C619.492 59.4058 619.178 59.6579 618.766 59.8402C618.356 60.0201 617.86 60.1101 617.278 60.1101C616.712 60.1101 616.221 60.0225 615.804 59.8473C615.39 59.6721 615.065 59.4164 614.831 59.0803C614.599 58.7441 614.473 58.3345 614.455 57.8516H615.751C615.77 58.1049 615.848 58.3156 615.985 58.4837C616.122 58.6518 616.301 58.7772 616.521 58.8601C616.744 58.9429 616.992 58.9844 617.267 58.9844C617.554 58.9844 617.804 58.9418 618.02 58.8565C618.238 58.7689 618.408 58.6482 618.531 58.4943C618.654 58.3381 618.717 58.1558 618.719 57.9474C618.717 57.758 618.661 57.6018 618.553 57.4787C618.444 57.3532 618.291 57.2491 618.094 57.1662C617.9 57.081 617.673 57.0052 617.413 56.9389L616.585 56.7259C615.986 56.572 615.513 56.3388 615.165 56.0263C614.819 55.7114 614.646 55.2936 614.646 54.7727C614.646 54.3442 614.762 53.969 614.994 53.647C615.229 53.325 615.547 53.0753 615.95 52.8977C616.352 52.7178 616.808 52.6278 617.317 52.6278C617.833 52.6278 618.285 52.7178 618.673 52.8977C619.064 53.0753 619.371 53.3227 619.593 53.6399C619.816 53.9548 619.93 54.317 619.938 54.7266H618.67ZM624.631 57.706V54.5455H625.917V60H624.67V59.0305H624.613C624.49 59.3359 624.288 59.5857 624.006 59.7798C623.727 59.974 623.382 60.071 622.973 60.071C622.615 60.071 622.299 59.9917 622.025 59.8331C621.752 59.6721 621.539 59.4389 621.385 59.1335C621.232 58.8258 621.155 58.4541 621.155 58.0185V54.5455H622.44V57.8196C622.44 58.1652 622.535 58.4399 622.724 58.6435C622.914 58.8471 623.162 58.9489 623.47 58.9489C623.659 58.9489 623.843 58.9027 624.02 58.8104C624.198 58.718 624.344 58.5807 624.457 58.3984C624.573 58.2138 624.631 57.983 624.631 57.706ZM627.295 60V52.7273H628.581V55.4474H628.634C628.701 55.3149 628.794 55.174 628.915 55.0249C629.036 54.8733 629.199 54.7443 629.405 54.6378C629.611 54.5289 629.874 54.4744 630.193 54.4744C630.615 54.4744 630.995 54.5821 631.333 54.7976C631.674 55.0107 631.944 55.3267 632.143 55.7457C632.344 56.1624 632.445 56.6738 632.445 57.2798C632.445 57.8788 632.346 58.3878 632.15 58.8068C631.953 59.2259 631.686 59.5455 631.347 59.7656C631.009 59.9858 630.625 60.0959 630.197 60.0959C629.884 60.0959 629.625 60.0438 629.419 59.9396C629.213 59.8355 629.047 59.71 628.922 59.5632C628.799 59.4141 628.703 59.2732 628.634 59.1406H628.56V60H627.295ZM628.556 57.2727C628.556 57.6255 628.606 57.9344 628.705 58.1996C628.807 58.4647 628.953 58.6719 629.142 58.821C629.334 58.9678 629.566 59.0412 629.838 59.0412C630.122 59.0412 630.36 58.9654 630.552 58.8139C630.744 58.66 630.888 58.4505 630.985 58.1854C631.085 57.9179 631.134 57.6136 631.134 57.2727C631.134 56.9342 631.086 56.6335 630.989 56.3707C630.892 56.108 630.747 55.902 630.555 55.7528C630.364 55.6037 630.125 55.5291 629.838 55.5291C629.563 55.5291 629.33 55.6013 629.138 55.7457C628.947 55.8902 628.801 56.0926 628.702 56.353C628.605 56.6134 628.556 56.92 628.556 57.2727ZM633.537 60V54.5455H634.766V55.4723H634.83C634.944 55.1598 635.132 54.916 635.395 54.7408C635.657 54.5632 635.971 54.4744 636.336 54.4744C636.705 54.4744 637.016 54.5644 637.27 54.7443C637.525 54.9219 637.705 55.1645 637.809 55.4723H637.866C637.987 55.1693 638.191 54.9278 638.477 54.7479C638.766 54.5656 639.108 54.4744 639.503 54.4744C640.005 54.4744 640.415 54.633 640.732 54.9503C641.049 55.2675 641.208 55.7304 641.208 56.3388V60H639.919V56.5376C639.919 56.1991 639.829 55.9517 639.649 55.7955C639.469 55.6368 639.249 55.5575 638.988 55.5575C638.678 55.5575 638.436 55.6546 638.26 55.8487C638.088 56.0405 638.001 56.2902 638.001 56.598V60H636.741V56.4844C636.741 56.2027 636.655 55.9777 636.485 55.8097C636.317 55.6416 636.097 55.5575 635.824 55.5575C635.64 55.5575 635.472 55.6049 635.32 55.6996C635.169 55.7919 635.048 55.9233 634.958 56.0938C634.868 56.2618 634.823 56.4583 634.823 56.6832V60H633.537ZM642.512 60V54.5455H643.798V60H642.512ZM643.158 53.7713C642.955 53.7713 642.78 53.7038 642.633 53.5689C642.486 53.4316 642.413 53.267 642.413 53.0753C642.413 52.8812 642.486 52.7166 642.633 52.5817C642.78 52.4444 642.955 52.3757 643.158 52.3757C643.364 52.3757 643.54 52.4444 643.684 52.5817C643.831 52.7166 643.904 52.8812 643.904 53.0753C643.904 53.267 643.831 53.4316 643.684 53.5689C643.54 53.7038 643.364 53.7713 643.158 53.7713ZM647.843 54.5455V55.5398H644.708V54.5455H647.843ZM645.482 53.2386H646.767V58.3594C646.767 58.5322 646.793 58.6648 646.845 58.7571C646.9 58.8471 646.971 58.9086 647.058 58.9418C647.146 58.9749 647.243 58.9915 647.35 58.9915C647.43 58.9915 647.503 58.9856 647.57 58.9737C647.638 58.9619 647.691 58.9512 647.726 58.9418L647.943 59.9467C647.874 59.9704 647.776 59.9964 647.648 60.0249C647.522 60.0533 647.369 60.0698 647.186 60.0746C646.864 60.084 646.574 60.0355 646.316 59.929C646.058 59.8201 645.853 59.652 645.702 59.4247C645.553 59.1974 645.479 58.9134 645.482 58.5724V53.2386ZM651.642 54.5455V55.5398H648.506V54.5455H651.642ZM649.281 53.2386H650.566V58.3594C650.566 58.5322 650.592 58.6648 650.644 58.7571C650.699 58.8471 650.77 58.9086 650.857 58.9418C650.945 58.9749 651.042 58.9915 651.148 58.9915C651.229 58.9915 651.302 58.9856 651.369 58.9737C651.437 58.9619 651.489 58.9512 651.525 58.9418L651.741 59.9467C651.673 59.9704 651.575 59.9964 651.447 60.0249C651.321 60.0533 651.167 60.0698 650.985 60.0746C650.663 60.084 650.373 60.0355 650.115 59.929C649.857 59.8201 649.652 59.652 649.501 59.4247C649.352 59.1974 649.278 58.9134 649.281 58.5724V53.2386ZM655.073 60.1065C654.526 60.1065 654.054 59.9929 653.656 59.7656C653.261 59.536 652.957 59.2116 652.744 58.7926C652.531 58.3712 652.424 57.8752 652.424 57.3047C652.424 56.7436 652.531 56.2512 652.744 55.8274C652.959 55.4013 653.26 55.0698 653.646 54.8331C654.032 54.594 654.485 54.4744 655.006 54.4744C655.342 54.4744 655.659 54.5289 655.958 54.6378C656.258 54.7443 656.523 54.91 656.753 55.1349C656.985 55.3598 657.167 55.6463 657.3 55.9943C657.432 56.34 657.499 56.7519 657.499 57.2301V57.6243H653.028V56.7578H656.267C656.264 56.5116 656.211 56.2926 656.107 56.1009C656.003 55.9067 655.857 55.754 655.67 55.6428C655.485 55.5315 655.27 55.4759 655.024 55.4759C654.761 55.4759 654.53 55.5398 654.331 55.6676C654.132 55.7931 653.977 55.9588 653.866 56.1648C653.757 56.3684 653.701 56.5921 653.699 56.8359V57.5923C653.699 57.9096 653.757 58.1818 653.873 58.4091C653.989 58.634 654.151 58.8068 654.36 58.9276C654.568 59.0459 654.812 59.1051 655.091 59.1051C655.278 59.1051 655.447 59.0791 655.599 59.027C655.75 58.9725 655.882 58.8932 655.993 58.7891C656.104 58.6849 656.188 58.5559 656.245 58.402L657.445 58.5369C657.37 58.8542 657.225 59.1312 657.012 59.3679C656.802 59.6023 656.532 59.7846 656.203 59.9148C655.874 60.0426 655.497 60.1065 655.073 60.1065ZM660.61 60.0959C660.182 60.0959 659.798 59.9858 659.46 59.7656C659.121 59.5455 658.854 59.2259 658.657 58.8068C658.461 58.3878 658.363 57.8788 658.363 57.2798C658.363 56.6738 658.462 56.1624 658.661 55.7457C658.862 55.3267 659.133 55.0107 659.474 54.7976C659.815 54.5821 660.195 54.4744 660.614 54.4744C660.934 54.4744 661.196 54.5289 661.402 54.6378C661.608 54.7443 661.772 54.8733 661.892 55.0249C662.013 55.174 662.107 55.3149 662.173 55.4474H662.226V52.7273H663.515V60H662.251V59.1406H662.173C662.107 59.2732 662.011 59.4141 661.885 59.5632C661.76 59.71 661.594 59.8355 661.388 59.9396C661.182 60.0438 660.923 60.0959 660.61 60.0959ZM660.969 59.0412C661.241 59.0412 661.473 58.9678 661.665 58.821C661.857 58.6719 662.002 58.4647 662.102 58.1996C662.201 57.9344 662.251 57.6255 662.251 57.2727C662.251 56.92 662.201 56.6134 662.102 56.353C662.005 56.0926 661.86 55.8902 661.669 55.7457C661.479 55.6013 661.246 55.5291 660.969 55.5291C660.683 55.5291 660.444 55.6037 660.252 55.7528C660.06 55.902 659.916 56.108 659.819 56.3707C659.721 56.6335 659.673 56.9342 659.673 57.2727C659.673 57.6136 659.721 57.9179 659.819 58.1854C659.918 58.4505 660.064 58.66 660.255 58.8139C660.449 58.9654 660.687 59.0412 660.969 59.0412ZM666.458 52.7273L666.341 57.8622H665.198L665.084 52.7273H666.458ZM665.769 60.0781C665.554 60.0781 665.369 60.0024 665.215 59.8509C665.064 59.6993 664.988 59.5147 664.988 59.2969C664.988 59.0838 665.064 58.9015 665.215 58.75C665.369 58.5985 665.554 58.5227 665.769 58.5227C665.98 58.5227 666.162 58.5985 666.316 58.75C666.472 58.9015 666.551 59.0838 666.551 59.2969C666.551 59.4413 666.514 59.5727 666.441 59.6911C666.369 59.8094 666.275 59.9041 666.156 59.9751C666.04 60.0438 665.911 60.0781 665.769 60.0781Z" fill="white"/>
<path d="M401.866 46.5C401.481 47.1667 400.519 47.1667 400.134 46.5L394.938 37.5C394.553 36.8333 395.034 36 395.804 36L406.196 36C406.966 36 407.447 36.8333 407.062 37.5L401.866 46.5Z" fill="#474747"/>
<circle cx="41" cy="20" r="20" fill="#474747"/>
<circle cx="161" cy="20" r="20" fill="#474747"/>
<circle cx="281" cy="20" r="20" fill="#474747"/>
<circle cx="401" cy="20" r="20" fill="#474747"/>
<circle cx="521" cy="20" r="20" fill="#474747"/>
<circle cx="641" cy="20" r="20" fill="#474747"/>
<rect x="36" y="15" width="610" height="10" fill="#474747"/>
<rect x="281" y="18" width="120" height="4" fill="url(#paint0_linear_720_575)"/>
<circle cx="401" cy="20" r="15" fill="#FAAF40"/>
<circle cx="41" cy="20" r="15" fill="#41AD3F"/>
<circle cx="281" cy="20" r="15" fill="#41AD3F"/>
<rect x="161" y="18" width="120" height="4" fill="#41AD3F"/>
<circle cx="161" cy="20" r="15" fill="#41AD3F"/>
<rect x="41" y="18" width="120" height="4" fill="#41AD3F"/>
<defs>
<linearGradient id="paint0_linear_720_575" x1="296.5" y1="20" x2="386" y2="20" gradientUnits="userSpaceOnUse">
<stop stop-color="#41AD3F"/>
<stop offset="1" stop-color="#FAAF40"/>
</linearGradient>
</defs>
</svg>
